  0
SECTION
  2
HEADER
  9
$ACADVER
  1
AC1018
  9
$ACADMAINTVER
 70
    39
  9
$DWGCODEPAGE
  3
ANSI_936
  9
$INSBASE
 10
0.0
 20
0.0
 30
0.0
  9
$EXTMIN
 10
-4388.459499999999
 20
263.3669132441014
 30
0.0
  9
$EXTMAX
 10
3409.3657
 20
598.4182919097985
 30
0.0
  9
$LIMMIN
 10
0.0
 20
0.0
  9
$LIMMAX
 10
12.0
 20
9.0
  9
$ORTHOMODE
 70
     0
  9
$REGENMODE
 70
     1
  9
$FILLMODE
 70
     1
  9
$QTEXTMODE
 70
     0
  9
$MIRRTEXT
 70
     1
  9
$LTSCALE
 40
1.0
  9
$ATTMODE
 70
     1
  9
$TEXTSIZE
 40
0.2
  9
$TRACEWID
 40
0.05
  9
$TEXTSTYLE
  7
Standard
  9
$CLAYER
  8
0
  9
$CELTYPE
  6
ByLayer
  9
$CECOLOR
 62
   256
  9
$CELTSCALE
 40
1.0
  9
$DISPSILH
 70
     0
  9
$DIMSCALE
 40
1.0
  9
$DIMASZ
 40
0.18
  9
$DIMEXO
 40
0.0625
  9
$DIMDLI
 40
0.38
  9
$DIMRND
 40
0.0
  9
$DIMDLE
 40
0.0
  9
$DIMEXE
 40
0.18
  9
$DIMTP
 40
0.0
  9
$DIMTM
 40
0.0
  9
$DIMTXT
 40
0.18
  9
$DIMCEN
 40
0.09
  9
$DIMTSZ
 40
0.0
  9
$DIMTOL
 70
     0
  9
$DIMLIM
 70
     0
  9
$DIMTIH
 70
     1
  9
$DIMTOH
 70
     1
  9
$DIMSE1
 70
     0
  9
$DIMSE2
 70
     0
  9
$DIMTAD
 70
     0
  9
$DIMZIN
 70
     0
  9
$DIMBLK
  1

  9
$DIMASO
 70
     1
  9
$DIMSHO
 70
     1
  9
$DIMPOST
  1

  9
$DIMAPOST
  1

  9
$DIMALT
 70
     0
  9
$DIMALTD
 70
     2
  9
$DIMALTF
 40
25.4
  9
$DIMLFAC
 40
1.0
  9
$DIMTOFL
 70
     0
  9
$DIMTVP
 40
0.0
  9
$DIMTIX
 70
     0
  9
$DIMSOXD
 70
     0
  9
$DIMSAH
 70
     0
  9
$DIMBLK1
  1

  9
$DIMBLK2
  1

  9
$DIMSTYLE
  2
Standard
  9
$DIMCLRD
 70
     0
  9
$DIMCLRE
 70
     0
  9
$DIMCLRT
 70
     0
  9
$DIMTFAC
 40
1.0
  9
$DIMGAP
 40
0.09
  9
$DIMJUST
 70
     0
  9
$DIMSD1
 70
     0
  9
$DIMSD2
 70
     0
  9
$DIMTOLJ
 70
     1
  9
$DIMTZIN
 70
     0
  9
$DIMALTZ
 70
     0
  9
$DIMALTTZ
 70
     0
  9
$DIMUPT
 70
     0
  9
$DIMDEC
 70
     4
  9
$DIMTDEC
 70
     4
  9
$DIMALTU
 70
     2
  9
$DIMALTTD
 70
     2
  9
$DIMTXSTY
  7
Standard
  9
$DIMAUNIT
 70
     0
  9
$DIMADEC
 70
     0
  9
$DIMALTRND
 40
0.0
  9
$DIMAZIN
 70
     0
  9
$DIMDSEP
 70
    46
  9
$DIMATFIT
 70
     3
  9
$DIMFRAC
 70
     0
  9
$DIMLDRBLK
  1

  9
$DIMLUNIT
 70
     2
  9
$DIMLWD
 70
    -2
  9
$DIMLWE
 70
    -2
  9
$DIMTMOVE
 70
     0
  9
$LUNITS
 70
     2
  9
$LUPREC
 70
     4
  9
$SKETCHINC
 40
0.1
  9
$FILLETRAD
 40
0.5
  9
$AUNITS
 70
     0
  9
$AUPREC
 70
     0
  9
$MENU
  1
.
  9
$ELEVATION
 40
0.0
  9
$PELEVATION
 40
0.0
  9
$THICKNESS
 40
0.0
  9
$LIMCHECK
 70
     0
  9
$CHAMFERA
 40
0.5
  9
$CHAMFERB
 40
0.5
  9
$CHAMFERC
 40
1.0
  9
$CHAMFERD
 40
0.0
  9
$SKPOLY
 70
     0
  9
$TDCREATE
 40
2455736.446866493
  9
$TDUCREATE
 40
2455736.113533160
  9
$TDUPDATE
 40
2456504.479926910
  9
$TDUUPDATE
 40
2456504.146593577
  9
$TDINDWG
 40
0.0012889468
  9
$TDUSRTIMER
 40
0.0012889468
  9
$USRTIMER
 70
     1
  9
$ANGBASE
 50
0.0
  9
$ANGDIR
 70
     0
  9
$PDMODE
 70
     0
  9
$PDSIZE
 40
0.0
  9
$PLINEWID
 40
0.0
  9
$SPLFRAME
 70
     0
  9
$SPLINETYPE
 70
     6
  9
$SPLINESEGS
 70
     8
  9
$HANDSEED
  5
91
  9
$SURFTAB1
 70
     6
  9
$SURFTAB2
 70
     6
  9
$SURFTYPE
 70
     6
  9
$SURFU
 70
     6
  9
$SURFV
 70
     6
  9
$UCSBASE
  2

  9
$UCSNAME
  2

  9
$UCSORG
 10
0.0
 20
0.0
 30
0.0
  9
$UCSXDIR
 10
1.0
 20
0.0
 30
0.0
  9
$UCSYDIR
 10
0.0
 20
1.0
 30
0.0
  9
$UCSORTHOREF
  2

  9
$UCSORTHOVIEW
 70
     0
  9
$UCSORGTOP
 10
0.0
 20
0.0
 30
0.0
  9
$UCSORGBOTTOM
 10
0.0
 20
0.0
 30
0.0
  9
$UCSORGLEFT
 10
0.0
 20
0.0
 30
0.0
  9
$UCSORGRIGHT
 10
0.0
 20
0.0
 30
0.0
  9
$UCSORGFRONT
 10
0.0
 20
0.0
 30
0.0
  9
$UCSORGBACK
 10
0.0
 20
0.0
 30
0.0
  9
$PUCSBASE
  2

  9
$PUCSNAME
  2

  9
$PUCSORG
 10
0.0
 20
0.0
 30
0.0
  9
$PUCSXDIR
 10
1.0
 20
0.0
 30
0.0
  9
$PUCSYDIR
 10
0.0
 20
1.0
 30
0.0
  9
$PUCSORTHOREF
  2

  9
$PUCSORTHOVIEW
 70
     0
  9
$PUCSORGTOP
 10
0.0
 20
0.0
 30
0.0
  9
$PUCSORGBOTTOM
 10
0.0
 20
0.0
 30
0.0
  9
$PUCSORGLEFT
 10
0.0
 20
0.0
 30
0.0
  9
$PUCSORGRIGHT
 10
0.0
 20
0.0
 30
0.0
  9
$PUCSORGFRONT
 10
0.0
 20
0.0
 30
0.0
  9
$PUCSORGBACK
 10
0.0
 20
0.0
 30
0.0
  9
$USERI1
 70
     0
  9
$USERI2
 70
     0
  9
$USERI3
 70
     0
  9
$USERI4
 70
     0
  9
$USERI5
 70
     0
  9
$USERR1
 40
0.0
  9
$USERR2
 40
0.0
  9
$USERR3
 40
0.0
  9
$USERR4
 40
0.0
  9
$USERR5
 40
0.0
  9
$WORLDVIEW
 70
     1
  9
$SHADEDGE
 70
     3
  9
$SHADEDIF
 70
    70
  9
$TILEMODE
 70
     1
  9
$MAXACTVP
 70
    64
  9
$PINSBASE
 10
0.0
 20
0.0
 30
0.0
  9
$PLIMCHECK
 70
     0
  9
$PEXTMIN
 10
1.000000000000000E+20
 20
1.000000000000000E+20
 30
1.000000000000000E+20
  9
$PEXTMAX
 10
-1.000000000000000E+20
 20
-1.000000000000000E+20
 30
-1.000000000000000E+20
  9
$PLIMMIN
 10
0.0
 20
0.0
  9
$PLIMMAX
 10
12.0
 20
9.0
  9
$UNITMODE
 70
     0
  9
$VISRETAIN
 70
     1
  9
$PLINEGEN
 70
     0
  9
$PSLTSCALE
 70
     1
  9
$TREEDEPTH
 70
  3020
  9
$CMLSTYLE
  2
Standard
  9
$CMLJUST
 70
     0
  9
$CMLSCALE
 40
1.0
  9
$PROXYGRAPHICS
 70
     1
  9
$MEASUREMENT
 70
     0
  9
$CELWEIGHT
370
    -1
  9
$ENDCAPS
280
     0
  9
$JOINSTYLE
280
     0
  9
$LWDISPLAY
290
     0
  9
$INSUNITS
 70
     4
  9
$HYPERLINKBASE
  1

  9
$STYLESHEET
  1

  9
$XEDIT
290
     1
  9
$CEPSNTYPE
380
     0
  9
$PSTYLEMODE
290
     1
  9
$FINGERPRINTGUID
  2
{42E8E9C8-F1B5-495F-B485-54E2FC11A22D}
  9
$VERSIONGUID
  2
{029F3DAA-2DF2-49A0-87D3-B8F98DBEC374}
  9
$EXTNAMES
290
     1
  9
$PSVPSCALE
 40
0.0
  9
$OLESTARTUP
290
     0
  9
$SORTENTS
280
   127
  9
$INDEXCTL
280
     0
  9
$HIDETEXT
280
     1
  9
$XCLIPFRAME
290
     0
  9
$HALOGAP
280
     0
  9
$OBSCOLOR
 70
   257
  9
$OBSLTYPE
280
     0
  9
$INTERSECTIONDISPLAY
280
     0
  9
$INTERSECTIONCOLOR
 70
   257
  9
$DIMASSOC
280
     2
  9
$PROJECTNAME
  1

  0
ENDSEC
  0
SECTION
  2
CLASSES
  0
CLASS
  1
ACDBDICTIONARYWDFLT
  2
AcDbDictionaryWithDefault
  3
ObjectDBX Classes
 90
        0
 91
        1
280
     0
281
     0
  0
CLASS
  1
VISUALSTYLE
  2
AcDbVisualStyle
  3
ObjectDBX Classes
 90
     4095
 91
       16
280
     0
281
     0
  0
CLASS
  1
SCALE
  2
AcDbScale
  3
ObjectDBX Classes
 90
     1153
 91
       33
280
     0
281
     0
  0
CLASS
  1
TABLESTYLE
  2
AcDbTableStyle
  3
ObjectDBX Classes
 90
     2047
 91
        1
280
     0
281
     0
  0
CLASS
  1
DICTIONARYVAR
  2
AcDbDictionaryVar
  3
ObjectDBX Classes
 90
        0
 91
        2
280
     0
281
     0
  0
ENDSEC
  0
SECTION
  2
TABLES
  0
TABLE
  2
VPORT
  5
8
330
0
100
AcDbSymbolTable
 70
     2
  0
VPORT
  5
90
330
8
100
AcDbSymbolTableRecord
100
AcDbViewportTableRecord
  2
*Active
 70
     0
 10
0.0
 20
0.0
 11
1.0
 21
1.0
 12
145.9257667897718
 22
-899.7408968702115
 13
0.0
 23
0.0
 14
0.5
 24
0.5
 15
0.5
 25
0.5
 16
0.0
 26
0.0
 36
1.0
 17
0.0
 27
0.0
 37
0.0
 40
6842.536134605651
 41
2.03422619047619
 42
50.0
 43
0.0
 44
0.0
 50
0.0
 51
0.0
 71
     0
 72
   100
 73
     1
 74
     3
 75
     0
 76
     0
 77
     0
 78
     0
281
     0
 65
     1
110
0.0
120
0.0
130
0.0
111
1.0
121
0.0
131
0.0
112
0.0
122
1.0
132
0.0
 79
     0
146
0.0
  0
ENDTAB
  0
TABLE
  2
LTYPE
  5
5
330
0
100
AcDbSymbolTable
 70
     1
  0
LTYPE
  5
14
330
5
100
AcDbSymbolTableRecord
100
AcDbLinetypeTableRecord
  2
ByBlock
 70
     0
  3

 72
    65
 73
     0
 40
0.0
  0
LTYPE
  5
15
330
5
100
AcDbSymbolTableRecord
100
AcDbLinetypeTableRecord
  2
ByLayer
 70
     0
  3

 72
    65
 73
     0
 40
0.0
  0
LTYPE
  5
16
330
5
100
AcDbSymbolTableRecord
100
AcDbLinetypeTableRecord
  2
Continuous
 70
     0
  3
Solid line
 72
    65
 73
     0
 40
0.0
  0
ENDTAB
  0
TABLE
  2
LAYER
  5
2
330
0
100
AcDbSymbolTable
 70
     2
  0
LAYER
  5
10
330
2
100
AcDbSymbolTableRecord
100
AcDbLayerTableRecord
  2
0
 70
     0
 62
     7
  6
Continuous
370
    -3
390
F
  0
LAYER
  5
5E
330
2
100
AcDbSymbolTableRecord
100
AcDbLayerTableRecord
  2
layer 1
 70
     0
 62
     7
  6
Continuous
370
    -3
390
F
  0
ENDTAB
  0
TABLE
  2
STYLE
  5
3
330
0
100
AcDbSymbolTable
 70
     1
  0
STYLE
  5
11
330
3
100
AcDbSymbolTableRecord
100
AcDbTextStyleTableRecord
  2
Standard
 70
     0
 40
0.0
 41
1.0
 50
0.0
 71
     0
 42
0.2
  3
txt
  4

  0
ENDTAB
  0
TABLE
  2
VIEW
  5
6
330
0
100
AcDbSymbolTable
 70
     0
  0
ENDTAB
  0
TABLE
  2
UCS
  5
7
330
0
100
AcDbSymbolTable
 70
     0
  0
ENDTAB
  0
TABLE
  2
APPID
  5
9
330
0
100
AcDbSymbolTable
 70
     2
  0
APPID
  5
12
330
9
100
AcDbSymbolTableRecord
100
AcDbRegAppTableRecord
  2
ACAD
 70
     0
  0
APPID
  5
5D
330
9
100
AcDbSymbolTableRecord
100
AcDbRegAppTableRecord
  2
ODA
 70
     0
  0
ENDTAB
  0
TABLE
  2
DIMSTYLE
  5
A
330
0
100
AcDbSymbolTable
 70
     1
100
AcDbDimStyleTable
 71
     0
  0
DIMSTYLE
105
27
330
A
100
AcDbSymbolTableRecord
100
AcDbDimStyleTableRecord
  2
Standard
 70
     0
340
11
  0
ENDTAB
  0
TABLE
  2
BLOCK_RECORD
  5
1
330
0
100
AcDbSymbolTable
 70
     1
  0
BLOCK_RECORD
  5
1F
330
1
100
AcDbSymbolTableRecord
100
AcDbBlockTableRecord
  2
*Model_Space
340
22
  0
BLOCK_RECORD
  5
1B
330
1
100
AcDbSymbolTableRecord
100
AcDbBlockTableRecord
  2
*Paper_Space
340
1E
  0
BLOCK_RECORD
  5
23
330
1
100
AcDbSymbolTableRecord
100
AcDbBlockTableRecord
  2
*Paper_Space0
340
26
  0
ENDTAB
  0
ENDSEC
  0
SECTION
  2
BLOCKS
  0
BLOCK
  5
20
330
1F
100
AcDbEntity
  8
0
100
AcDbBlockBegin
  2
*Model_Space
 70
     0
 10
0.0
 20
0.0
 30
0.0
  3
*Model_Space
  1

  0
ENDBLK
  5
21
330
1F
100
AcDbEntity
  8
0
100
AcDbBlockEnd
  0
BLOCK
  5
1C
330
1B
100
AcDbEntity
 67
     1
  8
0
100
AcDbBlockBegin
  2
*Paper_Space
 70
     0
 10
0.0
 20
0.0
 30
0.0
  3
*Paper_Space
  1

  0
ENDBLK
  5
1D
330
1B
100
AcDbEntity
 67
     1
  8
0
100
AcDbBlockEnd
  0
BLOCK
  5
24
330
23
100
AcDbEntity
  8
0
100
AcDbBlockBegin
  2
*Paper_Space0
 70
     0
 10
0.0
 20
0.0
 30
0.0
  3
*Paper_Space0
  1

  0
ENDBLK
  5
25
330
23
100
AcDbEntity
  8
0
100
AcDbBlockEnd
  0
ENDSEC
  0
SECTION
  2
ENTITIES
  0
SPLINE
  5
6C
330
1F
100
AcDbEntity
  8
layer 1
100
AcDbSpline
210
0.0
220
0.0
230
1.0
 70
    11
 71
     3
 72
    80
 73
    76
 74
     0
 42
0.0000000001
 43
0.0000000001
 40
0.0
 40
0.0
 40
0.0
 40
0.0
 40
0.0526315789473684
 40
0.0526315789473684
 40
0.0526315789473684
 40
0.0526315789473684
 40
0.1052631578947368
 40
0.1052631578947368
 40
0.1052631578947368
 40
0.1052631578947368
 40
0.1578947368421053
 40
0.1578947368421053
 40
0.1578947368421053
 40
0.1578947368421053
 40
0.2105263157894737
 40
0.2105263157894737
 40
0.2105263157894737
 40
0.2105263157894737
 40
0.2631578947368421
 40
0.2631578947368421
 40
0.2631578947368421
 40
0.2631578947368421
 40
0.3157894736842105
 40
0.3157894736842105
 40
0.3157894736842105
 40
0.3157894736842105
 40
0.3684210526315789
 40
0.3684210526315789
 40
0.3684210526315789
 40
0.3684210526315789
 40
0.4210526315789473
 40
0.4210526315789473
 40
0.4210526315789473
 40
0.4210526315789473
 40
0.4736842105263159
 40
0.4736842105263159
 40
0.4736842105263159
 40
0.4736842105263159
 40
0.5263157894736842
 40
0.5263157894736842
 40
0.5263157894736842
 40
0.5263157894736842
 40
0.5789473684210527
 40
0.5789473684210527
 40
0.5789473684210527
 40
0.5789473684210527
 40
0.6315789473684211
 40
0.6315789473684211
 40
0.6315789473684211
 40
0.6315789473684211
 40
0.6842105263157894
 40
0.6842105263157894
 40
0.6842105263157894
 40
0.6842105263157894
 40
0.7368421052631577
 40
0.7368421052631577
 40
0.7368421052631577
 40
0.7368421052631577
 40
0.7894736842105261
 40
0.7894736842105261
 40
0.7894736842105261
 40
0.7894736842105261
 40
0.8421052631578945
 40
0.8421052631578945
 40
0.8421052631578945
 40
0.8421052631578945
 40
0.8947368421052628
 40
0.8947368421052628
 40
0.8947368421052628
 40
0.8947368421052628
 40
0.9473684210526311
 40
0.9473684210526311
 40
0.9473684210526311
 40
0.9473684210526311
 40
1.0
 40
1.0
 40
1.0
 40
1.0
 10
1598.5489
 20
595.9036999999999
 30
0.0
 10
1598.5489
 20
595.9036999999999
 30
0.0
 10
1598.5489
 20
595.9036999999999
 30
0.0
 10
1598.5489
 20
595.9036999999999
 30
0.0
 10
1598.5489
 20
595.9036999999999
 30
0.0
 10
1648.5361
 20
595.9036999999999
 30
0.0
 10
1698.5487
 20
595.9036999999999
 30
0.0
 10
1748.5359
 20
595.9036999999999
 30
0.0
 10
1748.5359
 20
595.9036999999999
 30
0.0
 10
1748.5359
 20
590.3665
 30
0.0
 10
1748.5359
 20
584.8038999999999
 30
0.0
 10
1748.5359
 20
579.2413
 30
0.0
 10
1748.5359
 20
579.2413
 30
0.0
 10
1719.8594
 20
578.4030999999999
 30
0.0
 10
1705.4322
 20
568.9542999999999
 30
0.0
 10
1705.2036
 20
550.9203
 30
0.0
 10
1705.2036
 20
550.9203
 30
0.0
 10
1705.2036
 20
492.5765
 30
0.0
 10
1705.2036
 20
434.2327
 30
0.0
 10
1705.2036
 20
375.9143
 30
0.0
 10
1705.2036
 20
375.9143
 30
0.0
 10
1705.356
 20
339.2621
 30
0.0
 10
1725.2696
 20
320.2883
 30
0.0
 10
1764.9952
 20
319.0183
 30
0.0
 10
1764.9952
 20
319.0183
 30
0.0
 10
1814.0171
 20
318.0531
 30
0.0
 10
1838.5282
 20
342.0307
 30
0.0
 10
1838.5282
 20
390.9003
 30
0.0
 10
1838.5282
 20
390.9003
 30
0.0
 10
1838.5282
 20
442.5893
 30
0.0
 10
1838.5282
 20
494.2529
 30
0.0
 10
1838.5282
 20
545.9165
 30
0.0
 10
1838.5282
 20
545.9165
 30
0.0
 10
1838.579
 20
566.5920999999999
 30
0.0
 10
1823.0087
 20
577.6919
 30
0.0
 10
1791.8684
 20
579.2413
 30
0.0
 10
1791.8684
 20
579.2413
 30
0.0
 10
1791.8684
 20
584.8038999999999
 30
0.0
 10
1791.8684
 20
590.3665
 30
0.0
 10
1791.8684
 20
595.9036999999999
 30
0.0
 10
1791.8684
 20
595.9036999999999
 30
0.0
 10
1827.9872
 20
595.9036999999999
 30
0.0
 10
1864.0805
 20
595.9036999999999
 30
0.0
 10
1900.1993
 20
595.9036999999999
 30
0.0
 10
1900.1993
 20
595.9036999999999
 30
0.0
 10
1900.1993
 20
590.3665
 30
0.0
 10
1900.1993
 20
584.8038999999999
 30
0.0
 10
1900.1993
 20
579.2413
 30
0.0
 10
1900.1993
 20
579.2413
 30
0.0
 10
1873.7833
 20
577.1330999999999
 30
0.0
 10
1860.4484
 20
566.0078999999999
 30
0.0
 10
1860.1944
 20
545.9165
 30
0.0
 10
1860.1944
 20
545.9165
 30
0.0
 10
1860.1944
 20
495.3451
 30
0.0
 10
1860.1944
 20
444.7991
 30
0.0
 10
1860.1944
 20
394.2531
 30
0.0
 10
1860.1944
 20
394.2531
 30
0.0
 10
1860.1944
 20
332.0231
 30
0.0
 10
1822.9833
 20
300.9081
 30
0.0
 10
1748.5359
 20
300.9081
 30
0.0
 10
1748.5359
 20
300.9081
 30
0.0
 10
1676.3237
 20
302.0257
 30
0.0
 10
1639.6461
 20
329.2545
 30
0.0
 10
1638.5286
 20
382.5691
 30
0.0
 10
1638.5286
 20
382.5691
 30
0.0
 10
1638.5286
 20
438.6777
 30
0.0
 10
1638.5286
 20
494.8116999999999
 30
0.0
 10
1638.5286
 20
550.9203
 30
0.0
 10
1638.5286
 20
550.9203
 30
0.0
 10
1638.3508
 20
568.6748999999999
 30
0.0
 10
1625.0158
 20
578.1236999999999
 30
0.0
 10
1598.5489
 20
579.2413
 30
0.0
 10
1598.5489
 20
579.2413
 30
0.0
 10
1598.5489
 20
584.8038999999999
 30
0.0
 10
1598.5489
 20
590.3665
 30
0.0
 10
1598.5489
 20
595.9036999999999
 30
0.0
  0
SPLINE
  5
6D
330
1F
100
AcDbEntity
  8
layer 1
100
AcDbSpline
210
0.0
220
0.0
230
1.0
 70
    11
 71
     3
 72
    68
 73
    64
 74
     0
 42
0.0000000001
 43
0.0000000001
 40
0.0
 40
0.0
 40
0.0
 40
0.0
 40
0.0625
 40
0.0625
 40
0.0625
 40
0.0625
 40
0.125
 40
0.125
 40
0.125
 40
0.125
 40
0.1875
 40
0.1875
 40
0.1875
 40
0.1875
 40
0.25
 40
0.25
 40
0.25
 40
0.25
 40
0.3125
 40
0.3125
 40
0.3125
 40
0.3125
 40
0.375
 40
0.375
 40
0.375
 40
0.375
 40
0.4375
 40
0.4375
 40
0.4375
 40
0.4375
 40
0.5
 40
0.5
 40
0.5
 40
0.5
 40
0.5625
 40
0.5625
 40
0.5625
 40
0.5625
 40
0.625
 40
0.625
 40
0.625
 40
0.625
 40
0.6875
 40
0.6875
 40
0.6875
 40
0.6875
 40
0.75
 40
0.75
 40
0.75
 40
0.75
 40
0.8125
 40
0.8125
 40
0.8125
 40
0.8125
 40
0.875
 40
0.875
 40
0.875
 40
0.875
 40
0.9375
 40
0.9375
 40
0.9375
 40
0.9375
 40
1.0
 40
1.0
 40
1.0
 40
1.0
 10
1903.1966
 20
578.4030999999999
 30
0.0
 10
1903.1966
 20
578.4030999999999
 30
0.0
 10
1903.1966
 20
578.4030999999999
 30
0.0
 10
1903.1966
 20
578.4030999999999
 30
0.0
 10
1903.1966
 20
578.4030999999999
 30
0.0
 10
1903.1966
 20
583.9656999999999
 30
0.0
 10
1903.1966
 20
589.5282999999999
 30
0.0
 10
1903.1966
 20
595.0655
 30
0.0
 10
1903.1966
 20
595.0655
 30
0.0
 10
1950.4151
 20
595.0655
 30
0.0
 10
1997.6592
 20
595.0655
 30
0.0
 10
2044.8777
 20
595.0655
 30
0.0
 10
2044.8777
 20
595.0655
 30
0.0
 10
2044.8777
 20
589.5282999999999
 30
0.0
 10
2044.8777
 20
583.9656999999999
 30
0.0
 10
2044.8777
 20
578.4030999999999
 30
0.0
 10
2044.8777
 20
578.4030999999999
 30
0.0
 10
2016.3282
 20
578.1236999999999
 30
0.0
 10
2004.314
 20
570.1481
 30
0.0
 10
2008.8352
 20
554.5271
 30
0.0
 10
2008.8352
 20
554.5271
 30
0.0
 10
2026.4119
 20
497.4787
 30
0.0
 10
2043.9634
 20
440.4556999999999
 30
0.0
 10
2061.5401
 20
383.4073
 30
0.0
 10
2061.5401
 20
383.4073
 30
0.0
 10
2082.0888
 20
440.6335
 30
0.0
 10
2102.6374
 20
497.8596999999999
 30
0.0
 10
2123.2113
 20
555.0859
 30
0.0
 10
2123.2113
 20
555.0859
 30
0.0
 10
2127.7072
 20
568.6494999999999
 30
0.0
 10
2116.0485
 20
576.4219
 30
0.0
 10
2088.2102
 20
578.4030999999999
 30
0.0
 10
2088.2102
 20
578.4030999999999
 30
0.0
 10
2088.2102
 20
583.9656999999999
 30
0.0
 10
2088.2102
 20
589.5282999999999
 30
0.0
 10
2088.2102
 20
595.0655
 30
0.0
 10
2088.2102
 20
595.0655
 30
0.0
 10
2120.4173
 20
595.0655
 30
0.0
 10
2152.65
 20
595.0655
 30
0.0
 10
2184.8572
 20
595.0655
 30
0.0
 10
2184.8572
 20
595.0655
 30
0.0
 10
2184.8572
 20
589.5282999999999
 30
0.0
 10
2184.8572
 20
583.9656999999999
 30
0.0
 10
2184.8572
 20
578.4030999999999
 30
0.0
 10
2184.8572
 20
578.4030999999999
 30
0.0
 10
2163.9021
 20
574.7455
 30
0.0
 10
2151.126
 20
565.2967
 30
0.0
 10
2146.5286
 20
550.0821
 30
0.0
 10
2146.5286
 20
550.0821
 30
0.0
 10
2115.9724
 20
467.3034999999999
 30
0.0
 10
2085.4162
 20
384.5249
 30
0.0
 10
2054.86
 20
301.7463
 30
0.0
 10
2054.86
 20
301.7463
 30
0.0
 10
2043.2014
 20
301.7463
 30
0.0
 10
2031.5427
 20
301.7463
 30
0.0
 10
2019.8587
 20
301.7463
 30
0.0
 10
2019.8587
 20
301.7463
 30
0.0
 10
1993.2141
 20
383.9661
 30
0.0
 10
1966.5442
 20
466.1858999999999
 30
0.0
 10
1939.8741
 20
548.4056999999999
 30
0.0
 10
1939.8741
 20
548.4056999999999
 30
0.0
 10
1933.8797
 20
567.9891
 30
0.0
 10
1921.6624
 20
577.9713
 30
0.0
 10
1903.1966
 20
578.4030999999999
 30
0.0
  0
SPLINE
  5
6E
330
1F
100
AcDbEntity
  8
layer 1
100
AcDbSpline
210
0.0
220
0.0
230
1.0
 70
    11
 71
     3
 72
   112
 73
   108
 74
     0
 42
0.0000000001
 43
0.0000000001
 40
0.0
 40
0.0
 40
0.0
 40
0.0
 40
0.037037037037037
 40
0.037037037037037
 40
0.037037037037037
 40
0.037037037037037
 40
0.0740740740740741
 40
0.0740740740740741
 40
0.0740740740740741
 40
0.0740740740740741
 40
0.1111111111111111
 40
0.1111111111111111
 40
0.1111111111111111
 40
0.1111111111111111
 40
0.1481481481481481
 40
0.1481481481481481
 40
0.1481481481481481
 40
0.1481481481481481
 40
0.1851851851851852
 40
0.1851851851851852
 40
0.1851851851851852
 40
0.1851851851851852
 40
0.2222222222222222
 40
0.2222222222222222
 40
0.2222222222222222
 40
0.2222222222222222
 40
0.2592592592592592
 40
0.2592592592592592
 40
0.2592592592592592
 40
0.2592592592592592
 40
0.2962962962962963
 40
0.2962962962962963
 40
0.2962962962962963
 40
0.2962962962962963
 40
0.3333333333333333
 40
0.3333333333333333
 40
0.3333333333333333
 40
0.3333333333333333
 40
0.3703703703703703
 40
0.3703703703703703
 40
0.3703703703703703
 40
0.3703703703703703
 40
0.4074074074074074
 40
0.4074074074074074
 40
0.4074074074074074
 40
0.4074074074074074
 40
0.4444444444444445
 40
0.4444444444444445
 40
0.4444444444444445
 40
0.4444444444444445
 40
0.4814814814814815
 40
0.4814814814814815
 40
0.4814814814814815
 40
0.4814814814814815
 40
0.5185185185185186
 40
0.5185185185185186
 40
0.5185185185185186
 40
0.5185185185185186
 40
0.5555555555555556
 40
0.5555555555555556
 40
0.5555555555555556
 40
0.5555555555555556
 40
0.5925925925925926
 40
0.5925925925925926
 40
0.5925925925925926
 40
0.5925925925925926
 40
0.6296296296296296
 40
0.6296296296296296
 40
0.6296296296296296
 40
0.6296296296296296
 40
0.6666666666666666
 40
0.6666666666666666
 40
0.6666666666666666
 40
0.6666666666666666
 40
0.7037037037037035
 40
0.7037037037037035
 40
0.7037037037037035
 40
0.7037037037037035
 40
0.7407407407407405
 40
0.7407407407407405
 40
0.7407407407407405
 40
0.7407407407407405
 40
0.7777777777777775
 40
0.7777777777777775
 40
0.7777777777777775
 40
0.7777777777777775
 40
0.8148148148148145
 40
0.8148148148148145
 40
0.8148148148148145
 40
0.8148148148148145
 40
0.8518518518518513
 40
0.8518518518518513
 40
0.8518518518518513
 40
0.8518518518518513
 40
0.8888888888888883
 40
0.8888888888888883
 40
0.8888888888888883
 40
0.8888888888888883
 40
0.9259259259259254
 40
0.9259259259259254
 40
0.9259259259259254
 40
0.9259259259259254
 40
0.9629629629629622
 40
0.9629629629629622
 40
0.9629629629629622
 40
0.9629629629629622
 40
1.0
 40
1.0
 40
1.0
 40
1.0
 10
2340.864
 20
595.0655
 30
0.0
 10
2340.864
 20
595.0655
 30
0.0
 10
2340.864
 20
595.0655
 30
0.0
 10
2340.864
 20
595.0655
 30
0.0
 10
2340.864
 20
595.0655
 30
0.0
 10
2386.9903
 20
595.0655
 30
0.0
 10
2433.0914
 20
595.0655
 30
0.0
 10
2479.1923
 20
595.0655
 30
0.0
 10
2479.1923
 20
595.0655
 30
0.0
 10
2479.1923
 20
589.5282999999999
 30
0.0
 10
2479.1923
 20
583.9656999999999
 30
0.0
 10
2479.1923
 20
578.4030999999999
 30
0.0
 10
2479.1923
 20
578.4030999999999
 30
0.0
 10
2451.1762
 20
577.9713
 30
0.0
 10
2439.4921
 20
569.5130999999999
 30
0.0
 10
2444.1403
 20
553.0539
 30
0.0
 10
2444.1403
 20
553.0539
 30
0.0
 10
2458.5929
 20
501.4918999999999
 30
0.0
 10
2473.0709
 20
449.9553
 30
0.0
 10
2487.5489
 20
398.4187
 30
0.0
 10
2487.5489
 20
398.4187
 30
0.0
 10
2503.6525
 20
446.5009
 30
0.0
 10
2519.7816
 20
494.6085
 30
0.0
 10
2535.9106
 20
542.6906999999999
 30
0.0
 10
2535.9106
 20
542.6906999999999
 30
0.0
 10
2542.8194
 20
565.2205
 30
0.0
 10
2530.5765
 20
577.1330999999999
 30
0.0
 10
2499.2076
 20
578.4030999999999
 30
0.0
 10
2499.2076
 20
578.4030999999999
 30
0.0
 10
2499.2076
 20
583.9656999999999
 30
0.0
 10
2499.2076
 20
589.5282999999999
 30
0.0
 10
2499.2076
 20
595.0655
 30
0.0
 10
2499.2076
 20
595.0655
 30
0.0
 10
2533.6499
 20
595.0655
 30
0.0
 10
2568.0923
 20
595.0655
 30
0.0
 10
2602.5348
 20
595.0655
 30
0.0
 10
2602.5348
 20
595.0655
 30
0.0
 10
2602.5348
 20
589.5282999999999
 30
0.0
 10
2602.5348
 20
583.9656999999999
 30
0.0
 10
2602.5348
 20
578.4030999999999
 30
0.0
 10
2602.5348
 20
578.4030999999999
 30
0.0
 10
2582.6211
 20
576.9806999999999
 30
0.0
 10
2569.2861
 20
566.4397
 30
0.0
 10
2562.5297
 20
546.7546999999999
 30
0.0
 10
2562.5297
 20
546.7546999999999
 30
0.0
 10
2534.208700000001
 20
465.0682999999999
 30
0.0
 10
2505.8623
 20
383.4073
 30
0.0
 10
2477.5414
 20
301.7463
 30
0.0
 10
2477.5414
 20
301.7463
 30
0.0
 10
2466.4162
 20
301.7463
 30
0.0
 10
2455.3164
 20
301.7463
 30
0.0
 10
2444.191200000001
 20
301.7463
 30
0.0
 10
2444.191200000001
 20
301.7463
 30
0.0
 10
2426.97
 20
362.2999
 30
0.0
 10
2409.7487
 20
422.8534999999999
 30
0.0
 10
2392.5275
 20
483.4071
 30
0.0
 10
2392.5275
 20
483.4071
 30
0.0
 10
2371.979
 20
422.8534999999999
 30
0.0
 10
2351.4303
 20
362.2999
 30
0.0
 10
2330.8818
 20
301.7463
 30
0.0
 10
2330.8818
 20
301.7463
 30
0.0
 10
2319.1978
 20
301.7463
 30
0.0
 10
2307.5391
 20
301.7463
 30
0.0
 10
2295.8805
 20
301.7463
 30
0.0
 10
2295.8805
 20
301.7463
 30
0.0
 10
2274.2143
 20
380.6387
 30
0.0
 10
2252.5482
 20
459.5310999999999
 30
0.0
 10
2230.882
 20
538.3981
 30
0.0
 10
2230.882
 20
538.3981
 30
0.0
 10
2224.913
 20
562.9598999999999
 30
0.0
 10
2212.6955
 20
576.2948999999999
 30
0.0
 10
2194.2044
 20
578.4030999999999
 30
0.0
 10
2194.2044
 20
578.4030999999999
 30
0.0
 10
2194.2044
 20
583.9656999999999
 30
0.0
 10
2194.2044
 20
589.5282999999999
 30
0.0
 10
2194.2044
 20
595.0655
 30
0.0
 10
2194.2044
 20
595.0655
 30
0.0
 10
2238.0955
 20
595.0655
 30
0.0
 10
2281.9867
 20
595.0655
 30
0.0
 10
2325.8779
 20
595.0655
 30
0.0
 10
2325.8779
 20
595.0655
 30
0.0
 10
2325.8779
 20
589.5282999999999
 30
0.0
 10
2325.8779
 20
583.9656999999999
 30
0.0
 10
2325.8779
 20
578.4030999999999
 30
0.0
 10
2325.8779
 20
578.4030999999999
 30
0.0
 10
2301.8495
 20
578.8094999999999
 30
0.0
 10
2291.7403
 20
571.4180999999999
 30
0.0
 10
2295.5504
 20
556.2288999999999
 30
0.0
 10
2295.5504
 20
556.2288999999999
 30
0.0
 10
2310.6634
 20
503.6254999999999
 30
0.0
 10
2325.751
 20
451.0221
 30
0.0
 10
2340.864
 20
398.4187
 30
0.0
 10
2340.864
 20
398.4187
 30
0.0
 10
2354.7578
 20
438.9571
 30
0.0
 10
2368.6515
 20
479.5208999999999
 30
0.0
 10
2382.5453
 20
520.0847
 30
0.0
 10
2382.5453
 20
520.0847
 30
0.0
 10
2380.3102
 20
527.8570999999999
 30
0.0
 10
2378.1004
 20
535.6295
 30
0.0
 10
2375.8651
 20
543.4018999999999
 30
0.0
 10
2375.8651
 20
543.4018999999999
 30
0.0
 10
2369.3628
 20
565.4745
 30
0.0
 10
2357.6788
 20
577.1330999999999
 30
0.0
 10
2340.864
 20
578.4030999999999
 30
0.0
 10
2340.864
 20
578.4030999999999
 30
0.0
 10
2340.864
 20
583.9656999999999
 30
0.0
 10
2340.864
 20
589.5282999999999
 30
0.0
 10
2340.864
 20
595.0655
 30
0.0
  0
SPLINE
  5
6F
330
1F
100
AcDbEntity
  8
layer 1
100
AcDbSpline
210
0.0
220
0.0
230
1.0
 70
    11
 71
     3
 72
   120
 73
   116
 74
     0
 42
0.0000000001
 43
0.0000000001
 40
0.0
 40
0.0
 40
0.0
 40
0.0
 40
0.0344827586206897
 40
0.0344827586206897
 40
0.0344827586206897
 40
0.0344827586206897
 40
0.0689655172413793
 40
0.0689655172413793
 40
0.0689655172413793
 40
0.0689655172413793
 40
0.103448275862069
 40
0.103448275862069
 40
0.103448275862069
 40
0.103448275862069
 40
0.1379310344827586
 40
0.1379310344827586
 40
0.1379310344827586
 40
0.1379310344827586
 40
0.1724137931034483
 40
0.1724137931034483
 40
0.1724137931034483
 40
0.1724137931034483
 40
0.206896551724138
 40
0.206896551724138
 40
0.206896551724138
 40
0.206896551724138
 40
0.2413793103448276
 40
0.2413793103448276
 40
0.2413793103448276
 40
0.2413793103448276
 40
0.2758620689655173
 40
0.2758620689655173
 40
0.2758620689655173
 40
0.2758620689655173
 40
0.3103448275862069
 40
0.3103448275862069
 40
0.3103448275862069
 40
0.3103448275862069
 40
0.3448275862068966
 40
0.3448275862068966
 40
0.3448275862068966
 40
0.3448275862068966
 40
0.3793103448275863
 40
0.3793103448275863
 40
0.3793103448275863
 40
0.3793103448275863
 40
0.413793103448276
 40
0.413793103448276
 40
0.413793103448276
 40
0.413793103448276
 40
0.4482758620689656
 40
0.4482758620689656
 40
0.4482758620689656
 40
0.4482758620689656
 40
0.4827586206896554
 40
0.4827586206896554
 40
0.4827586206896554
 40
0.4827586206896554
 40
0.5172413793103451
 40
0.5172413793103451
 40
0.5172413793103451
 40
0.5172413793103451
 40
0.5517241379310346
 40
0.5517241379310346
 40
0.5517241379310346
 40
0.5517241379310346
 40
0.5862068965517242
 40
0.5862068965517242
 40
0.5862068965517242
 40
0.5862068965517242
 40
0.6206896551724138
 40
0.6206896551724138
 40
0.6206896551724138
 40
0.6206896551724138
 40
0.6551724137931034
 40
0.6551724137931034
 40
0.6551724137931034
 40
0.6551724137931034
 40
0.6896551724137929
 40
0.6896551724137929
 40
0.6896551724137929
 40
0.6896551724137929
 40
0.7241379310344827
 40
0.7241379310344827
 40
0.7241379310344827
 40
0.7241379310344827
 40
0.7586206896551723
 40
0.7586206896551723
 40
0.7586206896551723
 40
0.7586206896551723
 40
0.793103448275862
 40
0.793103448275862
 40
0.793103448275862
 40
0.793103448275862
 40
0.8275862068965514
 40
0.8275862068965514
 40
0.8275862068965514
 40
0.8275862068965514
 40
0.8620689655172411
 40
0.8620689655172411
 40
0.8620689655172411
 40
0.8620689655172411
 40
0.8965517241379307
 40
0.8965517241379307
 40
0.8965517241379307
 40
0.8965517241379307
 40
0.9310344827586204
 40
0.9310344827586204
 40
0.9310344827586204
 40
0.9310344827586204
 40
0.9655172413793099
 40
0.9655172413793099
 40
0.9655172413793099
 40
0.9655172413793099
 40
1.0
 40
1.0
 40
1.0
 40
1.0
 10
2896.0317
 20
301.7463
 30
0.0
 10
2896.0317
 20
301.7463
 30
0.0
 10
2896.0317
 20
301.7463
 30
0.0
 10
2896.0317
 20
301.7463
 30
0.0
 10
2896.0317
 20
301.7463
 30
0.0
 10
2896.0317
 20
307.3089
 30
0.0
 10
2896.0317
 20
312.8461
 30
0.0
 10
2896.0317
 20
318.4087
 30
0.0
 10
2896.0317
 20
318.4087
 30
0.0
 10
2873.9845
 20
320.5169
 30
0.0
 10
2859.5574
 20
328.8481
 30
0.0
 10
2852.699300000001
 20
343.4023
 30
0.0
 10
2852.699300000001
 20
343.4023
 30
0.0
 10
2826.5882
 20
386.7347
 30
0.0
 10
2800.477000000001
 20
430.0671
 30
0.0
 10
2774.3657
 20
473.3995
 30
0.0
 10
2774.3657
 20
473.3995
 30
0.0
 10
2791.0281
 20
496.1832999999999
 30
0.0
 10
2807.6906
 20
518.9670999999999
 30
0.0
 10
2824.3783
 20
541.7508999999999
 30
0.0
 10
2824.3783
 20
541.7508999999999
 30
0.0
 10
2839.5675
 20
564.2807
 30
0.0
 10
2861.2338
 20
576.4981
 30
0.0
 10
2889.377
 20
578.4030999999999
 30
0.0
 10
2889.377
 20
578.4030999999999
 30
0.0
 10
2889.377
 20
583.9656999999999
 30
0.0
 10
2889.377
 20
589.5282999999999
 30
0.0
 10
2889.377
 20
595.0655
 30
0.0
 10
2889.377
 20
595.0655
 30
0.0
 10
2851.5817
 20
595.0655
 30
0.0
 10
2813.811900000001
 20
595.0655
 30
0.0
 10
2776.0421
 20
595.0655
 30
0.0
 10
2776.0421
 20
595.0655
 30
0.0
 10
2776.0421
 20
589.5282999999999
 30
0.0
 10
2776.0421
 20
583.9656999999999
 30
0.0
 10
2776.0421
 20
578.4030999999999
 30
0.0
 10
2776.0421
 20
578.4030999999999
 30
0.0
 10
2803.4995
 20
577.7681
 30
0.0
 10
2810.7386
 20
567.2016999999999
 30
0.0
 10
2797.7084
 20
546.7546999999999
 30
0.0
 10
2797.7084
 20
546.7546999999999
 30
0.0
 10
2785.4909
 20
528.9747
 30
0.0
 10
2773.2482
 20
511.1946999999999
 30
0.0
 10
2761.0307
 20
493.4147
 30
0.0
 10
2761.0307
 20
493.4147
 30
0.0
 10
2750.4897
 20
511.7535
 30
0.0
 10
2739.9234
 20
530.0669
 30
0.0
 10
2729.357
 20
548.4056999999999
 30
0.0
 10
2729.357
 20
548.4056999999999
 30
0.0
 10
2718.5365
 20
567.9891
 30
0.0
 10
2726.3089
 20
577.9713
 30
0.0
 10
2752.6995
 20
578.4030999999999
 30
0.0
 10
2752.6995
 20
578.4030999999999
 30
0.0
 10
2752.6995
 20
583.9656999999999
 30
0.0
 10
2752.6995
 20
589.5282999999999
 30
0.0
 10
2752.6995
 20
595.0655
 30
0.0
 10
2752.6995
 20
595.0655
 30
0.0
 10
2704.3634
 20
595.0655
 30
0.0
 10
2656.0271
 20
595.0655
 30
0.0
 10
2607.6909
 20
595.0655
 30
0.0
 10
2607.6909
 20
595.0655
 30
0.0
 10
2607.6909
 20
589.5282999999999
 30
0.0
 10
2607.6909
 20
583.9656999999999
 30
0.0
 10
2607.6909
 20
578.4030999999999
 30
0.0
 10
2607.6909
 20
578.4030999999999
 30
0.0
 10
2625.3948
 20
577.2600999999999
 30
0.0
 10
2640.9395
 20
566.1603
 30
0.0
 10
2654.3762
 20
545.0783
 30
0.0
 10
2654.3762
 20
545.0783
 30
0.0
 10
2676.6012
 20
508.4006999999999
 30
0.0
 10
2698.8262
 20
471.7484999999999
 30
0.0
 10
2721.0258
 20
435.0709
 30
0.0
 10
2721.0258
 20
435.0709
 30
0.0
 10
2700.4771
 20
407.3087
 30
0.0
 10
2679.9285
 20
379.5211
 30
0.0
 10
2659.3799
 20
351.7335
 30
0.0
 10
2659.3799
 20
351.7335
 30
0.0
 10
2644.9273
 20
332.8613
 30
0.0
 10
2624.9375
 20
321.7361
 30
0.0
 10
2599.3598
 20
318.4087
 30
0.0
 10
2599.3598
 20
318.4087
 30
0.0
 10
2599.3598
 20
312.8461
 30
0.0
 10
2599.3598
 20
307.3089
 30
0.0
 10
2599.3598
 20
301.7463
 30
0.0
 10
2599.3598
 20
301.7463
 30
0.0
 10
2639.9235
 20
301.7463
 30
0.0
 10
2680.4873
 20
301.7463
 30
0.0
 10
2721.0258
 20
301.7463
 30
0.0
 10
2721.0258
 20
301.7463
 30
0.0
 10
2721.0258
 20
307.3089
 30
0.0
 10
2721.0258
 20
312.8461
 30
0.0
 10
2721.0258
 20
318.4087
 30
0.0
 10
2721.0258
 20
318.4087
 30
0.0
 10
2687.2437
 20
319.8057
 30
0.0
 10
2677.2361
 20
331.4643
 30
0.0
 10
2691.0283
 20
353.4099
 30
0.0
 10
2691.0283
 20
353.4099
 30
0.0
 10
2704.9221
 20
373.9585
 30
0.0
 10
2718.8159
 20
394.5325
 30
0.0
 10
2732.7097
 20
415.0811
 30
0.0
 10
2732.7097
 20
415.0811
 30
0.0
 10
2745.4859
 20
393.4149
 30
0.0
 10
2758.2621
 20
371.7487
 30
0.0
 10
2771.0384
 20
350.0825
 30
0.0
 10
2771.0384
 20
350.0825
 30
0.0
 10
2781.4269
 20
329.9403
 30
0.0
 10
2773.0957
 20
319.3739
 30
0.0
 10
2746.0448
 20
318.4087
 30
0.0
 10
2746.0448
 20
318.4087
 30
0.0
 10
2746.0448
 20
312.8461
 30
0.0
 10
2746.0448
 20
307.3089
 30
0.0
 10
2746.0448
 20
301.7463
 30
0.0
 10
2746.0448
 20
301.7463
 30
0.0
 10
2796.032
 20
301.7463
 30
0.0
 10
2846.0446
 20
301.7463
 30
0.0
 10
2896.0317
 20
301.7463
 30
0.0
  0
SPLINE
  5
70
330
1F
100
AcDbEntity
  8
layer 1
100
AcDbSpline
210
0.0
220
0.0
230
1.0
 70
    11
 71
     3
 72
    92
 73
    88
 74
     0
 42
0.0000000001
 43
0.0000000001
 40
0.0
 40
0.0
 40
0.0
 40
0.0
 40
0.0454545454545455
 40
0.0454545454545455
 40
0.0454545454545455
 40
0.0454545454545455
 40
0.0909090909090909
 40
0.0909090909090909
 40
0.0909090909090909
 40
0.0909090909090909
 40
0.1363636363636364
 40
0.1363636363636364
 40
0.1363636363636364
 40
0.1363636363636364
 40
0.1818181818181818
 40
0.1818181818181818
 40
0.1818181818181818
 40
0.1818181818181818
 40
0.2272727272727273
 40
0.2272727272727273
 40
0.2272727272727273
 40
0.2272727272727273
 40
0.2727272727272728
 40
0.2727272727272728
 40
0.2727272727272728
 40
0.2727272727272728
 40
0.3181818181818182
 40
0.3181818181818182
 40
0.3181818181818182
 40
0.3181818181818182
 40
0.3636363636363637
 40
0.3636363636363637
 40
0.3636363636363637
 40
0.3636363636363637
 40
0.4090909090909093
 40
0.4090909090909093
 40
0.4090909090909093
 40
0.4090909090909093
 40
0.4545454545454546
 40
0.4545454545454546
 40
0.4545454545454546
 40
0.4545454545454546
 40
0.5000000000000001
 40
0.5000000000000001
 40
0.5000000000000001
 40
0.5000000000000001
 40
0.5454545454545455
 40
0.5454545454545455
 40
0.5454545454545455
 40
0.5454545454545455
 40
0.590909090909091
 40
0.590909090909091
 40
0.590909090909091
 40
0.590909090909091
 40
0.6363636363636364
 40
0.6363636363636364
 40
0.6363636363636364
 40
0.6363636363636364
 40
0.6818181818181818
 40
0.6818181818181818
 40
0.6818181818181818
 40
0.6818181818181818
 40
0.7272727272727272
 40
0.7272727272727272
 40
0.7272727272727272
 40
0.7272727272727272
 40
0.7727272727272726
 40
0.7727272727272726
 40
0.7727272727272726
 40
0.7727272727272726
 40
0.8181818181818179
 40
0.8181818181818179
 40
0.8181818181818179
 40
0.8181818181818179
 40
0.8636363636363634
 40
0.8636363636363634
 40
0.8636363636363634
 40
0.8636363636363634
 40
0.9090909090909088
 40
0.9090909090909088
 40
0.9090909090909088
 40
0.9090909090909088
 40
0.9545454545454543
 40
0.9545454545454543
 40
0.9545454545454543
 40
0.9545454545454543
 40
1.0
 40
1.0
 40
1.0
 40
1.0
 10
2901.0355
 20
578.4030999999999
 30
0.0
 10
2901.0355
 20
578.4030999999999
 30
0.0
 10
2901.0355
 20
578.4030999999999
 30
0.0
 10
2901.0355
 20
578.4030999999999
 30
0.0
 10
2901.0355
 20
578.4030999999999
 30
0.0
 10
2901.0355
 20
583.9656999999999
 30
0.0
 10
2901.0355
 20
589.5282999999999
 30
0.0
 10
2901.0355
 20
595.0655
 30
0.0
 10
2901.0355
 20
595.0655
 30
0.0
 10
2948.2541
 20
595.0655
 30
0.0
 10
2995.4727
 20
595.0655
 30
0.0
 10
3042.6913
 20
595.0655
 30
0.0
 10
3042.6913
 20
595.0655
 30
0.0
 10
3042.6913
 20
589.5282999999999
 30
0.0
 10
3042.6913
 20
583.9656999999999
 30
0.0
 10
3042.6913
 20
578.4030999999999
 30
0.0
 10
3042.6913
 20
578.4030999999999
 30
0.0
 10
3012.2621
 20
578.9619
 30
0.0
 10
3003.9309
 20
566.7444999999999
 30
0.0
 10
3017.6977
 20
541.7508999999999
 30
0.0
 10
3017.6977
 20
541.7508999999999
 30
0.0
 10
3032.7092
 20
513.4044999999999
 30
0.0
 10
3047.6952
 20
485.0835
 30
0.0
 10
3062.7065
 20
456.7371
 30
0.0
 10
3062.7065
 20
456.7371
 30
0.0
 10
3076.7528
 20
485.1088999999999
 30
0.0
 10
3090.7989
 20
513.4806999999999
 30
0.0
 10
3104.8706
 20
541.8524999999999
 30
0.0
 10
3104.8706
 20
541.8524999999999
 30
0.0
 10
3116.2751
 20
565.0934999999999
 30
0.0
 10
3105.5563
 20
577.2600999999999
 30
0.0
 10
3072.7142
 20
578.4030999999999
 30
0.0
 10
3072.7142
 20
578.4030999999999
 30
0.0
 10
3072.7142
 20
583.9656999999999
 30
0.0
 10
3072.7142
 20
589.5282999999999
 30
0.0
 10
3072.7142
 20
595.0655
 30
0.0
 10
3072.7142
 20
595.0655
 30
0.0
 10
3108.8076
 20
595.0655
 30
0.0
 10
3144.9264
 20
595.0655
 30
0.0
 10
3181.0452
 20
595.0655
 30
0.0
 10
3181.0452
 20
595.0655
 30
0.0
 10
3181.0452
 20
589.5282999999999
 30
0.0
 10
3181.0452
 20
583.9656999999999
 30
0.0
 10
3181.0452
 20
578.4030999999999
 30
0.0
 10
3181.0452
 20
578.4030999999999
 30
0.0
 10
3157.5755
 20
576.0155
 30
0.0
 10
3142.0053
 20
566.0078999999999
 30
0.0
 10
3134.3599
 20
548.4056999999999
 30
0.0
 10
3134.3599
 20
548.4056999999999
 30
0.0
 10
3113.8113
 20
506.7497
 30
0.0
 10
3093.2627
 20
465.0682999999999
 30
0.0
 10
3072.7142
 20
423.4123
 30
0.0
 10
3072.7142
 20
423.4123
 30
0.0
 10
3072.7142
 20
397.8599
 30
0.0
 10
3072.7142
 20
372.3075
 30
0.0
 10
3072.7142
 20
346.7551
 30
0.0
 10
3072.7142
 20
346.7551
 30
0.0
 10
3072.6633
 20
329.9657
 30
0.0
 10
3088.233600000001
 20
320.5169
 30
0.0
 10
3119.3739
 20
318.4087
 30
0.0
 10
3119.3739
 20
318.4087
 30
0.0
 10
3119.3739
 20
312.8461
 30
0.0
 10
3119.3739
 20
307.3089
 30
0.0
 10
3119.3739
 20
301.7463
 30
0.0
 10
3119.3739
 20
301.7463
 30
0.0
 10
3064.9163
 20
301.7463
 30
0.0
 10
3010.4842
 20
301.7463
 30
0.0
 10
2956.0266
 20
301.7463
 30
0.0
 10
2956.0266
 20
301.7463
 30
0.0
 10
2956.0266
 20
307.3089
 30
0.0
 10
2956.0266
 20
312.8461
 30
0.0
 10
2956.0266
 20
318.4087
 30
0.0
 10
2956.0266
 20
318.4087
 30
0.0
 10
2988.3099
 20
319.5263
 30
0.0
 10
3004.4136
 20
328.9751
 30
0.0
 10
3004.3627
 20
346.7551
 30
0.0
 10
3004.3627
 20
346.7551
 30
0.0
 10
3004.3627
 20
372.8663
 30
0.0
 10
3004.3627
 20
398.9775
 30
0.0
 10
3004.3627
 20
425.0887
 30
0.0
 10
3004.3627
 20
425.0887
 30
0.0
 10
2986.023900000001
 20
460.6232999999999
 30
0.0
 10
2967.7105
 20
496.1832999999999
 30
0.0
 10
2949.3718
 20
531.7433
 30
0.0
 10
2949.3718
 20
531.7433
 30
0.0
 10
2936.2654
 20
561.8676999999999
 30
0.0
 10
2920.1617
 20
577.4125
 30
0.0
 10
2901.0355
 20
578.4030999999999
 30
0.0
  0
SPLINE
  5
71
330
1F
100
AcDbEntity
  8
layer 1
100
AcDbSpline
210
0.0
220
0.0
230
1.0
 70
    11
 71
     3
 72
    60
 73
    56
 74
     0
 42
0.0000000001
 43
0.0000000001
 40
0.0
 40
0.0
 40
0.0
 40
0.0
 40
0.0714285714285714
 40
0.0714285714285714
 40
0.0714285714285714
 40
0.0714285714285714
 40
0.1428571428571428
 40
0.1428571428571428
 40
0.1428571428571428
 40
0.1428571428571428
 40
0.2142857142857143
 40
0.2142857142857143
 40
0.2142857142857143
 40
0.2142857142857143
 40
0.2857142857142857
 40
0.2857142857142857
 40
0.2857142857142857
 40
0.2857142857142857
 40
0.3571428571428571
 40
0.3571428571428571
 40
0.3571428571428571
 40
0.3571428571428571
 40
0.4285714285714285
 40
0.4285714285714285
 40
0.4285714285714285
 40
0.4285714285714285
 40
0.5
 40
0.5
 40
0.5
 40
0.5
 40
0.5714285714285713
 40
0.5714285714285713
 40
0.5714285714285713
 40
0.5714285714285713
 40
0.6428571428571427
 40
0.6428571428571427
 40
0.6428571428571427
 40
0.6428571428571427
 40
0.7142857142857141
 40
0.7142857142857141
 40
0.7142857142857141
 40
0.7142857142857141
 40
0.7857142857142855
 40
0.7857142857142855
 40
0.7857142857142855
 40
0.7857142857142855
 40
0.8571428571428569
 40
0.8571428571428569
 40
0.8571428571428569
 40
0.8571428571428569
 40
0.9285714285714284
 40
0.9285714285714284
 40
0.9285714285714284
 40
0.9285714285714284
 40
1.0
 40
1.0
 40
1.0
 40
1.0
 10
3409.3657
 20
415.0811
 30
0.0
 10
3409.3657
 20
415.0811
 30
0.0
 10
3409.3657
 20
415.0811
 30
0.0
 10
3409.3657
 20
415.0811
 30
0.0
 10
3409.3657
 20
415.0811
 30
0.0
 10
3403.2698
 20
415.0811
 30
0.0
 10
3397.1483
 20
415.0811
 30
0.0
 10
3391.027000000001
 20
415.0811
 30
0.0
 10
3391.027000000001
 20
415.0811
 30
0.0
 10
3382.1878
 20
354.1465
 30
0.0
 10
3338.2966
 20
323.0315
 30
0.0
 10
3259.378700000001
 20
321.7361
 30
0.0
 10
3259.378700000001
 20
321.7361
 30
0.0
 10
3308.8072
 20
402.8636999999999
 30
0.0
 10
3358.260900000001
 20
483.9659
 30
0.0
 10
3407.7148
 20
565.0680999999999
 30
0.0
 10
3407.7148
 20
565.0680999999999
 30
0.0
 10
3407.7148
 20
575.0757
 30
0.0
 10
3407.7148
 20
585.0833
 30
0.0
 10
3407.7148
 20
595.0655
 30
0.0
 10
3407.7148
 20
595.0655
 30
0.0
 10
3336.035900000001
 20
595.0655
 30
0.0
 10
3264.3572
 20
595.0655
 30
0.0
 10
3192.7037
 20
595.0655
 30
0.0
 10
3192.7037
 20
595.0655
 30
0.0
 10
3191.5861
 20
561.1819
 30
0.0
 10
3190.4685
 20
527.2983
 30
0.0
 10
3189.3764
 20
493.4147
 30
0.0
 10
3189.3764
 20
493.4147
 30
0.0
 10
3195.4723
 20
493.4147
 30
0.0
 10
3201.5937
 20
493.4147
 30
0.0
 10
3207.7152
 20
493.4147
 30
0.0
 10
3207.7152
 20
493.4147
 30
0.0
 10
3213.9127
 20
546.5515
 30
0.0
 10
3246.1454
 20
573.7803
 30
0.0
 10
3304.3622
 20
575.0757
 30
0.0
 10
3304.3622
 20
575.0757
 30
0.0
 10
3313.8109
 20
575.0757
 30
0.0
 10
3323.2597
 20
575.0757
 30
0.0
 10
3332.7086
 20
575.0757
 30
0.0
 10
3332.7086
 20
575.0757
 30
0.0
 10
3281.6037
 20
491.1795
 30
0.0
 10
3230.4735
 20
407.3087
 30
0.0
 10
3179.3687
 20
323.4125
 30
0.0
 10
3179.3687
 20
323.4125
 30
0.0
 10
3179.3687
 20
316.1989
 30
0.0
 10
3179.3687
 20
308.9599
 30
0.0
 10
3179.3687
 20
301.7463
 30
0.0
 10
3179.3687
 20
301.7463
 30
0.0
 10
3255.4925
 20
301.7463
 30
0.0
 10
3331.590900000001
 20
301.7463
 30
0.0
 10
3407.7148
 20
301.7463
 30
0.0
 10
3407.7148
 20
301.7463
 30
0.0
 10
3408.2481
 20
339.5161
 30
0.0
 10
3408.807
 20
377.3113
 30
0.0
 10
3409.3657
 20
415.0811
 30
0.0
  0
ENDSEC
  0
SECTION
  2
OBJECTS
  0
DICTIONARY
  5
C
330
0
100
AcDbDictionary
281
     1
  3
ACAD_COLOR
350
87
  3
ACAD_GROUP
350
D
  3
ACAD_LAYOUT
350
1A
  3
ACAD_MATERIAL
350
86
  3
ACAD_MLEADERSTYLE
350
83
  3
ACAD_MLINESTYLE
350
17
  3
ACAD_PLOTSETTINGS
350
19
  3
ACAD_PLOTSTYLENAME
350
E
  3
ACAD_SCALELIST
350
3B
  3
ACAD_TABLESTYLE
350
82
  3
ACAD_VISUALSTYLE
350
2A
  3
AcDbVariableDictionary
350
8E
  0
DICTIONARY
  5
87
102
{ACAD_REACTORS
330
C
102
}
330
C
100
AcDbDictionary
281
     1
  0
DICTIONARY
  5
D
102
{ACAD_REACTORS
330
C
102
}
330
C
100
AcDbDictionary
281
     1
  0
DICTIONARY
  5
1A
102
{ACAD_REACTORS
330
C
102
}
330
C
100
AcDbDictionary
281
     1
  3
Layout1
350
1E
  3
Layout2
350
26
  3
Model
350
22
  0
DICTIONARY
  5
86
102
{ACAD_REACTORS
330
C
102
}
330
C
100
AcDbDictionary
281
     1
  0
DICTIONARY
  5
83
102
{ACAD_REACTORS
330
C
102
}
330
C
100
AcDbDictionary
281
     1
  0
DICTIONARY
  5
17
102
{ACAD_REACTORS
330
C
102
}
330
C
100
AcDbDictionary
281
     1
  3
Standard
350
18
  0
DICTIONARY
  5
19
102
{ACAD_REACTORS
330
C
102
}
330
C
100
AcDbDictionary
281
     1
  0
ACDBDICTIONARYWDFLT
  5
E
102
{ACAD_REACTORS
330
C
102
}
330
C
100
AcDbDictionary
281
     1
  3
Normal
350
F
100
AcDbDictionaryWithDefault
340
F
  0
DICTIONARY
  5
3B
102
{ACAD_REACTORS
330
C
102
}
330
C
100
AcDbDictionary
281
     1
  3
A0
350
3C
  3
A1
350
3D
  3
A2
350
3E
  3
A3
350
3F
  3
A4
350
40
  3
A5
350
41
  3
A6
350
42
  3
A7
350
43
  3
A8
350
44
  3
A9
350
45
  3
B0
350
46
  3
B1
350
47
  3
B2
350
48
  3
B3
350
49
  3
B4
350
4A
  3
B5
350
4B
  3
B6
350
4C
  3
B7
350
4D
  3
B8
350
4E
  3
B9
350
4F
  3
C0
350
50
  3
C1
350
51
  3
C2
350
52
  3
C3
350
53
  3
C4
350
54
  3
C5
350
55
  3
C6
350
56
  3
C7
350
57
  3
C8
350
58
  3
C9
350
59
  3
D0
350
5A
  3
D1
350
5B
  3
D2
350
5C
  0
DICTIONARY
  5
82
102
{ACAD_REACTORS
330
C
102
}
330
C
100
AcDbDictionary
281
     1
  3
Standard
350
88
  0
DICTIONARY
  5
2A
102
{ACAD_REACTORS
330
C
102
}
330
C
100
AcDbDictionary
281
     1
  3
2dWireframe
350
2F
  3
3D Hidden
350
31
  3
3dWireframe
350
30
  3
Basic
350
32
  3
Brighten
350
36
  3
ColorChange
350
3A
  3
Conceptual
350
34
  3
Dim
350
35
  3
Facepattern
350
39
  3
Flat
350
2B
  3
FlatWithEdges
350
2C
  3
Gouraud
350
2D
  3
GouraudWithEdges
350
2E
  3
Linepattern
350
38
  3
Realistic
350
33
  3
Thicken
350
37
  0
DICTIONARY
  5
8E
102
{ACAD_REACTORS
330
C
102
}
330
C
100
AcDbDictionary
281
     1
  3
CTABLESTYLE
350
8F
  0
LAYOUT
  5
1E
102
{ACAD_REACTORS
330
1A
102
}
330
1A
100
AcDbPlotSettings
  1

  2
none_device
  4

  6

 40
0.0
 41
0.0
 42
0.0
 43
0.0
 44
0.0
 45
0.0
 46
0.0
 47
0.0
 48
0.0
 49
0.0
140
0.0
141
0.0
142
1.0
143
1.0
 70
   688
 72
     0
 73
     0
 74
     5
  7

 75
    16
147
1.0
 76
     0
 77
     2
 78
   300
148
0.0
149
0.0
100
AcDbLayout
  1
Layout1
 70
     1
 71
     1
 10
0.0
 20
0.0
 11
12.0
 21
9.0
 12
0.0
 22
0.0
 32
0.0
 14
1.000000000000000E+20
 24
1.000000000000000E+20
 34
1.000000000000000E+20
 15
-1.000000000000000E+20
 25
-1.000000000000000E+20
 35
-1.000000000000000E+20
146
0.0
 13
0.0
 23
0.0
 33
0.0
 16
1.0
 26
0.0
 36
0.0
 17
0.0
 27
1.0
 37
0.0
 76
     0
330
1B
  0
LAYOUT
  5
26
102
{ACAD_REACTORS
330
1A
102
}
330
1A
100
AcDbPlotSettings
  1

  2
none_device
  4

  6

 40
0.0
 41
0.0
 42
0.0
 43
0.0
 44
0.0
 45
0.0
 46
0.0
 47
0.0
 48
0.0
 49
0.0
140
0.0
141
0.0
142
1.0
143
1.0
 70
   688
 72
     0
 73
     0
 74
     5
  7

 75
    16
147
1.0
 76
     0
 77
     2
 78
   300
148
0.0
149
0.0
100
AcDbLayout
  1
Layout2
 70
     1
 71
     2
 10
0.0
 20
0.0
 11
0.0
 21
0.0
 12
0.0
 22
0.0
 32
0.0
 14
0.0
 24
0.0
 34
0.0
 15
0.0
 25
0.0
 35
0.0
146
0.0
 13
0.0
 23
0.0
 33
0.0
 16
1.0
 26
0.0
 36
0.0
 17
0.0
 27
1.0
 37
0.0
 76
     0
330
23
  0
LAYOUT
  5
22
102
{ACAD_REACTORS
330
1A
102
}
330
1A
100
AcDbPlotSettings
  1

  2
none_device
  4

  6

 40
0.0
 41
0.0
 42
0.0
 43
0.0
 44
0.0
 45
0.0
 46
0.0
 47
0.0
 48
0.0
 49
0.0
140
0.0
141
0.0
142
1.0
143
1.0
 70
  1712
 72
     0
 73
     0
 74
     0
  7

 75
     0
147
1.0
 76
     0
 77
     2
 78
   300
148
0.0
149
0.0
100
AcDbLayout
  1
Model
 70
     1
 71
     0
 10
0.0
 20
0.0
 11
12.0
 21
9.0
 12
0.0
 22
0.0
 32
0.0
 14
-4388.459499999999
 24
263.3669
 34
0.0
 15
3409.3657
 25
598.4183
 35
0.0
146
0.0
 13
0.0
 23
0.0
 33
0.0
 16
1.0
 26
0.0
 36
0.0
 17
0.0
 27
1.0
 37
0.0
 76
     0
330
1F
331
29
  0
MLINESTYLE
  5
18
102
{ACAD_REACTORS
330
17
102
}
330
17
100
AcDbMlineStyle
  2
STANDARD
 70
     0
  3

 62
   256
 51
90.0
 52
90.0
 71
     2
 49
0.5
 62
   256
  6
BYLAYER
 49
-0.5
 62
   256
  6
BYLAYER
  0
ACDBPLACEHOLDER
  5
F
102
{ACAD_REACTORS
330
E
102
}
330
E
  0
SCALE
  5
3C
102
{ACAD_REACTORS
330
3B
102
}
330
3B
100
AcDbScale
 70
     0
300
1:1
140
1.0
141
1.0
290
     1
  0
SCALE
  5
3D
102
{ACAD_REACTORS
330
3B
102
}
330
3B
100
AcDbScale
 70
     0
300
1:2
140
1.0
141
2.0
290
     0
  0
SCALE
  5
3E
102
{ACAD_REACTORS
330
3B
102
}
330
3B
100
AcDbScale
 70
     0
300
1:4
140
1.0
141
4.0
290
     0
  0
SCALE
  5
3F
102
{ACAD_REACTORS
330
3B
102
}
330
3B
100
AcDbScale
 70
     0
300
1:5
140
1.0
141
5.0
290
     0
  0
SCALE
  5
40
102
{ACAD_REACTORS
330
3B
102
}
330
3B
100
AcDbScale
 70
     0
300
1:8
140
1.0
141
8.0
290
     0
  0
SCALE
  5
41
102
{ACAD_REACTORS
330
3B
102
}
330
3B
100
AcDbScale
 70
     0
300
1:10
140
1.0
141
10.0
290
     0
  0
SCALE
  5
42
102
{ACAD_REACTORS
330
3B
102
}
330
3B
100
AcDbScale
 70
     0
300
1:16
140
1.0
141
16.0
290
     0
  0
SCALE
  5
43
102
{ACAD_REACTORS
330
3B
102
}
330
3B
100
AcDbScale
 70
     0
300
1:20
140
1.0
141
20.0
290
     0
  0
SCALE
  5
44
102
{ACAD_REACTORS
330
3B
102
}
330
3B
100
AcDbScale
 70
     0
300
1:30
140
1.0
141
30.0
290
     0
  0
SCALE
  5
45
102
{ACAD_REACTORS
330
3B
102
}
330
3B
100
AcDbScale
 70
     0
300
1:40
140
1.0
141
40.0
290
     0
  0
SCALE
  5
46
102
{ACAD_REACTORS
330
3B
102
}
330
3B
100
AcDbScale
 70
     0
300
1:50
140
1.0
141
50.0
290
     0
  0
SCALE
  5
47
102
{ACAD_REACTORS
330
3B
102
}
330
3B
100
AcDbScale
 70
     0
300
1:100
140
1.0
141
100.0
290
     0
  0
SCALE
  5
48
102
{ACAD_REACTORS
330
3B
102
}
330
3B
100
AcDbScale
 70
     0
300
2:1
140
2.0
141
1.0
290
     0
  0
SCALE
  5
49
102
{ACAD_REACTORS
330
3B
102
}
330
3B
100
AcDbScale
 70
     0
300
4:1
140
4.0
141
1.0
290
     0
  0
SCALE
  5
4A
102
{ACAD_REACTORS
330
3B
102
}
330
3B
100
AcDbScale
 70
     0
300
8:1
140
8.0
141
1.0
290
     0
  0
SCALE
  5
4B
102
{ACAD_REACTORS
330
3B
102
}
330
3B
100
AcDbScale
 70
     0
300
10:1
140
10.0
141
1.0
290
     0
  0
SCALE
  5
4C
102
{ACAD_REACTORS
330
3B
102
}
330
3B
100
AcDbScale
 70
     0
300
100:1
140
100.0
141
1.0
290
     0
  0
SCALE
  5
4D
102
{ACAD_REACTORS
330
3B
102
}
330
3B
100
AcDbScale
 70
     0
300
1/128" = 1'-0"
140
0.0078125
141
12.0
290
     0
  0
SCALE
  5
4E
102
{ACAD_REACTORS
330
3B
102
}
330
3B
100
AcDbScale
 70
     0
300
1/64" = 1'-0"
140
0.015625
141
12.0
290
     0
  0
SCALE
  5
4F
102
{ACAD_REACTORS
330
3B
102
}
330
3B
100
AcDbScale
 70
     0
300
1/32" = 1'-0"
140
0.03125
141
12.0
290
     0
  0
SCALE
  5
50
102
{ACAD_REACTORS
330
3B
102
}
330
3B
100
AcDbScale
 70
     0
300
1/16" = 1'-0"
140
0.0625
141
12.0
290
     0
  0
SCALE
  5
51
102
{ACAD_REACTORS
330
3B
102
}
330
3B
100
AcDbScale
 70
     0
300
3/32" = 1'-0"
140
0.09375
141
12.0
290
     0
  0
SCALE
  5
52
102
{ACAD_REACTORS
330
3B
102
}
330
3B
100
AcDbScale
 70
     0
300
1/8" = 1'-0"
140
0.125
141
12.0
290
     0
  0
SCALE
  5
53
102
{ACAD_REACTORS
330
3B
102
}
330
3B
100
AcDbScale
 70
     0
300
3/16" = 1'-0"
140
0.1875
141
12.0
290
     0
  0
SCALE
  5
54
102
{ACAD_REACTORS
330
3B
102
}
330
3B
100
AcDbScale
 70
     0
300
1/4" = 1'-0"
140
0.25
141
12.0
290
     0
  0
SCALE
  5
55
102
{ACAD_REACTORS
330
3B
102
}
330
3B
100
AcDbScale
 70
     0
300
3/8" = 1'-0"
140
0.375
141
12.0
290
     0
  0
SCALE
  5
56
102
{ACAD_REACTORS
330
3B
102
}
330
3B
100
AcDbScale
 70
     0
300
1/2" = 1'-0"
140
0.5
141
12.0
290
     0
  0
SCALE
  5
57
102
{ACAD_REACTORS
330
3B
102
}
330
3B
100
AcDbScale
 70
     0
300
3/4" = 1'-0"
140
0.75
141
12.0
290
     0
  0
SCALE
  5
58
102
{ACAD_REACTORS
330
3B
102
}
330
3B
100
AcDbScale
 70
     0
300
1" = 1'-0"
140
1.0
141
12.0
290
     0
  0
SCALE
  5
59
102
{ACAD_REACTORS
330
3B
102
}
330
3B
100
AcDbScale
 70
     0
300
1-1/2" = 1'-0"
140
1.5
141
12.0
290
     0
  0
SCALE
  5
5A
102
{ACAD_REACTORS
330
3B
102
}
330
3B
100
AcDbScale
 70
     0
300
3" = 1'-0"
140
3.0
141
12.0
290
     0
  0
SCALE
  5
5B
102
{ACAD_REACTORS
330
3B
102
}
330
3B
100
AcDbScale
 70
     0
300
6" = 1'-0"
140
6.0
141
12.0
290
     0
  0
SCALE
  5
5C
102
{ACAD_REACTORS
330
3B
102
}
330
3B
100
AcDbScale
 70
     0
300
1'-0" = 1'-0"
140
12.0
141
12.0
290
     0
  0
TABLESTYLE
  5
88
102
{ACAD_REACTORS
330
82
102
}
330
82
100
AcDbTableStyle
  3
Standard
 70
     0
 71
     0
 40
0.06
 41
0.06
280
     0
281
     0
  7
Standard
140
0.18
170
     2
 62
     0
 63
     7
283
     0
274
    -2
284
     1
 64
     0
275
    -2
285
     1
 65
     0
276
    -2
286
     1
 66
     0
277
    -2
287
     1
 67
     0
278
    -2
288
     1
 68
     0
279
    -2
289
     1
 69
     0
  7
Standard
140
0.25
170
     5
 62
     0
 63
     7
283
     0
274
    -2
284
     1
 64
     0
275
    -2
285
     1
 65
     0
276
    -2
286
     1
 66
     0
277
    -2
287
     1
 67
     0
278
    -2
288
     1
 68
     0
279
    -2
289
     1
 69
     0
  7
Standard
140
0.18
170
     5
 62
     0
 63
     7
283
     0
274
    -2
284
     1
 64
     0
275
    -2
285
     1
 65
     0
276
    -2
286
     1
 66
     0
277
    -2
287
     1
 67
     0
278
    -2
288
     1
 68
     0
279
    -2
289
     1
 69
     0
  0
VISUALSTYLE
  5
2F
102
{ACAD_REACTORS
330
2A
102
}
330
2A
100
AcDbVisualStyle
  2
2dWireframe
 70
     4
 71
     0
 72
     2
 73
     0
 90
        0
 40
-0.6
 41
-30.0
 62
     5
 63
     7
421
 16777215
 74
     1
 91
        4
 64
     7
 65
   257
 75
     1
175
     1
 42
1.0
 92
        0
 66
   257
 43
1.0
 76
     1
 77
     6
 78
     2
 67
     7
 79
     5
170
     0
171
     0
290
     0
174
     0
 93
        1
 44
0.0
173
     0
291
     0
 45
0.0
1001
ACAD
1000
AcDbSavedByObjectVersion
1070
     0
  0
VISUALSTYLE
  5
31
102
{ACAD_REACTORS
330
2A
102
}
330
2A
100
AcDbVisualStyle
  2
3D Hidden
 70
     6
 71
     1
 72
     2
 73
     2
 90
        0
 40
-0.6
 41
-30.0
 62
     5
 63
     7
421
 16777215
 74
     2
 91
        2
 64
     7
 65
   257
 75
     2
175
     1
 42
40.0
 92
        0
 66
   257
 43
1.0
 76
     1
 77
     6
 78
     2
 67
     7
 79
     3
170
     0
171
     0
290
     0
174
     0
 93
        1
 44
0.0
173
     0
291
     0
 45
0.0
1001
ACAD
1000
AcDbSavedByObjectVersion
1070
     0
  0
VISUALSTYLE
  5
30
102
{ACAD_REACTORS
330
2A
102
}
330
2A
100
AcDbVisualStyle
  2
3dWireframe
 70
     5
 71
     0
 72
     2
 73
     0
 90
        0
 40
-0.6
 41
-30.0
 62
     5
 63
     7
421
 16777215
 74
     1
 91
        4
 64
     7
 65
   257
 75
     1
175
     1
 42
1.0
 92
        0
 66
   257
 43
1.0
 76
     1
 77
     6
 78
     2
 67
     7
 79
     5
170
     0
171
     0
290
     0
174
     0
 93
        1
 44
0.0
173
     0
291
     0
 45
0.0
1001
ACAD
1000
AcDbSavedByObjectVersion
1070
     0
  0
VISUALSTYLE
  5
32
102
{ACAD_REACTORS
330
2A
102
}
330
2A
100
AcDbVisualStyle
  2
Basic
 70
     7
 71
     1
 72
     0
 73
     1
 90
        0
 40
-0.6
 41
-30.0
 62
     5
 63
     7
421
 16777215
 74
     0
 91
        4
 64
     7
 65
   257
 75
     1
175
     1
 42
1.0
 92
        8
 66
     7
 43
1.0
 76
     1
 77
     6
 78
     2
 67
     7
 79
     5
170
     0
171
     0
290
     0
174
     0
 93
        1
 44
0.0
173
     0
291
     1
 45
0.0
1001
ACAD
1000
AcDbSavedByObjectVersion
1070
     0
  0
VISUALSTYLE
  5
36
102
{ACAD_REACTORS
330
2A
102
}
330
2A
100
AcDbVisualStyle
  2
Brighten
 70
    12
 71
     2
 72
     2
 73
     0
 90
        0
 40
-0.6
 41
-30.0
 62
     5
 63
     7
421
 16777215
 74
     1
 91
        4
 64
     7
 65
   257
 75
     1
175
     1
 42
1.0
 92
        8
 66
     7
 43
1.0
 76
     1
 77
     6
 78
     2
 67
     7
 79
     5
170
     0
171
     0
290
     0
174
     0
 93
        1
 44
50.0
173
     0
291
     1
 45
0.0
1001
ACAD
1000
AcDbSavedByObjectVersion
1070
     0
  0
VISUALSTYLE
  5
3A
102
{ACAD_REACTORS
330
2A
102
}
330
2A
100
AcDbVisualStyle
  2
ColorChange
 70
    16
 71
     2
 72
     2
 73
     3
 90
        0
 40
-0.6
 41
-30.0
 62
     5
 63
     8
421
  8421504
 74
     1
 91
        4
 64
     7
 65
   257
 75
     1
175
     1
 42
1.0
 92
        8
 66
     8
424
  8421504
 43
1.0
 76
     1
 77
     6
 78
     2
 67
     7
 79
     5
170
     0
171
     0
290
     0
174
     0
 93
        1
 44
0.0
173
     0
291
     1
 45
0.0
1001
ACAD
1000
AcDbSavedByObjectVersion
1070
     0
  0
VISUALSTYLE
  5
34
102
{ACAD_REACTORS
330
2A
102
}
330
2A
100
AcDbVisualStyle
  2
Conceptual
 70
     9
 71
     3
 72
     2
 73
     0
 90
        0
 40
-0.6
 41
-30.0
 62
     5
 63
     7
421
 16777215
 74
     2
 91
        2
 64
     7
 65
   257
 75
     1
175
     1
 42
40.0
 92
        8
 66
     7
 43
1.0
 76
     1
 77
     6
 78
     2
 67
     7
 79
     3
170
     0
171
     0
290
     0
174
     0
 93
        1
 44
0.0
173
     0
291
     0
 45
0.0
1001
ACAD
1000
AcDbSavedByObjectVersion
1070
     0
  0
VISUALSTYLE
  5
35
102
{ACAD_REACTORS
330
2A
102
}
330
2A
100
AcDbVisualStyle
  2
Dim
 70
    11
 71
     2
 72
     2
 73
     0
 90
        0
 40
-0.6
 41
-30.0
 62
     5
 63
     7
421
 16777215
 74
     1
 91
        4
 64
     7
 65
   257
 75
     1
175
     1
 42
1.0
 92
        8
 66
     7
 43
1.0
 76
     1
 77
     6
 78
     2
 67
     7
 79
     5
170
     0
171
     0
290
     0
174
     0
 93
        1
 44
-50.0
173
     0
291
     1
 45
0.0
1001
ACAD
1000
AcDbSavedByObjectVersion
1070
     0
  0
VISUALSTYLE
  5
39
102
{ACAD_REACTORS
330
2A
102
}
330
2A
100
AcDbVisualStyle
  2
Facepattern
 70
    15
 71
     2
 72
     2
 73
     0
 90
        0
 40
-0.6
 41
-30.0
 62
     5
 63
     7
421
 16777215
 74
     1
 91
        4
 64
     7
 65
   257
 75
     1
175
     1
 42
1.0
 92
        8
 66
     7
 43
1.0
 76
     1
 77
     6
 78
     2
 67
     7
 79
     5
170
     0
171
     0
290
     0
174
     0
 93
        1
 44
0.0
173
     0
291
     1
 45
0.0
1001
ACAD
1000
AcDbSavedByObjectVersion
1070
     0
  0
VISUALSTYLE
  5
2B
102
{ACAD_REACTORS
330
2A
102
}
330
2A
100
AcDbVisualStyle
  2
Flat
 70
     0
 71
     2
 72
     1
 73
     1
 90
        2
 40
-0.6
 41
30.0
 62
     5
 63
     7
421
 16777215
 74
     0
 91
        4
 64
     7
 65
   257
 75
     1
175
     1
 42
1.0
 92
        8
 66
     7
 43
1.0
 76
     1
 77
     6
 78
     2
 67
     7
 79
     5
170
     0
171
     0
290
     0
174
     0
 93
       13
 44
0.0
173
     0
291
     1
 45
0.0
1001
ACAD
1000
AcDbSavedByObjectVersion
1070
     0
  0
VISUALSTYLE
  5
2C
102
{ACAD_REACTORS
330
2A
102
}
330
2A
100
AcDbVisualStyle
  2
FlatWithEdges
 70
     1
 71
     2
 72
     1
 73
     1
 90
        2
 40
-0.6
 41
30.0
 62
     5
 63
     7
421
 16777215
 74
     1
 91
        4
 64
     7
 65
   257
 75
     1
175
     1
 42
1.0
 92
        0
 66
   257
 43
1.0
 76
     1
 77
     6
 78
     2
 67
     7
 79
     5
170
     0
171
     0
290
     0
174
     0
 93
       13
 44
0.0
173
     0
291
     1
 45
0.0
1001
ACAD
1000
AcDbSavedByObjectVersion
1070
     0
  0
VISUALSTYLE
  5
2D
102
{ACAD_REACTORS
330
2A
102
}
330
2A
100
AcDbVisualStyle
  2
Gouraud
 70
     2
 71
     2
 72
     2
 73
     1
 90
        2
 40
-0.6
 41
30.0
 62
     5
 63
     7
421
 16777215
 74
     0
 91
        4
 64
     7
 65
   257
 75
     1
175
     1
 42
1.0
 92
        0
 66
     7
 43
1.0
 76
     1
 77
     6
 78
     2
 67
     7
 79
     5
170
     0
171
     0
290
     0
174
     0
 93
       13
 44
0.0
173
     0
291
     1
 45
0.0
1001
ACAD
1000
AcDbSavedByObjectVersion
1070
     0
  0
VISUALSTYLE
  5
2E
102
{ACAD_REACTORS
330
2A
102
}
330
2A
100
AcDbVisualStyle
  2
GouraudWithEdges
 70
     3
 71
     2
 72
     2
 73
     1
 90
        2
 40
-0.6
 41
30.0
 62
     5
 63
     7
421
 16777215
 74
     1
 91
        4
 64
     7
 65
   257
 75
     1
175
     1
 42
1.0
 92
        0
 66
   257
 43
1.0
 76
     1
 77
     6
 78
     2
 67
     7
 79
     5
170
     0
171
     0
290
     0
174
     0
 93
       13
 44
0.0
173
     0
291
     1
 45
0.0
1001
ACAD
1000
AcDbSavedByObjectVersion
1070
     0
  0
VISUALSTYLE
  5
38
102
{ACAD_REACTORS
330
2A
102
}
330
2A
100
AcDbVisualStyle
  2
Linepattern
 70
    14
 71
     2
 72
     2
 73
     0
 90
        0
 40
-0.6
 41
-30.0
 62
     5
 63
     7
421
 16777215
 74
     1
 91
        4
 64
     7
 65
   257
 75
     7
175
     7
 42
1.0
 92
        8
 66
     7
 43
1.0
 76
     1
 77
     6
 78
     2
 67
     7
 79
     5
170
     0
171
     0
290
     0
174
     0
 93
        1
 44
0.0
173
     0
291
     1
 45
0.0
1001
ACAD
1000
AcDbSavedByObjectVersion
1070
     0
  0
VISUALSTYLE
  5
33
102
{ACAD_REACTORS
330
2A
102
}
330
2A
100
AcDbVisualStyle
  2
Realistic
 70
     8
 71
     2
 72
     2
 73
     0
 90
        0
 40
-0.6
 41
-30.0
 62
     5
 63
     7
421
 16777215
 74
     1
 91
        0
 64
     7
 65
   257
 75
     1
175
     1
 42
1.0
 92
        8
 66
     8
424
  7895160
 43
1.0
 76
     1
 77
     6
 78
     2
 67
     7
 79
     5
170
     0
171
     0
290
     0
174
     0
 93
       13
 44
0.0
173
     0
291
     0
 45
0.0
1001
ACAD
1000
AcDbSavedByObjectVersion
1070
     0
  0
VISUALSTYLE
  5
37
102
{ACAD_REACTORS
330
2A
102
}
330
2A
100
AcDbVisualStyle
  2
Thicken
 70
    13
 71
     2
 72
     2
 73
     0
 90
        0
 40
-0.6
 41
-30.0
 62
     5
 63
     7
421
 16777215
 74
     1
 91
        4
 64
     7
 65
   257
 75
     1
175
     1
 42
1.0
 92
       12
 66
     7
 43
1.0
 76
     1
 77
     6
 78
     2
 67
     7
 79
     5
170
     0
171
     0
290
     0
174
     0
 93
        1
 44
0.0
173
     0
291
     1
 45
0.0
1001
ACAD
1000
AcDbSavedByObjectVersion
1070
     0
  0
DICTIONARYVAR
  5
8F
102
{ACAD_REACTORS
330
8E
102
}
330
8E
100
DictionaryVariables
280
     0
  1
STANDARD
  0
ENDSEC
  0
EOF
