  0
SECTION
  2
HEADER
  9
$ACADVER
  1
AC1018
  9
$ACADMAINTVER
 70
    39
  9
$DWGCODEPAGE
  3
ANSI_936
  9
$INSBASE
 10
0.0
 20
0.0
 30
0.0
  9
$EXTMIN
 10
-4388.459499999999
 20
263.3669132441014
 30
0.0
  9
$EXTMAX
 10
3409.3657
 20
598.4182919097985
 30
0.0
  9
$LIMMIN
 10
0.0
 20
0.0
  9
$LIMMAX
 10
12.0
 20
9.0
  9
$ORTHOMODE
 70
     0
  9
$REGENMODE
 70
     1
  9
$FILLMODE
 70
     1
  9
$QTEXTMODE
 70
     0
  9
$MIRRTEXT
 70
     1
  9
$LTSCALE
 40
1.0
  9
$ATTMODE
 70
     1
  9
$TEXTSIZE
 40
0.2
  9
$TRACEWID
 40
0.05
  9
$TEXTSTYLE
  7
Standard
  9
$CLAYER
  8
0
  9
$CELTYPE
  6
ByLayer
  9
$CECOLOR
 62
   256
  9
$CELTSCALE
 40
1.0
  9
$DISPSILH
 70
     0
  9
$DIMSCALE
 40
1.0
  9
$DIMASZ
 40
0.18
  9
$DIMEXO
 40
0.0625
  9
$DIMDLI
 40
0.38
  9
$DIMRND
 40
0.0
  9
$DIMDLE
 40
0.0
  9
$DIMEXE
 40
0.18
  9
$DIMTP
 40
0.0
  9
$DIMTM
 40
0.0
  9
$DIMTXT
 40
0.18
  9
$DIMCEN
 40
0.09
  9
$DIMTSZ
 40
0.0
  9
$DIMTOL
 70
     0
  9
$DIMLIM
 70
     0
  9
$DIMTIH
 70
     1
  9
$DIMTOH
 70
     1
  9
$DIMSE1
 70
     0
  9
$DIMSE2
 70
     0
  9
$DIMTAD
 70
     0
  9
$DIMZIN
 70
     0
  9
$DIMBLK
  1

  9
$DIMASO
 70
     1
  9
$DIMSHO
 70
     1
  9
$DIMPOST
  1

  9
$DIMAPOST
  1

  9
$DIMALT
 70
     0
  9
$DIMALTD
 70
     2
  9
$DIMALTF
 40
25.4
  9
$DIMLFAC
 40
1.0
  9
$DIMTOFL
 70
     0
  9
$DIMTVP
 40
0.0
  9
$DIMTIX
 70
     0
  9
$DIMSOXD
 70
     0
  9
$DIMSAH
 70
     0
  9
$DIMBLK1
  1

  9
$DIMBLK2
  1

  9
$DIMSTYLE
  2
Standard
  9
$DIMCLRD
 70
     0
  9
$DIMCLRE
 70
     0
  9
$DIMCLRT
 70
     0
  9
$DIMTFAC
 40
1.0
  9
$DIMGAP
 40
0.09
  9
$DIMJUST
 70
     0
  9
$DIMSD1
 70
     0
  9
$DIMSD2
 70
     0
  9
$DIMTOLJ
 70
     1
  9
$DIMTZIN
 70
     0
  9
$DIMALTZ
 70
     0
  9
$DIMALTTZ
 70
     0
  9
$DIMUPT
 70
     0
  9
$DIMDEC
 70
     4
  9
$DIMTDEC
 70
     4
  9
$DIMALTU
 70
     2
  9
$DIMALTTD
 70
     2
  9
$DIMTXSTY
  7
Standard
  9
$DIMAUNIT
 70
     0
  9
$DIMADEC
 70
     0
  9
$DIMALTRND
 40
0.0
  9
$DIMAZIN
 70
     0
  9
$DIMDSEP
 70
    46
  9
$DIMATFIT
 70
     3
  9
$DIMFRAC
 70
     0
  9
$DIMLDRBLK
  1

  9
$DIMLUNIT
 70
     2
  9
$DIMLWD
 70
    -2
  9
$DIMLWE
 70
    -2
  9
$DIMTMOVE
 70
     0
  9
$LUNITS
 70
     2
  9
$LUPREC
 70
     4
  9
$SKETCHINC
 40
0.1
  9
$FILLETRAD
 40
0.5
  9
$AUNITS
 70
     0
  9
$AUPREC
 70
     0
  9
$MENU
  1
.
  9
$ELEVATION
 40
0.0
  9
$PELEVATION
 40
0.0
  9
$THICKNESS
 40
0.0
  9
$LIMCHECK
 70
     0
  9
$CHAMFERA
 40
0.5
  9
$CHAMFERB
 40
0.5
  9
$CHAMFERC
 40
1.0
  9
$CHAMFERD
 40
0.0
  9
$SKPOLY
 70
     0
  9
$TDCREATE
 40
2455736.446866493
  9
$TDUCREATE
 40
2455736.113533160
  9
$TDUPDATE
 40
2456504.477924884
  9
$TDUUPDATE
 40
2456504.144591551
  9
$TDINDWG
 40
0.0021957292
  9
$TDUSRTIMER
 40
0.0021935648
  9
$USRTIMER
 70
     1
  9
$ANGBASE
 50
0.0
  9
$ANGDIR
 70
     0
  9
$PDMODE
 70
     0
  9
$PDSIZE
 40
0.0
  9
$PLINEWID
 40
0.0
  9
$SPLFRAME
 70
     0
  9
$SPLINETYPE
 70
     6
  9
$SPLINESEGS
 70
     8
  9
$HANDSEED
  5
8E
  9
$SURFTAB1
 70
     6
  9
$SURFTAB2
 70
     6
  9
$SURFTYPE
 70
     6
  9
$SURFU
 70
     6
  9
$SURFV
 70
     6
  9
$UCSBASE
  2

  9
$UCSNAME
  2

  9
$UCSORG
 10
0.0
 20
0.0
 30
0.0
  9
$UCSXDIR
 10
1.0
 20
0.0
 30
0.0
  9
$UCSYDIR
 10
0.0
 20
1.0
 30
0.0
  9
$UCSORTHOREF
  2

  9
$UCSORTHOVIEW
 70
     0
  9
$UCSORGTOP
 10
0.0
 20
0.0
 30
0.0
  9
$UCSORGBOTTOM
 10
0.0
 20
0.0
 30
0.0
  9
$UCSORGLEFT
 10
0.0
 20
0.0
 30
0.0
  9
$UCSORGRIGHT
 10
0.0
 20
0.0
 30
0.0
  9
$UCSORGFRONT
 10
0.0
 20
0.0
 30
0.0
  9
$UCSORGBACK
 10
0.0
 20
0.0
 30
0.0
  9
$PUCSBASE
  2

  9
$PUCSNAME
  2

  9
$PUCSORG
 10
0.0
 20
0.0
 30
0.0
  9
$PUCSXDIR
 10
1.0
 20
0.0
 30
0.0
  9
$PUCSYDIR
 10
0.0
 20
1.0
 30
0.0
  9
$PUCSORTHOREF
  2

  9
$PUCSORTHOVIEW
 70
     0
  9
$PUCSORGTOP
 10
0.0
 20
0.0
 30
0.0
  9
$PUCSORGBOTTOM
 10
0.0
 20
0.0
 30
0.0
  9
$PUCSORGLEFT
 10
0.0
 20
0.0
 30
0.0
  9
$PUCSORGRIGHT
 10
0.0
 20
0.0
 30
0.0
  9
$PUCSORGFRONT
 10
0.0
 20
0.0
 30
0.0
  9
$PUCSORGBACK
 10
0.0
 20
0.0
 30
0.0
  9
$USERI1
 70
     0
  9
$USERI2
 70
     0
  9
$USERI3
 70
     0
  9
$USERI4
 70
     0
  9
$USERI5
 70
     0
  9
$USERR1
 40
0.0
  9
$USERR2
 40
0.0
  9
$USERR3
 40
0.0
  9
$USERR4
 40
0.0
  9
$USERR5
 40
0.0
  9
$WORLDVIEW
 70
     1
  9
$SHADEDGE
 70
     3
  9
$SHADEDIF
 70
    70
  9
$TILEMODE
 70
     1
  9
$MAXACTVP
 70
    64
  9
$PINSBASE
 10
0.0
 20
0.0
 30
0.0
  9
$PLIMCHECK
 70
     0
  9
$PEXTMIN
 10
1.000000000000000E+20
 20
1.000000000000000E+20
 30
1.000000000000000E+20
  9
$PEXTMAX
 10
-1.000000000000000E+20
 20
-1.000000000000000E+20
 30
-1.000000000000000E+20
  9
$PLIMMIN
 10
0.0
 20
0.0
  9
$PLIMMAX
 10
12.0
 20
9.0
  9
$UNITMODE
 70
     0
  9
$VISRETAIN
 70
     1
  9
$PLINEGEN
 70
     0
  9
$PSLTSCALE
 70
     1
  9
$TREEDEPTH
 70
  3020
  9
$CMLSTYLE
  2
Standard
  9
$CMLJUST
 70
     0
  9
$CMLSCALE
 40
1.0
  9
$PROXYGRAPHICS
 70
     1
  9
$MEASUREMENT
 70
     0
  9
$CELWEIGHT
370
    -1
  9
$ENDCAPS
280
     0
  9
$JOINSTYLE
280
     0
  9
$LWDISPLAY
290
     0
  9
$INSUNITS
 70
     4
  9
$HYPERLINKBASE
  1

  9
$STYLESHEET
  1

  9
$XEDIT
290
     1
  9
$CEPSNTYPE
380
     0
  9
$PSTYLEMODE
290
     1
  9
$FINGERPRINTGUID
  2
{42E8E9C8-F1B5-495F-B485-54E2FC11A22D}
  9
$VERSIONGUID
  2
{D35AD0DD-6754-4620-BA9A-4D2C5D108373}
  9
$EXTNAMES
290
     1
  9
$PSVPSCALE
 40
0.0
  9
$OLESTARTUP
290
     0
  9
$SORTENTS
280
   127
  9
$INDEXCTL
280
     0
  9
$HIDETEXT
280
     1
  9
$XCLIPFRAME
290
     0
  9
$HALOGAP
280
     0
  9
$OBSCOLOR
 70
   257
  9
$OBSLTYPE
280
     0
  9
$INTERSECTIONDISPLAY
280
     0
  9
$INTERSECTIONCOLOR
 70
   257
  9
$DIMASSOC
280
     2
  9
$PROJECTNAME
  1

  0
ENDSEC
  0
SECTION
  2
CLASSES
  0
CLASS
  1
ACDBDICTIONARYWDFLT
  2
AcDbDictionaryWithDefault
  3
ObjectDBX Classes
 90
        0
 91
        1
280
     0
281
     0
  0
CLASS
  1
VISUALSTYLE
  2
AcDbVisualStyle
  3
ObjectDBX Classes
 90
     4095
 91
       16
280
     0
281
     0
  0
CLASS
  1
SCALE
  2
AcDbScale
  3
ObjectDBX Classes
 90
     1153
 91
       33
280
     0
281
     0
  0
CLASS
  1
TABLESTYLE
  2
AcDbTableStyle
  3
ObjectDBX Classes
 90
     2047
 91
        1
280
     0
281
     0
  0
CLASS
  1
DICTIONARYVAR
  2
AcDbDictionaryVar
  3
ObjectDBX Classes
 90
        0
 91
        1
280
     0
281
     0
  0
ENDSEC
  0
SECTION
  2
TABLES
  0
TABLE
  2
VPORT
  5
8
330
0
100
AcDbSymbolTable
 70
     2
  0
VPORT
  5
8D
330
8
100
AcDbSymbolTableRecord
100
AcDbViewportTableRecord
  2
*Active
 70
     0
 10
0.0
 20
0.0
 11
1.0
 21
1.0
 12
-1936.353899092684
 22
574.0481173137636
 13
0.0
 23
0.0
 14
0.5
 24
0.5
 15
0.5
 25
0.5
 16
0.0
 26
0.0
 36
1.0
 17
0.0
 27
0.0
 37
0.0
 40
3465.462049442927
 41
2.03422619047619
 42
50.0
 43
0.0
 44
0.0
 50
0.0
 51
0.0
 71
     0
 72
   100
 73
     1
 74
     3
 75
     0
 76
     0
 77
     0
 78
     0
281
     0
 65
     1
110
0.0
120
0.0
130
0.0
111
1.0
121
0.0
131
0.0
112
0.0
122
1.0
132
0.0
 79
     0
146
0.0
  0
ENDTAB
  0
TABLE
  2
LTYPE
  5
5
330
0
100
AcDbSymbolTable
 70
     1
  0
LTYPE
  5
14
330
5
100
AcDbSymbolTableRecord
100
AcDbLinetypeTableRecord
  2
ByBlock
 70
     0
  3

 72
    65
 73
     0
 40
0.0
  0
LTYPE
  5
15
330
5
100
AcDbSymbolTableRecord
100
AcDbLinetypeTableRecord
  2
ByLayer
 70
     0
  3

 72
    65
 73
     0
 40
0.0
  0
LTYPE
  5
16
330
5
100
AcDbSymbolTableRecord
100
AcDbLinetypeTableRecord
  2
Continuous
 70
     0
  3
Solid line
 72
    65
 73
     0
 40
0.0
  0
ENDTAB
  0
TABLE
  2
LAYER
  5
2
330
0
100
AcDbSymbolTable
 70
     2
  0
LAYER
  5
10
330
2
100
AcDbSymbolTableRecord
100
AcDbLayerTableRecord
  2
0
 70
     0
 62
     7
  6
Continuous
370
    -3
390
F
  0
LAYER
  5
5E
330
2
100
AcDbSymbolTableRecord
100
AcDbLayerTableRecord
  2
layer 1
 70
     0
 62
     7
  6
Continuous
370
    -3
390
F
  0
ENDTAB
  0
TABLE
  2
STYLE
  5
3
330
0
100
AcDbSymbolTable
 70
     1
  0
STYLE
  5
11
330
3
100
AcDbSymbolTableRecord
100
AcDbTextStyleTableRecord
  2
Standard
 70
     0
 40
0.0
 41
1.0
 50
0.0
 71
     0
 42
0.2
  3
txt
  4

  0
ENDTAB
  0
TABLE
  2
VIEW
  5
6
330
0
100
AcDbSymbolTable
 70
     0
  0
ENDTAB
  0
TABLE
  2
UCS
  5
7
330
0
100
AcDbSymbolTable
 70
     0
  0
ENDTAB
  0
TABLE
  2
APPID
  5
9
330
0
100
AcDbSymbolTable
 70
     2
  0
APPID
  5
12
330
9
100
AcDbSymbolTableRecord
100
AcDbRegAppTableRecord
  2
ACAD
 70
     0
  0
APPID
  5
5D
330
9
100
AcDbSymbolTableRecord
100
AcDbRegAppTableRecord
  2
ODA
 70
     0
  0
ENDTAB
  0
TABLE
  2
DIMSTYLE
  5
A
330
0
100
AcDbSymbolTable
 70
     1
100
AcDbDimStyleTable
 71
     0
  0
DIMSTYLE
105
27
330
A
100
AcDbSymbolTableRecord
100
AcDbDimStyleTableRecord
  2
Standard
 70
     0
340
11
  0
ENDTAB
  0
TABLE
  2
BLOCK_RECORD
  5
1
330
0
100
AcDbSymbolTable
 70
     1
  0
BLOCK_RECORD
  5
1F
330
1
100
AcDbSymbolTableRecord
100
AcDbBlockTableRecord
  2
*Model_Space
340
22
  0
BLOCK_RECORD
  5
1B
330
1
100
AcDbSymbolTableRecord
100
AcDbBlockTableRecord
  2
*Paper_Space
340
1E
  0
BLOCK_RECORD
  5
23
330
1
100
AcDbSymbolTableRecord
100
AcDbBlockTableRecord
  2
*Paper_Space0
340
26
  0
ENDTAB
  0
ENDSEC
  0
SECTION
  2
BLOCKS
  0
BLOCK
  5
20
330
1F
100
AcDbEntity
  8
0
100
AcDbBlockBegin
  2
*Model_Space
 70
     0
 10
0.0
 20
0.0
 30
0.0
  3
*Model_Space
  1

  0
ENDBLK
  5
21
330
1F
100
AcDbEntity
  8
0
100
AcDbBlockEnd
  0
BLOCK
  5
1C
330
1B
100
AcDbEntity
 67
     1
  8
0
100
AcDbBlockBegin
  2
*Paper_Space
 70
     0
 10
0.0
 20
0.0
 30
0.0
  3
*Paper_Space
  1

  0
ENDBLK
  5
1D
330
1B
100
AcDbEntity
 67
     1
  8
0
100
AcDbBlockEnd
  0
BLOCK
  5
24
330
23
100
AcDbEntity
  8
0
100
AcDbBlockBegin
  2
*Paper_Space0
 70
     0
 10
0.0
 20
0.0
 30
0.0
  3
*Paper_Space0
  1

  0
ENDBLK
  5
25
330
23
100
AcDbEntity
  8
0
100
AcDbBlockEnd
  0
ENDSEC
  0
SECTION
  2
ENTITIES
  0
SPLINE
  5
5F
330
1F
100
AcDbEntity
  8
layer 1
100
AcDbSpline
210
0.0
220
0.0
230
1.0
 70
    11
 71
     3
 72
    56
 73
    52
 74
     0
 42
0.0000000001
 43
0.0000000001
 40
0.0
 40
0.0
 40
0.0
 40
0.0
 40
0.0769230769230769
 40
0.0769230769230769
 40
0.0769230769230769
 40
0.0769230769230769
 40
0.1538461538461539
 40
0.1538461538461539
 40
0.1538461538461539
 40
0.1538461538461539
 40
0.2307692307692308
 40
0.2307692307692308
 40
0.2307692307692308
 40
0.2307692307692308
 40
0.3076923076923077
 40
0.3076923076923077
 40
0.3076923076923077
 40
0.3076923076923077
 40
0.3846153846153846
 40
0.3846153846153846
 40
0.3846153846153846
 40
0.3846153846153846
 40
0.4615384615384616
 40
0.4615384615384616
 40
0.4615384615384616
 40
0.4615384615384616
 40
0.5384615384615385
 40
0.5384615384615385
 40
0.5384615384615385
 40
0.5384615384615385
 40
0.6153846153846155
 40
0.6153846153846155
 40
0.6153846153846155
 40
0.6153846153846155
 40
0.6923076923076924
 40
0.6923076923076924
 40
0.6923076923076924
 40
0.6923076923076924
 40
0.7692307692307692
 40
0.7692307692307692
 40
0.7692307692307692
 40
0.7692307692307692
 40
0.8461538461538459
 40
0.8461538461538459
 40
0.8461538461538459
 40
0.8461538461538459
 40
0.9230769230769228
 40
0.9230769230769228
 40
0.9230769230769228
 40
0.9230769230769228
 40
1.0
 40
1.0
 40
1.0
 40
1.0
 10
-3496.5386
 20
588.4107
 30
0.0
 10
-3496.5386
 20
554.2222999999999
 30
0.0
 10
-3496.5386
 20
520.0339
 30
0.0
 10
-3496.5386
 20
485.8455
 30
0.0
 10
-3496.5386
 20
485.8455
 30
0.0
 10
-3501.9487
 20
485.8455
 30
0.0
 10
-3507.3843
 20
485.8455
 30
0.0
 10
-3512.7945
 20
485.8455
 30
0.0
 10
-3512.7945
 20
485.8455
 30
0.0
 10
-3534.2576
 20
544.9512999999999
 30
0.0
 10
-3565.7281
 20
574.7708999999999
 30
0.0
 10
-3607.2063
 20
575.3804999999999
 30
0.0
 10
-3607.2063
 20
575.3804999999999
 30
0.0
 10
-3656.0505
 20
575.3804999999999
 30
0.0
 10
-3680.4599
 20
532.5053
 30
0.0
 10
-3680.4599
 20
446.7802999999999
 30
0.0
 10
-3680.4599
 20
446.7802999999999
 30
0.0
 10
-3679.418500000001
 20
362.2491
 30
0.0
 10
-3651.1991
 20
319.3739
 30
0.0
 10
-3595.8272
 20
318.1801
 30
0.0
 10
-3595.8272
 20
318.1801
 30
0.0
 10
-3540.480500000001
 20
319.2723
 30
0.0
 10
-3510.6355
 20
351.8351
 30
0.0
 10
-3506.2921
 20
415.8431
 30
0.0
 10
-3506.2921
 20
415.8431
 30
0.0
 10
-3499.7898
 20
415.8431
 30
0.0
 10
-3493.2619
 20
415.8431
 30
0.0
 10
-3486.7595
 20
415.8431
 30
0.0
 10
-3486.7595
 20
415.8431
 30
0.0
 10
-3488.8931
 20
339.1097
 30
0.0
 10
-3528.4917
 20
301.1367
 30
0.0
 10
-3605.5807
 20
301.8987
 30
0.0
 10
-3605.5807
 20
301.8987
 30
0.0
 10
-3703.878700000001
 20
303.8037
 30
0.0
 10
-3752.5197
 20
352.6479
 30
0.0
 10
-3751.554500000001
 20
448.3805
 30
0.0
 10
-3751.554500000001
 20
448.3805
 30
0.0
 10
-3749.776600000001
 20
539.6427
 30
0.0
 10
-3702.786500000001
 20
588.3599
 30
0.0
 10
-3610.5592
 20
594.5574999999999
 30
0.0
 10
-3610.5592
 20
594.5574999999999
 30
0.0
 10
-3584.9305
 20
595.9545
 30
0.0
 10
-3557.778
 20
587.9280999999999
 30
0.0
 10
-3529.076
 20
570.5036999999999
 30
0.0
 10
-3529.076
 20
570.5036999999999
 30
0.0
 10
-3523.6657
 20
576.4727
 30
0.0
 10
-3518.2301
 20
582.4416999999999
 30
0.0
 10
-3512.7945
 20
588.4107
 30
0.0
 10
-3512.7945
 20
588.4107
 30
0.0
 10
-3507.3843
 20
588.4107
 30
0.0
 10
-3501.9487
 20
588.4107
 30
0.0
 10
-3496.5386
 20
588.4107
 30
0.0
  0
SPLINE
  5
60
330
1F
100
AcDbEntity
  8
layer 1
100
AcDbSpline
210
0.0
220
0.0
230
1.0
 70
    11
 71
     3
 72
    96
 73
    92
 74
     0
 42
0.0000000001
 43
0.0000000001
 40
0.0
 40
0.0
 40
0.0
 40
0.0
 40
0.0434782608695652
 40
0.0434782608695652
 40
0.0434782608695652
 40
0.0434782608695652
 40
0.0869565217391304
 40
0.0869565217391304
 40
0.0869565217391304
 40
0.0869565217391304
 40
0.1304347826086956
 40
0.1304347826086956
 40
0.1304347826086956
 40
0.1304347826086956
 40
0.1739130434782609
 40
0.1739130434782609
 40
0.1739130434782609
 40
0.1739130434782609
 40
0.2173913043478261
 40
0.2173913043478261
 40
0.2173913043478261
 40
0.2173913043478261
 40
0.2608695652173913
 40
0.2608695652173913
 40
0.2608695652173913
 40
0.2608695652173913
 40
0.3043478260869565
 40
0.3043478260869565
 40
0.3043478260869565
 40
0.3043478260869565
 40
0.3478260869565217
 40
0.3478260869565217
 40
0.3478260869565217
 40
0.3478260869565217
 40
0.3913043478260869
 40
0.3913043478260869
 40
0.3913043478260869
 40
0.3913043478260869
 40
0.4347826086956522
 40
0.4347826086956522
 40
0.4347826086956522
 40
0.4347826086956522
 40
0.4782608695652173
 40
0.4782608695652173
 40
0.4782608695652173
 40
0.4782608695652173
 40
0.5217391304347825
 40
0.5217391304347825
 40
0.5217391304347825
 40
0.5217391304347825
 40
0.5652173913043477
 40
0.5652173913043477
 40
0.5652173913043477
 40
0.5652173913043477
 40
0.6086956521739129
 40
0.6086956521739129
 40
0.6086956521739129
 40
0.6086956521739129
 40
0.6521739130434781
 40
0.6521739130434781
 40
0.6521739130434781
 40
0.6521739130434781
 40
0.6956521739130432
 40
0.6956521739130432
 40
0.6956521739130432
 40
0.6956521739130432
 40
0.7391304347826085
 40
0.7391304347826085
 40
0.7391304347826085
 40
0.7391304347826085
 40
0.7826086956521737
 40
0.7826086956521737
 40
0.7826086956521737
 40
0.7826086956521737
 40
0.8260869565217387
 40
0.8260869565217387
 40
0.8260869565217387
 40
0.8260869565217387
 40
0.8695652173913041
 40
0.8695652173913041
 40
0.8695652173913041
 40
0.8695652173913041
 40
0.9130434782608691
 40
0.9130434782608691
 40
0.9130434782608691
 40
0.9130434782608691
 40
0.9565217391304344
 40
0.9565217391304344
 40
0.9565217391304344
 40
0.9565217391304344
 40
1.0
 40
1.0
 40
1.0
 40
1.0
 10
-2912.2623
 20
595.0655
 30
0.0
 10
-2912.2623
 20
595.0655
 30
0.0
 10
-2912.2623
 20
595.0655
 30
0.0
 10
-2912.2623
 20
595.0655
 30
0.0
 10
-2912.2623
 20
595.0655
 30
0.0
 10
-2911.1701
 20
560.0896999999999
 30
0.0
 10
-2910.0525
 20
525.0884999999999
 30
0.0
 10
-2908.9349
 20
490.0873
 30
0.0
 10
-2908.9349
 20
490.0873
 30
0.0
 10
-2915.0563
 20
490.0873
 30
0.0
 10
-2921.152300000001
 20
490.0873
 30
0.0
 10
-2927.2737
 20
490.0873
 30
0.0
 10
-2927.2737
 20
490.0873
 30
0.0
 10
-2942.8185
 20
546.7546999999999
 30
0.0
 10
-2976.1687
 20
575.0757
 30
0.0
 10
-3027.2735
 20
575.0757
 30
0.0
 10
-3027.2735
 20
575.0757
 30
0.0
 10
-3050.641500000001
 20
574.4660999999999
 30
0.0
 10
-3062.3001
 20
565.5761
 30
0.0
 10
-3062.2747
 20
548.4056999999999
 30
0.0
 10
-3062.2747
 20
548.4056999999999
 30
0.0
 10
-3062.2747
 20
520.6434999999999
 30
0.0
 10
-3062.2747
 20
492.8558999999999
 30
0.0
 10
-3062.2747
 20
465.0682999999999
 30
0.0
 10
-3062.2747
 20
465.0682999999999
 30
0.0
 10
-3022.2443
 20
465.4239
 30
0.0
 10
-3000.0193
 20
482.0863
 30
0.0
 10
-2995.599700000001
 20
515.0809
 30
0.0
 10
-2995.599700000001
 20
515.0809
 30
0.0
 10
-2990.0371
 20
515.0809
 30
0.0
 10
-2984.4999
 20
515.0809
 30
0.0
 10
-2978.9373
 20
515.0809
 30
0.0
 10
-2978.9373
 20
515.0809
 30
0.0
 10
-2978.9373
 20
475.6346999999999
 30
0.0
 10
-2978.9373
 20
436.1885
 30
0.0
 10
-2978.9373
 20
396.7423
 30
0.0
 10
-2978.9373
 20
396.7423
 30
0.0
 10
-2984.4999
 20
396.7423
 30
0.0
 10
-2990.0371
 20
396.7423
 30
0.0
 10
-2995.599700000001
 20
396.7423
 30
0.0
 10
-2995.599700000001
 20
396.7423
 30
0.0
 10
-2999.3843
 20
428.4415
 30
0.0
 10
-3021.6093
 20
445.1039
 30
0.0
 10
-3062.2747
 20
446.7548999999999
 30
0.0
 10
-3062.2747
 20
446.7548999999999
 30
0.0
 10
-3062.2747
 20
413.9635
 30
0.0
 10
-3062.2747
 20
381.1975
 30
0.0
 10
-3062.2747
 20
348.4061
 30
0.0
 10
-3062.2747
 20
348.4061
 30
0.0
 10
-3062.1477
 20
330.8039
 30
0.0
 10
-3050.4891
 20
321.9139
 30
0.0
 10
-3027.2735
 20
321.7361
 30
0.0
 10
-3027.2735
 20
321.7361
 30
0.0
 10
-2971.7237
 20
322.8537
 30
0.0
 10
-2936.1637
 20
353.4099
 30
0.0
 10
-2920.5935
 20
413.4046999999999
 30
0.0
 10
-2920.5935
 20
413.4046999999999
 30
0.0
 10
-2914.4975
 20
413.4046999999999
 30
0.0
 10
-2908.3761
 20
413.4046999999999
 30
0.0
 10
-2902.2801
 20
413.4046999999999
 30
0.0
 10
-2902.2801
 20
413.4046999999999
 30
0.0
 10
-2903.3723
 20
376.1937
 30
0.0
 10
-2904.4899
 20
338.9573
 30
0.0
 10
-2905.6075
 20
301.7463
 30
0.0
 10
-2905.6075
 20
301.7463
 30
0.0
 10
-2995.599700000001
 20
301.7463
 30
0.0
 10
-3085.6173
 20
301.7463
 30
0.0
 10
-3175.6095
 20
301.7463
 30
0.0
 10
-3175.6095
 20
301.7463
 30
0.0
 10
-3175.6095
 20
307.3089
 30
0.0
 10
-3175.6095
 20
312.8461
 30
0.0
 10
-3175.6095
 20
318.4087
 30
0.0
 10
-3175.6095
 20
318.4087
 30
0.0
 10
-3147.8727
 20
319.3739
 30
0.0
 10
-3133.9789
 20
328.8227
 30
0.0
 10
-3133.9281
 20
346.7551
 30
0.0
 10
-3133.9281
 20
346.7551
 30
0.0
 10
-3133.9281
 20
414.5222999999999
 30
0.0
 10
-3133.9281
 20
482.2894999999999
 30
0.0
 10
-3133.9281
 20
550.0821
 30
0.0
 10
-3133.9281
 20
550.0821
 30
0.0
 10
-3133.9281
 20
568.1923
 30
0.0
 10
-3147.7966
 20
577.6156999999999
 30
0.0
 10
-3175.6095
 20
578.4030999999999
 30
0.0
 10
-3175.6095
 20
578.4030999999999
 30
0.0
 10
-3175.6095
 20
583.9656999999999
 30
0.0
 10
-3175.6095
 20
589.5282999999999
 30
0.0
 10
-3175.6095
 20
595.0655
 30
0.0
 10
-3175.6095
 20
595.0655
 30
0.0
 10
-3087.8271
 20
595.0655
 30
0.0
 10
-3000.0447
 20
595.0655
 30
0.0
 10
-2912.2623
 20
595.0655
 30
0.0
  0
SPLINE
  5
61
330
1F
100
AcDbEntity
  8
layer 1
100
AcDbSpline
210
0.0
220
0.0
230
1.0
 70
    11
 71
     3
 72
    88
 73
    84
 74
     0
 42
0.0000000001
 43
0.0000000001
 40
0.0
 40
0.0
 40
0.0
 40
0.0
 40
0.0476190476190476
 40
0.0476190476190476
 40
0.0476190476190476
 40
0.0476190476190476
 40
0.0952380952380952
 40
0.0952380952380952
 40
0.0952380952380952
 40
0.0952380952380952
 40
0.1428571428571428
 40
0.1428571428571428
 40
0.1428571428571428
 40
0.1428571428571428
 40
0.1904761904761905
 40
0.1904761904761905
 40
0.1904761904761905
 40
0.1904761904761905
 40
0.2380952380952381
 40
0.2380952380952381
 40
0.2380952380952381
 40
0.2380952380952381
 40
0.2857142857142857
 40
0.2857142857142857
 40
0.2857142857142857
 40
0.2857142857142857
 40
0.3333333333333333
 40
0.3333333333333333
 40
0.3333333333333333
 40
0.3333333333333333
 40
0.3809523809523809
 40
0.3809523809523809
 40
0.3809523809523809
 40
0.3809523809523809
 40
0.4285714285714285
 40
0.4285714285714285
 40
0.4285714285714285
 40
0.4285714285714285
 40
0.4761904761904762
 40
0.4761904761904762
 40
0.4761904761904762
 40
0.4761904761904762
 40
0.5238095238095238
 40
0.5238095238095238
 40
0.5238095238095238
 40
0.5238095238095238
 40
0.5714285714285714
 40
0.5714285714285714
 40
0.5714285714285714
 40
0.5714285714285714
 40
0.6190476190476191
 40
0.6190476190476191
 40
0.6190476190476191
 40
0.6190476190476191
 40
0.6666666666666668
 40
0.6666666666666668
 40
0.6666666666666668
 40
0.6666666666666668
 40
0.7142857142857145
 40
0.7142857142857145
 40
0.7142857142857145
 40
0.7142857142857145
 40
0.7619047619047621
 40
0.7619047619047621
 40
0.7619047619047621
 40
0.7619047619047621
 40
0.8095238095238098
 40
0.8095238095238098
 40
0.8095238095238098
 40
0.8095238095238098
 40
0.8571428571428574
 40
0.8571428571428574
 40
0.8571428571428574
 40
0.8571428571428574
 40
0.9047619047619052
 40
0.9047619047619052
 40
0.9047619047619052
 40
0.9047619047619052
 40
0.9523809523809527
 40
0.9523809523809527
 40
0.9523809523809527
 40
0.9523809523809527
 40
1.0
 40
1.0
 40
1.0
 40
1.0
 10
-2712.2627
 20
301.7463
 30
0.0
 10
-2712.2627
 20
301.7463
 30
0.0
 10
-2712.2627
 20
301.7463
 30
0.0
 10
-2712.2627
 20
301.7463
 30
0.0
 10
-2712.2627
 20
301.7463
 30
0.0
 10
-2765.6027
 20
301.7463
 30
0.0
 10
-2818.9427
 20
301.7463
 30
0.0
 10
-2872.2827
 20
301.7463
 30
0.0
 10
-2872.2827
 20
301.7463
 30
0.0
 10
-2872.2827
 20
307.3089
 30
0.0
 10
-2872.2827
 20
312.8461
 30
0.0
 10
-2872.2827
 20
318.4087
 30
0.0
 10
-2872.2827
 20
318.4087
 30
0.0
 10
-2844.495100000001
 20
319.0945
 30
0.0
 10
-2830.6013
 20
328.5433
 30
0.0
 10
-2830.6013
 20
346.7551
 30
0.0
 10
-2830.6013
 20
346.7551
 30
0.0
 10
-2830.6013
 20
414.5222999999999
 30
0.0
 10
-2830.6013
 20
482.2894999999999
 30
0.0
 10
-2830.6013
 20
550.0821
 30
0.0
 10
-2830.6013
 20
550.0821
 30
0.0
 10
-2830.8299
 20
567.2525
 30
0.0
 10
-2844.6983
 20
576.7012999999999
 30
0.0
 10
-2872.2827
 20
578.4030999999999
 30
0.0
 10
-2872.2827
 20
578.4030999999999
 30
0.0
 10
-2872.2827
 20
583.9656999999999
 30
0.0
 10
-2872.2827
 20
589.5282999999999
 30
0.0
 10
-2872.2827
 20
595.0655
 30
0.0
 10
-2872.2827
 20
595.0655
 30
0.0
 10
-2784.5003
 20
595.0655
 30
0.0
 10
-2696.7179
 20
595.0655
 30
0.0
 10
-2608.9355
 20
595.0655
 30
0.0
 10
-2608.9355
 20
595.0655
 30
0.0
 10
-2607.817900000001
 20
560.0896999999999
 30
0.0
 10
-2606.7257
 20
525.0884999999999
 30
0.0
 10
-2605.6081
 20
490.0873
 30
0.0
 10
-2605.6081
 20
490.0873
 30
0.0
 10
-2611.7041
 20
490.0873
 30
0.0
 10
-2617.8255
 20
490.0873
 30
0.0
 10
-2623.9469
 20
490.0873
 30
0.0
 10
-2623.9469
 20
490.0873
 30
0.0
 10
-2639.4917
 20
546.7546999999999
 30
0.0
 10
-2672.8165
 20
575.0757
 30
0.0
 10
-2723.9467
 20
575.0757
 30
0.0
 10
-2723.9467
 20
575.0757
 30
0.0
 10
-2746.9591
 20
574.4660999999999
 30
0.0
 10
-2758.6431
 20
565.5761
 30
0.0
 10
-2758.9479
 20
548.4056999999999
 30
0.0
 10
-2758.9479
 20
548.4056999999999
 30
0.0
 10
-2758.9479
 20
520.6434999999999
 30
0.0
 10
-2758.9479
 20
492.8558999999999
 30
0.0
 10
-2758.9479
 20
465.0682999999999
 30
0.0
 10
-2758.9479
 20
465.0682999999999
 30
0.0
 10
-2719.5017
 20
466.4144999999999
 30
0.0
 10
-2697.2767
 20
483.0769
 30
0.0
 10
-2692.2729
 20
515.0809
 30
0.0
 10
-2692.2729
 20
515.0809
 30
0.0
 10
-2686.7103
 20
515.0809
 30
0.0
 10
-2681.1731
 20
515.0809
 30
0.0
 10
-2675.6105
 20
515.0809
 30
0.0
 10
-2675.6105
 20
515.0809
 30
0.0
 10
-2675.6105
 20
475.6346999999999
 30
0.0
 10
-2675.6105
 20
436.1885
 30
0.0
 10
-2675.6105
 20
396.7423
 30
0.0
 10
-2675.6105
 20
396.7423
 30
0.0
 10
-2681.1731
 20
396.7423
 30
0.0
 10
-2686.7103
 20
396.7423
 30
0.0
 10
-2692.2729
 20
396.7423
 30
0.0
 10
-2692.2729
 20
396.7423
 30
0.0
 10
-2697.8355
 20
431.2355
 30
0.0
 10
-2720.0605
 20
447.9232999999999
 30
0.0
 10
-2758.9479
 20
446.7548999999999
 30
0.0
 10
-2758.9479
 20
446.7548999999999
 30
0.0
 10
-2758.9479
 20
413.4046999999999
 30
0.0
 10
-2758.9479
 20
380.0799
 30
0.0
 10
-2758.9479
 20
346.7551
 30
0.0
 10
-2758.9479
 20
346.7551
 30
0.0
 10
-2758.7701
 20
329.5339
 30
0.0
 10
-2743.225300000001
 20
320.0851
 30
0.0
 10
-2712.2627
 20
318.4087
 30
0.0
 10
-2712.2627
 20
318.4087
 30
0.0
 10
-2712.2627
 20
312.8461
 30
0.0
 10
-2712.2627
 20
307.3089
 30
0.0
 10
-2712.2627
 20
301.7463
 30
0.0
  0
SPLINE
  5
62
330
1F
100
AcDbEntity
  8
layer 1
100
AcDbSpline
210
0.0
220
0.0
230
1.0
 70
    11
 71
     3
 72
    88
 73
    84
 74
     0
 42
0.0000000001
 43
0.0000000001
 40
0.0
 40
0.0
 40
0.0
 40
0.0
 40
0.0476190476190476
 40
0.0476190476190476
 40
0.0476190476190476
 40
0.0476190476190476
 40
0.0952380952380952
 40
0.0952380952380952
 40
0.0952380952380952
 40
0.0952380952380952
 40
0.1428571428571428
 40
0.1428571428571428
 40
0.1428571428571428
 40
0.1428571428571428
 40
0.1904761904761905
 40
0.1904761904761905
 40
0.1904761904761905
 40
0.1904761904761905
 40
0.2380952380952381
 40
0.2380952380952381
 40
0.2380952380952381
 40
0.2380952380952381
 40
0.2857142857142857
 40
0.2857142857142857
 40
0.2857142857142857
 40
0.2857142857142857
 40
0.3333333333333333
 40
0.3333333333333333
 40
0.3333333333333333
 40
0.3333333333333333
 40
0.3809523809523809
 40
0.3809523809523809
 40
0.3809523809523809
 40
0.3809523809523809
 40
0.4285714285714285
 40
0.4285714285714285
 40
0.4285714285714285
 40
0.4285714285714285
 40
0.4761904761904762
 40
0.4761904761904762
 40
0.4761904761904762
 40
0.4761904761904762
 40
0.5238095238095238
 40
0.5238095238095238
 40
0.5238095238095238
 40
0.5238095238095238
 40
0.5714285714285714
 40
0.5714285714285714
 40
0.5714285714285714
 40
0.5714285714285714
 40
0.6190476190476191
 40
0.6190476190476191
 40
0.6190476190476191
 40
0.6190476190476191
 40
0.6666666666666668
 40
0.6666666666666668
 40
0.6666666666666668
 40
0.6666666666666668
 40
0.7142857142857145
 40
0.7142857142857145
 40
0.7142857142857145
 40
0.7142857142857145
 40
0.7619047619047621
 40
0.7619047619047621
 40
0.7619047619047621
 40
0.7619047619047621
 40
0.8095238095238098
 40
0.8095238095238098
 40
0.8095238095238098
 40
0.8095238095238098
 40
0.8571428571428574
 40
0.8571428571428574
 40
0.8571428571428574
 40
0.8571428571428574
 40
0.9047619047619052
 40
0.9047619047619052
 40
0.9047619047619052
 40
0.9047619047619052
 40
0.9523809523809527
 40
0.9523809523809527
 40
0.9523809523809527
 40
0.9523809523809527
 40
1.0
 40
1.0
 40
1.0
 40
1.0
 10
-2437.2823
 20
421.7359
 30
0.0
 10
-2437.2823
 20
421.7359
 30
0.0
 10
-2437.2823
 20
421.7359
 30
0.0
 10
-2437.2823
 20
421.7359
 30
0.0
 10
-2437.2823
 20
421.7359
 30
0.0
 10
-2437.2823
 20
428.4161
 30
0.0
 10
-2437.2823
 20
435.0709
 30
0.0
 10
-2437.2823
 20
441.7511
 30
0.0
 10
-2437.2823
 20
441.7511
 30
0.0
 10
-2382.2659
 20
441.7511
 30
0.0
 10
-2327.2749
 20
441.7511
 30
0.0
 10
-2272.2839
 20
441.7511
 30
0.0
 10
-2272.2839
 20
441.7511
 30
0.0
 10
-2272.2839
 20
435.0709
 30
0.0
 10
-2272.2839
 20
428.4161
 30
0.0
 10
-2272.2839
 20
421.7359
 30
0.0
 10
-2272.2839
 20
421.7359
 30
0.0
 10
-2300.0715
 20
420.7707
 30
0.0
 10
-2314.5241
 20
410.2297
 30
0.0
 10
-2315.6163
 20
390.0875
 30
0.0
 10
-2315.6163
 20
390.0875
 30
0.0
 10
-2315.6163
 20
360.0901
 30
0.0
 10
-2315.6163
 20
330.0673
 30
0.0
 10
-2315.6163
 20
300.0699
 30
0.0
 10
-2315.6163
 20
300.0699
 30
0.0
 10
-2321.1535
 20
300.0699
 30
0.0
 10
-2326.7161
 20
300.0699
 30
0.0
 10
-2332.2787
 20
300.0699
 30
0.0
 10
-2332.2787
 20
300.0699
 30
0.0
 10
-2338.3747
 20
306.7501
 30
0.0
 10
-2344.4961
 20
313.4049
 30
0.0
 10
-2350.6175
 20
320.0851
 30
0.0
 10
-2350.6175
 20
320.0851
 30
0.0
 10
-2376.0683
 20
304.4387
 30
0.0
 10
-2404.4147
 20
297.2251
 30
0.0
 10
-2435.6059
 20
298.4189
 30
0.0
 10
-2435.6059
 20
298.4189
 30
0.0
 10
-2526.9697
 20
303.1433
 30
0.0
 10
-2573.096100000001
 20
350.5651
 30
0.0
 10
-2573.9343
 20
440.6843
 30
0.0
 10
-2573.9343
 20
440.6843
 30
0.0
 10
-2572.3849
 20
538.1186999999999
 30
0.0
 10
-2523.0327
 20
590.5696999999999
 30
0.0
 10
-2425.8777
 20
598.0373
 30
0.0
 10
-2425.8777
 20
598.0373
 30
0.0
 10
-2405.2529
 20
599.4343
 30
0.0
 10
-2380.1578
 20
592.3477
 30
0.0
 10
-2350.6175
 20
576.7521
 30
0.0
 10
-2350.6175
 20
576.7521
 30
0.0
 10
-2345.6137
 20
581.1970999999999
 30
0.0
 10
-2340.6099
 20
585.6421
 30
0.0
 10
-2335.6061
 20
590.0870999999999
 30
0.0
 10
-2335.6061
 20
590.0870999999999
 30
0.0
 10
-2330.0435
 20
590.0870999999999
 30
0.0
 10
-2324.5063
 20
590.0870999999999
 30
0.0
 10
-2318.9437
 20
590.0870999999999
 30
0.0
 10
-2318.9437
 20
590.0870999999999
 30
0.0
 10
-2318.9437
 20
556.1780999999999
 30
0.0
 10
-2318.9437
 20
522.2945
 30
0.0
 10
-2318.9437
 20
488.4109
 30
0.0
 10
-2318.9437
 20
488.4109
 30
0.0
 10
-2324.5063
 20
488.4109
 30
0.0
 10
-2330.0435
 20
488.4109
 30
0.0
 10
-2335.6061
 20
488.4109
 30
0.0
 10
-2335.6061
 20
488.4109
 30
0.0
 10
-2353.2591
 20
548.1263
 30
0.0
 10
-2382.1389
 20
578.1236999999999
 30
0.0
 10
-2422.2709
 20
578.4030999999999
 30
0.0
 10
-2422.2709
 20
578.4030999999999
 30
0.0
 10
-2472.1311
 20
576.8537
 30
0.0
 10
-2497.1247
 20
532.9625
 30
0.0
 10
-2497.2771
 20
446.7548999999999
 30
0.0
 10
-2497.2771
 20
446.7548999999999
 30
0.0
 10
-2496.1595
 20
363.4175
 30
0.0
 10
-2474.6965
 20
319.5771
 30
0.0
 10
-2432.8373
 20
315.2337
 30
0.0
 10
-2432.8373
 20
315.2337
 30
0.0
 10
-2399.1315
 20
314.0145
 30
0.0
 10
-2382.8247
 20
333.9789
 30
0.0
 10
-2383.942300000001
 20
375.0761
 30
0.0
 10
-2383.942300000001
 20
375.0761
 30
0.0
 10
-2385.3901
 20
406.7753
 30
0.0
 10
-2403.1701
 20
422.3201
 30
0.0
 10
-2437.2823
 20
421.7359
 30
0.0
  0
SPLINE
  5
63
330
1F
100
AcDbEntity
  8
layer 1
100
AcDbSpline
210
0.0
220
0.0
230
1.0
 70
    11
 71
     3
 72
   120
 73
   116
 74
     0
 42
0.0000000001
 43
0.0000000001
 40
0.0
 40
0.0
 40
0.0
 40
0.0
 40
0.0344827586206897
 40
0.0344827586206897
 40
0.0344827586206897
 40
0.0344827586206897
 40
0.0689655172413793
 40
0.0689655172413793
 40
0.0689655172413793
 40
0.0689655172413793
 40
0.103448275862069
 40
0.103448275862069
 40
0.103448275862069
 40
0.103448275862069
 40
0.1379310344827586
 40
0.1379310344827586
 40
0.1379310344827586
 40
0.1379310344827586
 40
0.1724137931034483
 40
0.1724137931034483
 40
0.1724137931034483
 40
0.1724137931034483
 40
0.206896551724138
 40
0.206896551724138
 40
0.206896551724138
 40
0.206896551724138
 40
0.2413793103448276
 40
0.2413793103448276
 40
0.2413793103448276
 40
0.2413793103448276
 40
0.2758620689655173
 40
0.2758620689655173
 40
0.2758620689655173
 40
0.2758620689655173
 40
0.3103448275862069
 40
0.3103448275862069
 40
0.3103448275862069
 40
0.3103448275862069
 40
0.3448275862068966
 40
0.3448275862068966
 40
0.3448275862068966
 40
0.3448275862068966
 40
0.3793103448275863
 40
0.3793103448275863
 40
0.3793103448275863
 40
0.3793103448275863
 40
0.413793103448276
 40
0.413793103448276
 40
0.413793103448276
 40
0.413793103448276
 40
0.4482758620689656
 40
0.4482758620689656
 40
0.4482758620689656
 40
0.4482758620689656
 40
0.4827586206896554
 40
0.4827586206896554
 40
0.4827586206896554
 40
0.4827586206896554
 40
0.5172413793103451
 40
0.5172413793103451
 40
0.5172413793103451
 40
0.5172413793103451
 40
0.5517241379310346
 40
0.5517241379310346
 40
0.5517241379310346
 40
0.5517241379310346
 40
0.5862068965517242
 40
0.5862068965517242
 40
0.5862068965517242
 40
0.5862068965517242
 40
0.6206896551724138
 40
0.6206896551724138
 40
0.6206896551724138
 40
0.6206896551724138
 40
0.6551724137931034
 40
0.6551724137931034
 40
0.6551724137931034
 40
0.6551724137931034
 40
0.6896551724137929
 40
0.6896551724137929
 40
0.6896551724137929
 40
0.6896551724137929
 40
0.7241379310344827
 40
0.7241379310344827
 40
0.7241379310344827
 40
0.7241379310344827
 40
0.7586206896551723
 40
0.7586206896551723
 40
0.7586206896551723
 40
0.7586206896551723
 40
0.793103448275862
 40
0.793103448275862
 40
0.793103448275862
 40
0.793103448275862
 40
0.8275862068965514
 40
0.8275862068965514
 40
0.8275862068965514
 40
0.8275862068965514
 40
0.8620689655172411
 40
0.8620689655172411
 40
0.8620689655172411
 40
0.8620689655172411
 40
0.8965517241379307
 40
0.8965517241379307
 40
0.8965517241379307
 40
0.8965517241379307
 40
0.9310344827586204
 40
0.9310344827586204
 40
0.9310344827586204
 40
0.9310344827586204
 40
0.9655172413793099
 40
0.9655172413793099
 40
0.9655172413793099
 40
0.9655172413793099
 40
1.0
 40
1.0
 40
1.0
 40
1.0
 10
-2143.9377
 20
465.0682999999999
 30
0.0
 10
-2143.9377
 20
465.0682999999999
 30
0.0
 10
-2143.9377
 20
465.0682999999999
 30
0.0
 10
-2143.9377
 20
465.0682999999999
 30
0.0
 10
-2143.9377
 20
465.0682999999999
 30
0.0
 10
-2112.264
 20
465.0682999999999
 30
0.0
 10
-2080.6155
 20
465.0682999999999
 30
0.0
 10
-2048.9418
 20
465.0682999999999
 30
0.0
 10
-2048.9418
 20
465.0682999999999
 30
0.0
 10
-2048.9418
 20
493.4147
 30
0.0
 10
-2048.9418
 20
521.7356999999999
 30
0.0
 10
-2048.9418
 20
550.0821
 30
0.0
 10
-2048.9418
 20
550.0821
 30
0.0
 10
-2049.145
 20
568.0399
 30
0.0
 10
-2061.3623
 20
577.4886999999999
 30
0.0
 10
-2085.5939
 20
578.4030999999999
 30
0.0
 10
-2085.5939
 20
578.4030999999999
 30
0.0
 10
-2085.5939
 20
583.9656999999999
 30
0.0
 10
-2085.5939
 20
589.5282999999999
 30
0.0
 10
-2085.5939
 20
595.0655
 30
0.0
 10
-2085.5939
 20
595.0655
 30
0.0
 10
-2035.6067
 20
595.0655
 30
0.0
 10
-1985.5941
 20
595.0655
 30
0.0
 10
-1935.6069
 20
595.0655
 30
0.0
 10
-1935.6069
 20
595.0655
 30
0.0
 10
-1935.6069
 20
589.5282999999999
 30
0.0
 10
-1935.6069
 20
583.9656999999999
 30
0.0
 10
-1935.6069
 20
578.4030999999999
 30
0.0
 10
-1935.6069
 20
578.4030999999999
 30
0.0
 10
-1963.1405
 20
576.9299
 30
0.0
 10
-1977.0089
 20
567.4811
 30
0.0
 10
-1977.2629
 20
550.0821
 30
0.0
 10
-1977.2629
 20
550.0821
 30
0.0
 10
-1977.2629
 20
482.2894999999999
 30
0.0
 10
-1977.2629
 20
414.5222999999999
 30
0.0
 10
-1977.2629
 20
346.7551
 30
0.0
 10
-1977.2629
 20
346.7551
 30
0.0
 10
-1976.7041
 20
329.1021
 30
0.0
 10
-1962.8103
 20
319.6533
 30
0.0
 10
-1935.6069
 20
318.4087
 30
0.0
 10
-1935.6069
 20
318.4087
 30
0.0
 10
-1935.6069
 20
312.8461
 30
0.0
 10
-1935.6069
 20
307.3089
 30
0.0
 10
-1935.6069
 20
301.7463
 30
0.0
 10
-1935.6069
 20
301.7463
 30
0.0
 10
-1985.5941
 20
301.7463
 30
0.0
 10
-2035.6067
 20
301.7463
 30
0.0
 10
-2085.5939
 20
301.7463
 30
0.0
 10
-2085.5939
 20
301.7463
 30
0.0
 10
-2085.5939
 20
307.3089
 30
0.0
 10
-2085.5939
 20
312.8461
 30
0.0
 10
-2085.5939
 20
318.4087
 30
0.0
 10
-2085.5939
 20
318.4087
 30
0.0
 10
-2061.1845
 20
319.2469
 30
0.0
 10
-2048.9671
 20
328.6957
 30
0.0
 10
-2048.9418
 20
346.7551
 30
0.0
 10
-2048.9418
 20
346.7551
 30
0.0
 10
-2048.9418
 20
380.0799
 30
0.0
 10
-2048.9418
 20
413.4046999999999
 30
0.0
 10
-2048.9418
 20
446.7548999999999
 30
0.0
 10
-2048.9418
 20
446.7548999999999
 30
0.0
 10
-2080.6155
 20
446.7548999999999
 30
0.0
 10
-2112.264
 20
446.7548999999999
 30
0.0
 10
-2143.9377
 20
446.7548999999999
 30
0.0
 10
-2143.9377
 20
446.7548999999999
 30
0.0
 10
-2143.9377
 20
413.4046999999999
 30
0.0
 10
-2143.9377
 20
380.0799
 30
0.0
 10
-2143.9377
 20
346.7551
 30
0.0
 10
-2143.9377
 20
346.7551
 30
0.0
 10
-2143.6329
 20
329.1021
 30
0.0
 10
-2131.4155
 20
319.6533
 30
0.0
 10
-2107.2601
 20
318.4087
 30
0.0
 10
-2107.2601
 20
318.4087
 30
0.0
 10
-2107.2601
 20
312.8461
 30
0.0
 10
-2107.2601
 20
307.3089
 30
0.0
 10
-2107.2601
 20
301.7463
 30
0.0
 10
-2107.2601
 20
301.7463
 30
0.0
 10
-2156.714
 20
301.7463
 30
0.0
 10
-2206.1677
 20
301.7463
 30
0.0
 10
-2255.5961
 20
301.7463
 30
0.0
 10
-2255.5961
 20
301.7463
 30
0.0
 10
-2255.5961
 20
307.3089
 30
0.0
 10
-2255.5961
 20
312.8461
 30
0.0
 10
-2255.5961
 20
318.4087
 30
0.0
 10
-2255.5961
 20
318.4087
 30
0.0
 10
-2228.9007
 20
319.4501
 30
0.0
 10
-2215.5657
 20
328.8989
 30
0.0
 10
-2215.6165
 20
346.7551
 30
0.0
 10
-2215.6165
 20
346.7551
 30
0.0
 10
-2215.6165
 20
414.5222999999999
 30
0.0
 10
-2215.6165
 20
482.2894999999999
 30
0.0
 10
-2215.6165
 20
550.0821
 30
0.0
 10
-2215.6165
 20
550.0821
 30
0.0
 10
-2215.7943
 20
568.3193
 30
0.0
 10
-2229.1293
 20
577.7681
 30
0.0
 10
-2255.5961
 20
578.4030999999999
 30
0.0
 10
-2255.5961
 20
578.4030999999999
 30
0.0
 10
-2255.5961
 20
583.9656999999999
 30
0.0
 10
-2255.5961
 20
589.5282999999999
 30
0.0
 10
-2255.5961
 20
595.0655
 30
0.0
 10
-2255.5961
 20
595.0655
 30
0.0
 10
-2206.1677
 20
595.0655
 30
0.0
 10
-2156.714
 20
595.0655
 30
0.0
 10
-2107.2601
 20
595.0655
 30
0.0
 10
-2107.2601
 20
595.0655
 30
0.0
 10
-2107.2601
 20
589.5282999999999
 30
0.0
 10
-2107.2601
 20
583.9656999999999
 30
0.0
 10
-2107.2601
 20
578.4030999999999
 30
0.0
 10
-2107.2601
 20
578.4030999999999
 30
0.0
 10
-2130.9583
 20
577.3363
 30
0.0
 10
-2143.1757
 20
567.8875
 30
0.0
 10
-2143.9377
 20
550.0821
 30
0.0
 10
-2143.9377
 20
550.0821
 30
0.0
 10
-2143.9377
 20
521.7356999999999
 30
0.0
 10
-2143.9377
 20
493.4147
 30
0.0
 10
-2143.9377
 20
465.0682999999999
 30
0.0
  0
SPLINE
  5
64
330
1F
100
AcDbEntity
  8
layer 1
100
AcDbSpline
210
0.0
220
0.0
230
1.0
 70
    11
 71
     3
 72
    56
 73
    52
 74
     0
 42
0.0000000001
 43
0.0000000001
 40
0.0
 40
0.0
 40
0.0
 40
0.0
 40
0.0769230769230769
 40
0.0769230769230769
 40
0.0769230769230769
 40
0.0769230769230769
 40
0.1538461538461539
 40
0.1538461538461539
 40
0.1538461538461539
 40
0.1538461538461539
 40
0.2307692307692308
 40
0.2307692307692308
 40
0.2307692307692308
 40
0.2307692307692308
 40
0.3076923076923077
 40
0.3076923076923077
 40
0.3076923076923077
 40
0.3076923076923077
 40
0.3846153846153846
 40
0.3846153846153846
 40
0.3846153846153846
 40
0.3846153846153846
 40
0.4615384615384616
 40
0.4615384615384616
 40
0.4615384615384616
 40
0.4615384615384616
 40
0.5384615384615385
 40
0.5384615384615385
 40
0.5384615384615385
 40
0.5384615384615385
 40
0.6153846153846155
 40
0.6153846153846155
 40
0.6153846153846155
 40
0.6153846153846155
 40
0.6923076923076924
 40
0.6923076923076924
 40
0.6923076923076924
 40
0.6923076923076924
 40
0.7692307692307692
 40
0.7692307692307692
 40
0.7692307692307692
 40
0.7692307692307692
 40
0.8461538461538459
 40
0.8461538461538459
 40
0.8461538461538459
 40
0.8461538461538459
 40
0.9230769230769228
 40
0.9230769230769228
 40
0.9230769230769228
 40
0.9230769230769228
 40
1.0
 40
1.0
 40
1.0
 40
1.0
 10
-1761.4391
 20
301.7463
 30
0.0
 10
-1761.4391
 20
301.7463
 30
0.0
 10
-1761.4391
 20
301.7463
 30
0.0
 10
-1761.4391
 20
301.7463
 30
0.0
 10
-1761.4391
 20
301.7463
 30
0.0
 10
-1813.1027
 20
301.7463
 30
0.0
 10
-1864.7663
 20
301.7463
 30
0.0
 10
-1916.4299
 20
301.7463
 30
0.0
 10
-1916.4299
 20
301.7463
 30
0.0
 10
-1916.4299
 20
307.3089
 30
0.0
 10
-1916.4299
 20
312.8461
 30
0.0
 10
-1916.4299
 20
318.4087
 30
0.0
 10
-1916.4299
 20
318.4087
 30
0.0
 10
-1888.7693
 20
319.8057
 30
0.0
 10
-1874.8755
 20
329.2545
 30
0.0
 10
-1874.7739
 20
346.7551
 30
0.0
 10
-1874.7739
 20
346.7551
 30
0.0
 10
-1874.7739
 20
414.5222999999999
 30
0.0
 10
-1874.7739
 20
482.2894999999999
 30
0.0
 10
-1874.7739
 20
550.0821
 30
0.0
 10
-1874.7739
 20
550.0821
 30
0.0
 10
-1875.3074
 20
568.3955
 30
0.0
 10
-1889.2012
 20
577.8443
 30
0.0
 10
-1916.4299
 20
578.4030999999999
 30
0.0
 10
-1916.4299
 20
578.4030999999999
 30
0.0
 10
-1916.4299
 20
583.9656999999999
 30
0.0
 10
-1916.4299
 20
589.5282999999999
 30
0.0
 10
-1916.4299
 20
595.0655
 30
0.0
 10
-1916.4299
 20
595.0655
 30
0.0
 10
-1864.7663
 20
595.0655
 30
0.0
 10
-1813.1027
 20
595.0655
 30
0.0
 10
-1761.4391
 20
595.0655
 30
0.0
 10
-1761.4391
 20
595.0655
 30
0.0
 10
-1761.4391
 20
589.5282999999999
 30
0.0
 10
-1761.4391
 20
583.9656999999999
 30
0.0
 10
-1761.4391
 20
578.4030999999999
 30
0.0
 10
-1761.4391
 20
578.4030999999999
 30
0.0
 10
-1788.5918
 20
577.2600999999999
 30
0.0
 10
-1802.4856
 20
567.8366999999999
 30
0.0
 10
-1803.0952
 20
550.0821
 30
0.0
 10
-1803.0952
 20
550.0821
 30
0.0
 10
-1803.0952
 20
482.2894999999999
 30
0.0
 10
-1803.0952
 20
414.5222999999999
 30
0.0
 10
-1803.0952
 20
346.7551
 30
0.0
 10
-1803.0952
 20
346.7551
 30
0.0
 10
-1803.1205
 20
328.9751
 30
0.0
 10
-1789.2267
 20
319.5263
 30
0.0
 10
-1761.4391
 20
318.4087
 30
0.0
 10
-1761.4391
 20
318.4087
 30
0.0
 10
-1761.4391
 20
312.8461
 30
0.0
 10
-1761.4391
 20
307.3089
 30
0.0
 10
-1761.4391
 20
301.7463
 30
0.0
  0
SPLINE
  5
65
330
1F
100
AcDbEntity
  8
layer 1
100
AcDbSpline
210
0.0
220
0.0
230
1.0
 70
    11
 71
     3
 72
    68
 73
    64
 74
     0
 42
0.0000000001
 43
0.0000000001
 40
0.0
 40
0.0
 40
0.0
 40
0.0
 40
0.0625
 40
0.0625
 40
0.0625
 40
0.0625
 40
0.125
 40
0.125
 40
0.125
 40
0.125
 40
0.1875
 40
0.1875
 40
0.1875
 40
0.1875
 40
0.25
 40
0.25
 40
0.25
 40
0.25
 40
0.3125
 40
0.3125
 40
0.3125
 40
0.3125
 40
0.375
 40
0.375
 40
0.375
 40
0.375
 40
0.4375
 40
0.4375
 40
0.4375
 40
0.4375
 40
0.5
 40
0.5
 40
0.5
 40
0.5
 40
0.5625
 40
0.5625
 40
0.5625
 40
0.5625
 40
0.625
 40
0.625
 40
0.625
 40
0.625
 40
0.6875
 40
0.6875
 40
0.6875
 40
0.6875
 40
0.75
 40
0.75
 40
0.75
 40
0.75
 40
0.8125
 40
0.8125
 40
0.8125
 40
0.8125
 40
0.875
 40
0.875
 40
0.875
 40
0.875
 40
0.9375
 40
0.9375
 40
0.9375
 40
0.9375
 40
1.0
 40
1.0
 40
1.0
 40
1.0
 10
-1546.4281
 20
552.0125
 30
0.0
 10
-1546.4281
 20
552.0125
 30
0.0
 10
-1546.4281
 20
552.0125
 30
0.0
 10
-1546.4281
 20
552.0125
 30
0.0
 10
-1546.4281
 20
552.0125
 30
0.0
 10
-1546.4281
 20
499.7900999999999
 30
0.0
 10
-1546.4281
 20
447.5677
 30
0.0
 10
-1546.4281
 20
395.3453
 30
0.0
 10
-1546.4281
 20
395.3453
 30
0.0
 10
-1545.2089
 20
332.3533
 30
0.0
 10
-1581.3277
 20
301.2383
 30
0.0
 10
-1654.7591
 20
302.0257
 30
0.0
 10
-1654.7591
 20
302.0257
 30
0.0
 10
-1710.7153
 20
302.1019
 30
0.0
 10
-1739.6205
 20
323.2093
 30
0.0
 10
-1741.4493
 20
365.3479
 30
0.0
 10
-1741.4493
 20
365.3479
 30
0.0
 10
-1741.932
 20
396.0057
 30
0.0
 10
-1728.597
 20
411.5504999999999
 30
0.0
 10
-1701.4444
 20
412.0331
 30
0.0
 10
-1701.4444
 20
412.0331
 30
0.0
 10
-1674.9521
 20
411.9823
 30
0.0
 10
-1661.6171
 20
399.7649
 30
0.0
 10
-1661.4393
 20
375.3555
 30
0.0
 10
-1661.4393
 20
375.3555
 30
0.0
 10
-1661.5155
 20
353.7909
 30
0.0
 10
-1672.0819
 20
342.6657
 30
0.0
 10
-1693.1132
 20
342.0307
 30
0.0
 10
-1693.1132
 20
342.0307
 30
0.0
 10
-1699.7679
 20
342.0307
 30
0.0
 10
-1706.9816
 20
343.6817
 30
0.0
 10
-1714.7794
 20
347.0345
 30
0.0
 10
-1714.7794
 20
347.0345
 30
0.0
 10
-1707.769
 20
328.4925
 30
0.0
 10
-1691.6653
 20
319.0437
 30
0.0
 10
-1666.4431
 20
318.6881
 30
0.0
 10
-1666.4431
 20
318.6881
 30
0.0
 10
-1634.5407
 20
319.9073
 30
0.0
 10
-1618.4371
 20
334.3345
 30
0.0
 10
-1618.1069
 20
362.0205
 30
0.0
 10
-1618.1069
 20
362.0205
 30
0.0
 10
-1618.1069
 20
425.3427
 30
0.0
 10
-1618.1069
 20
488.6903
 30
0.0
 10
-1618.1069
 20
552.0125
 30
0.0
 10
-1618.1069
 20
552.0125
 30
0.0
 10
-1618.1577
 20
569.6146999999999
 30
0.0
 10
-1633.1691
 20
579.0381
 30
0.0
 10
-1663.1157
 20
580.3588999999999
 30
0.0
 10
-1663.1157
 20
580.3588999999999
 30
0.0
 10
-1663.1157
 20
585.9215
 30
0.0
 10
-1663.1157
 20
591.4587
 30
0.0
 10
-1663.1157
 20
597.0213
 30
0.0
 10
-1663.1157
 20
597.0213
 30
0.0
 10
-1610.8933
 20
597.0213
 30
0.0
 10
-1558.6709
 20
597.0213
 30
0.0
 10
-1506.4485
 20
597.0213
 30
0.0
 10
-1506.4485
 20
597.0213
 30
0.0
 10
-1506.4485
 20
591.4587
 30
0.0
 10
-1506.4485
 20
585.9215
 30
0.0
 10
-1506.4485
 20
580.3588999999999
 30
0.0
 10
-1506.4485
 20
580.3588999999999
 30
0.0
 10
-1532.2295
 20
579.3174999999999
 30
0.0
 10
-1545.5645
 20
569.8940999999999
 30
0.0
 10
-1546.4281
 20
552.0125
 30
0.0
  0
SPLINE
  5
66
330
1F
100
AcDbEntity
  8
layer 1
100
AcDbSpline
210
0.0
220
0.0
230
1.0
 70
    11
 71
     3
 72
   128
 73
   124
 74
     0
 42
0.0000000001
 43
0.0000000001
 40
0.0
 40
0.0
 40
0.0
 40
0.0
 40
0.032258064516129
 40
0.032258064516129
 40
0.032258064516129
 40
0.032258064516129
 40
0.0645161290322581
 40
0.0645161290322581
 40
0.0645161290322581
 40
0.0645161290322581
 40
0.0967741935483871
 40
0.0967741935483871
 40
0.0967741935483871
 40
0.0967741935483871
 40
0.1290322580645161
 40
0.1290322580645161
 40
0.1290322580645161
 40
0.1290322580645161
 40
0.1612903225806452
 40
0.1612903225806452
 40
0.1612903225806452
 40
0.1612903225806452
 40
0.1935483870967742
 40
0.1935483870967742
 40
0.1935483870967742
 40
0.1935483870967742
 40
0.2258064516129032
 40
0.2258064516129032
 40
0.2258064516129032
 40
0.2258064516129032
 40
0.2580645161290323
 40
0.2580645161290323
 40
0.2580645161290323
 40
0.2580645161290323
 40
0.2903225806451613
 40
0.2903225806451613
 40
0.2903225806451613
 40
0.2903225806451613
 40
0.3225806451612903
 40
0.3225806451612903
 40
0.3225806451612903
 40
0.3225806451612903
 40
0.3548387096774193
 40
0.3548387096774193
 40
0.3548387096774193
 40
0.3548387096774193
 40
0.3870967741935483
 40
0.3870967741935483
 40
0.3870967741935483
 40
0.3870967741935483
 40
0.4193548387096774
 40
0.4193548387096774
 40
0.4193548387096774
 40
0.4193548387096774
 40
0.4516129032258063
 40
0.4516129032258063
 40
0.4516129032258063
 40
0.4516129032258063
 40
0.4838709677419353
 40
0.4838709677419353
 40
0.4838709677419353
 40
0.4838709677419353
 40
0.5161290322580643
 40
0.5161290322580643
 40
0.5161290322580643
 40
0.5161290322580643
 40
0.5483870967741933
 40
0.5483870967741933
 40
0.5483870967741933
 40
0.5483870967741933
 40
0.5806451612903223
 40
0.5806451612903223
 40
0.5806451612903223
 40
0.5806451612903223
 40
0.6129032258064513
 40
0.6129032258064513
 40
0.6129032258064513
 40
0.6129032258064513
 40
0.6451612903225803
 40
0.6451612903225803
 40
0.6451612903225803
 40
0.6451612903225803
 40
0.6774193548387093
 40
0.6774193548387093
 40
0.6774193548387093
 40
0.6774193548387093
 40
0.7096774193548383
 40
0.7096774193548383
 40
0.7096774193548383
 40
0.7096774193548383
 40
0.7419354838709673
 40
0.7419354838709673
 40
0.7419354838709673
 40
0.7419354838709673
 40
0.7741935483870963
 40
0.7741935483870963
 40
0.7741935483870963
 40
0.7741935483870963
 40
0.8064516129032252
 40
0.8064516129032252
 40
0.8064516129032252
 40
0.8064516129032252
 40
0.8387096774193542
 40
0.8387096774193542
 40
0.8387096774193542
 40
0.8387096774193542
 40
0.8709677419354832
 40
0.8709677419354832
 40
0.8709677419354832
 40
0.8709677419354832
 40
0.9032258064516124
 40
0.9032258064516124
 40
0.9032258064516124
 40
0.9032258064516124
 40
0.9354838709677412
 40
0.9354838709677412
 40
0.9354838709677412
 40
0.9354838709677412
 40
0.9677419354838704
 40
0.9677419354838704
 40
0.9677419354838704
 40
0.9677419354838704
 40
1.0
 40
1.0
 40
1.0
 40
1.0
 10
-1494.7645
 20
578.4030999999999
 30
0.0
 10
-1494.7645
 20
578.4030999999999
 30
0.0
 10
-1494.7645
 20
578.4030999999999
 30
0.0
 10
-1494.7645
 20
578.4030999999999
 30
0.0
 10
-1494.7645
 20
578.4030999999999
 30
0.0
 10
-1494.7645
 20
583.9656999999999
 30
0.0
 10
-1494.7645
 20
589.5282999999999
 30
0.0
 10
-1494.7645
 20
595.0655
 30
0.0
 10
-1494.7645
 20
595.0655
 30
0.0
 10
-1445.3361
 20
595.0655
 30
0.0
 10
-1395.8823
 20
595.0655
 30
0.0
 10
-1346.4285
 20
595.0655
 30
0.0
 10
-1346.4285
 20
595.0655
 30
0.0
 10
-1346.4285
 20
589.5282999999999
 30
0.0
 10
-1346.4285
 20
583.9656999999999
 30
0.0
 10
-1346.4285
 20
578.4030999999999
 30
0.0
 10
-1346.4285
 20
578.4030999999999
 30
0.0
 10
-1369.3901
 20
576.8537
 30
0.0
 10
-1381.0741
 20
567.4049
 30
0.0
 10
-1381.4297
 20
550.0821
 30
0.0
 10
-1381.4297
 20
550.0821
 30
0.0
 10
-1381.4297
 20
519.5259
 30
0.0
 10
-1381.4297
 20
488.9696999999999
 30
0.0
 10
-1381.4297
 20
458.4134999999999
 30
0.0
 10
-1381.4297
 20
458.4134999999999
 30
0.0
 10
-1351.9911
 20
487.8521
 30
0.0
 10
-1322.5525
 20
517.2907
 30
0.0
 10
-1293.1139
 20
546.7546999999999
 30
0.0
 10
-1293.1139
 20
546.7546999999999
 30
0.0
 10
-1286.4337
 20
552.2919
 30
0.0
 10
-1283.1063
 20
558.4133
 30
0.0
 10
-1283.1063
 20
565.0680999999999
 30
0.0
 10
-1283.1063
 20
565.0680999999999
 30
0.0
 10
-1283.1063
 20
573.9580999999999
 30
0.0
 10
-1290.3199
 20
578.4030999999999
 30
0.0
 10
-1304.7725
 20
578.4030999999999
 30
0.0
 10
-1304.7725
 20
578.4030999999999
 30
0.0
 10
-1309.7763
 20
578.4030999999999
 30
0.0
 10
-1314.7801
 20
578.4030999999999
 30
0.0
 10
-1319.7839
 20
578.4030999999999
 30
0.0
 10
-1319.7839
 20
578.4030999999999
 30
0.0
 10
-1319.7839
 20
583.9656999999999
 30
0.0
 10
-1319.7839
 20
589.5282999999999
 30
0.0
 10
-1319.7839
 20
595.0655
 30
0.0
 10
-1319.7839
 20
595.0655
 30
0.0
 10
-1277.5437
 20
595.0655
 30
0.0
 10
-1235.3289
 20
595.0655
 30
0.0
 10
-1193.1141
 20
595.0655
 30
0.0
 10
-1193.1141
 20
595.0655
 30
0.0
 10
-1193.1141
 20
589.5282999999999
 30
0.0
 10
-1193.1141
 20
583.9656999999999
 30
0.0
 10
-1193.1141
 20
578.4030999999999
 30
0.0
 10
-1193.1141
 20
578.4030999999999
 30
0.0
 10
-1217.7521
 20
575.1519
 30
0.0
 10
-1236.6497
 20
567.3795
 30
0.0
 10
-1249.7815
 20
555.0859
 30
0.0
 10
-1249.7815
 20
555.0859
 30
0.0
 10
-1271.9811
 20
533.9785
 30
0.0
 10
-1294.2061
 20
512.8457
 30
0.0
 10
-1316.4311
 20
491.7383
 30
0.0
 10
-1316.4311
 20
491.7383
 30
0.0
 10
-1284.7827
 20
440.0746999999999
 30
0.0
 10
-1253.1089
 20
388.4111
 30
0.0
 10
-1221.4351
 20
336.7475
 30
0.0
 10
-1221.4351
 20
336.7475
 30
0.0
 10
-1215.1105
 20
325.4953
 30
0.0
 10
-1201.2421
 20
319.3739
 30
0.0
 10
-1179.7791
 20
318.4087
 30
0.0
 10
-1179.7791
 20
318.4087
 30
0.0
 10
-1179.7791
 20
312.8461
 30
0.0
 10
-1179.7791
 20
307.3089
 30
0.0
 10
-1179.7791
 20
301.7463
 30
0.0
 10
-1179.7791
 20
301.7463
 30
0.0
 10
-1228.6487
 20
301.7463
 30
0.0
 10
-1277.5437
 20
301.7463
 30
0.0
 10
-1326.4387
 20
301.7463
 30
0.0
 10
-1326.4387
 20
301.7463
 30
0.0
 10
-1326.4387
 20
307.3089
 30
0.0
 10
-1326.4387
 20
312.8461
 30
0.0
 10
-1326.4387
 20
318.4087
 30
0.0
 10
-1326.4387
 20
318.4087
 30
0.0
 10
-1308.9127
 20
319.2469
 30
0.0
 10
-1302.3849
 20
324.8603
 30
0.0
 10
-1306.9061
 20
335.2997
 30
0.0
 10
-1306.9061
 20
335.2997
 30
0.0
 10
-1326.7435
 20
371.3169
 30
0.0
 10
-1346.5809
 20
407.3595
 30
0.0
 10
-1366.4437
 20
443.4021
 30
0.0
 10
-1366.4437
 20
443.4021
 30
0.0
 10
-1371.4475
 20
438.9571
 30
0.0
 10
-1376.4259
 20
434.5120999999999
 30
0.0
 10
-1381.4297
 20
430.0671
 30
0.0
 10
-1381.4297
 20
430.0671
 30
0.0
 10
-1381.4297
 20
402.3048999999999
 30
0.0
 10
-1381.4297
 20
374.5173
 30
0.0
 10
-1381.4297
 20
346.7551
 30
0.0
 10
-1381.4297
 20
346.7551
 30
0.0
 10
-1381.3027
 20
328.4671
 30
0.0
 10
-1371.3205
 20
319.0437
 30
0.0
 10
-1351.4323
 20
318.4087
 30
0.0
 10
-1351.4323
 20
318.4087
 30
0.0
 10
-1351.4323
 20
312.8461
 30
0.0
 10
-1351.4323
 20
307.3089
 30
0.0
 10
-1351.4323
 20
301.7463
 30
0.0
 10
-1351.4323
 20
301.7463
 30
0.0
 10
-1399.2097
 20
301.7463
 30
0.0
 10
-1446.9871
 20
301.7463
 30
0.0
 10
-1494.7645
 20
301.7463
 30
0.0
 10
-1494.7645
 20
301.7463
 30
0.0
 10
-1494.7645
 20
307.3089
 30
0.0
 10
-1494.7645
 20
312.8461
 30
0.0
 10
-1494.7645
 20
318.4087
 30
0.0
 10
-1494.7645
 20
318.4087
 30
0.0
 10
-1466.9261
 20
319.6533
 30
0.0
 10
-1453.0323
 20
329.1021
 30
0.0
 10
-1453.1085
 20
346.7551
 30
0.0
 10
-1453.1085
 20
346.7551
 30
0.0
 10
-1453.1085
 20
414.5222999999999
 30
0.0
 10
-1453.1085
 20
482.2894999999999
 30
0.0
 10
-1453.1085
 20
550.0821
 30
0.0
 10
-1453.1085
 20
550.0821
 30
0.0
 10
-1452.9815
 20
567.6842999999999
 30
0.0
 10
-1466.8499
 20
577.1330999999999
 30
0.0
 10
-1494.7645
 20
578.4030999999999
 30
0.0
  0
SPLINE
  5
67
330
1F
100
AcDbEntity
  8
layer 1
100
AcDbSpline
210
0.0
220
0.0
230
1.0
 70
    11
 71
     3
 72
    64
 73
    60
 74
     0
 42
0.0000000001
 43
0.0000000001
 40
0.0
 40
0.0
 40
0.0
 40
0.0
 40
0.0666666666666667
 40
0.0666666666666667
 40
0.0666666666666667
 40
0.0666666666666667
 40
0.1333333333333333
 40
0.1333333333333333
 40
0.1333333333333333
 40
0.1333333333333333
 40
0.2
 40
0.2
 40
0.2
 40
0.2
 40
0.2666666666666667
 40
0.2666666666666667
 40
0.2666666666666667
 40
0.2666666666666667
 40
0.3333333333333333
 40
0.3333333333333333
 40
0.3333333333333333
 40
0.3333333333333333
 40
0.4
 40
0.4
 40
0.4
 40
0.4
 40
0.4666666666666666
 40
0.4666666666666666
 40
0.4666666666666666
 40
0.4666666666666666
 40
0.5333333333333333
 40
0.5333333333333333
 40
0.5333333333333333
 40
0.5333333333333333
 40
0.6
 40
0.6
 40
0.6
 40
0.6
 40
0.6666666666666666
 40
0.6666666666666666
 40
0.6666666666666666
 40
0.6666666666666666
 40
0.7333333333333333
 40
0.7333333333333333
 40
0.7333333333333333
 40
0.7333333333333333
 40
0.8
 40
0.8
 40
0.8
 40
0.8
 40
0.8666666666666666
 40
0.8666666666666666
 40
0.8666666666666666
 40
0.8666666666666666
 40
0.9333333333333332
 40
0.9333333333333332
 40
0.9333333333333332
 40
0.9333333333333332
 40
1.0
 40
1.0
 40
1.0
 40
1.0
 10
-928.1160000000001
 20
301.7463
 30
0.0
 10
-928.1160000000001
 20
301.7463
 30
0.0
 10
-928.1160000000001
 20
301.7463
 30
0.0
 10
-928.1160000000001
 20
301.7463
 30
0.0
 10
-928.1160000000001
 20
301.7463
 30
0.0
 10
-1009.7769
 20
301.7463
 30
0.0
 10
-1091.4379
 20
301.7463
 30
0.0
 10
-1173.0989
 20
301.7463
 30
0.0
 10
-1173.0989
 20
301.7463
 30
0.0
 10
-1173.0989
 20
307.3089
 30
0.0
 10
-1173.0989
 20
312.8461
 30
0.0
 10
-1173.0989
 20
318.4087
 30
0.0
 10
-1173.0989
 20
318.4087
 30
0.0
 10
-1145.2605
 20
319.3231
 30
0.0
 10
-1131.3667
 20
328.7465
 30
0.0
 10
-1131.4429
 20
346.7551
 30
0.0
 10
-1131.4429
 20
346.7551
 30
0.0
 10
-1131.4429
 20
414.5222999999999
 30
0.0
 10
-1131.4429
 20
482.2894999999999
 30
0.0
 10
-1131.4429
 20
550.0821
 30
0.0
 10
-1131.4429
 20
550.0821
 30
0.0
 10
-1132.0017
 20
567.7604999999999
 30
0.0
 10
-1145.8955
 20
577.2092999999999
 30
0.0
 10
-1173.0989
 20
578.4030999999999
 30
0.0
 10
-1173.0989
 20
578.4030999999999
 30
0.0
 10
-1173.0989
 20
583.9656999999999
 30
0.0
 10
-1173.0989
 20
589.5282999999999
 30
0.0
 10
-1173.0989
 20
595.0655
 30
0.0
 10
-1173.0989
 20
595.0655
 30
0.0
 10
-1121.4353
 20
595.0655
 30
0.0
 10
-1069.7717
 20
595.0655
 30
0.0
 10
-1018.1081
 20
595.0655
 30
0.0
 10
-1018.1081
 20
595.0655
 30
0.0
 10
-1018.1081
 20
589.5282999999999
 30
0.0
 10
-1018.1081
 20
583.9656999999999
 30
0.0
 10
-1018.1081
 20
578.4030999999999
 30
0.0
 10
-1018.1081
 20
578.4030999999999
 30
0.0
 10
-1045.3623
 20
577.4886999999999
 30
0.0
 10
-1059.2561
 20
568.0399
 30
0.0
 10
-1059.7641
 20
550.0821
 30
0.0
 10
-1059.7641
 20
550.0821
 30
0.0
 10
-1059.7641
 20
482.8483
 30
0.0
 10
-1059.7641
 20
415.6399
 30
0.0
 10
-1059.7641
 20
348.4061
 30
0.0
 10
-1059.7641
 20
348.4061
 30
0.0
 10
-1059.5355
 20
330.8547
 30
0.0
 10
-1049.8581
 20
322.0409
 30
0.0
 10
-1030.7319
 20
321.9901
 30
0.0
 10
-1030.7319
 20
321.9901
 30
0.0
 10
-989.3807
 20
323.5903
 30
0.0
 10
-960.1707000000001
 20
354.6291
 30
0.0
 10
-943.102
 20
415.0811
 30
0.0
 10
-943.102
 20
415.0811
 30
0.0
 10
-937.0058999999999
 20
415.0811
 30
0.0
 10
-930.8844999999999
 20
415.0811
 30
0.0
 10
-924.7631999999999
 20
415.0811
 30
0.0
 10
-924.7631999999999
 20
415.0811
 30
0.0
 10
-925.8807
 20
377.3113
 30
0.0
 10
-926.9982999999999
 20
339.5161
 30
0.0
 10
-928.1160000000001
 20
301.7463
 30
0.0
  0
SPLINE
  5
68
330
1F
100
AcDbEntity
  8
layer 1
100
AcDbSpline
210
0.0
220
0.0
230
1.0
 70
    11
 71
     3
 72
   108
 73
   104
 74
     0
 42
0.0000000001
 43
0.0000000001
 40
0.0
 40
0.0
 40
0.0
 40
0.0
 40
0.0384615384615385
 40
0.0384615384615385
 40
0.0384615384615385
 40
0.0384615384615385
 40
0.0769230769230769
 40
0.0769230769230769
 40
0.0769230769230769
 40
0.0769230769230769
 40
0.1153846153846154
 40
0.1153846153846154
 40
0.1153846153846154
 40
0.1153846153846154
 40
0.1538461538461539
 40
0.1538461538461539
 40
0.1538461538461539
 40
0.1538461538461539
 40
0.1923076923076923
 40
0.1923076923076923
 40
0.1923076923076923
 40
0.1923076923076923
 40
0.2307692307692308
 40
0.2307692307692308
 40
0.2307692307692308
 40
0.2307692307692308
 40
0.2692307692307692
 40
0.2692307692307692
 40
0.2692307692307692
 40
0.2692307692307692
 40
0.3076923076923077
 40
0.3076923076923077
 40
0.3076923076923077
 40
0.3076923076923077
 40
0.3461538461538461
 40
0.3461538461538461
 40
0.3461538461538461
 40
0.3461538461538461
 40
0.3846153846153846
 40
0.3846153846153846
 40
0.3846153846153846
 40
0.3846153846153846
 40
0.423076923076923
 40
0.423076923076923
 40
0.423076923076923
 40
0.423076923076923
 40
0.4615384615384615
 40
0.4615384615384615
 40
0.4615384615384615
 40
0.4615384615384615
 40
0.5
 40
0.5
 40
0.5
 40
0.5
 40
0.5384615384615384
 40
0.5384615384615384
 40
0.5384615384615384
 40
0.5384615384615384
 40
0.5769230769230768
 40
0.5769230769230768
 40
0.5769230769230768
 40
0.5769230769230768
 40
0.6153846153846152
 40
0.6153846153846152
 40
0.6153846153846152
 40
0.6153846153846152
 40
0.6538461538461537
 40
0.6538461538461537
 40
0.6538461538461537
 40
0.6538461538461537
 40
0.6923076923076921
 40
0.6923076923076921
 40
0.6923076923076921
 40
0.6923076923076921
 40
0.7307692307692305
 40
0.7307692307692305
 40
0.7307692307692305
 40
0.7307692307692305
 40
0.769230769230769
 40
0.769230769230769
 40
0.769230769230769
 40
0.769230769230769
 40
0.8076923076923073
 40
0.8076923076923073
 40
0.8076923076923073
 40
0.8076923076923073
 40
0.8461538461538458
 40
0.8461538461538458
 40
0.8461538461538458
 40
0.8461538461538458
 40
0.8846153846153843
 40
0.8846153846153843
 40
0.8846153846153843
 40
0.8846153846153843
 40
0.9230769230769228
 40
0.9230769230769228
 40
0.9230769230769228
 40
0.9230769230769228
 40
0.9615384615384613
 40
0.9615384615384613
 40
0.9615384615384613
 40
0.9615384615384613
 40
1.0
 40
1.0
 40
1.0
 40
1.0
 10
-797.2805
 20
301.7463
 30
0.0
 10
-797.2805
 20
301.7463
 30
0.0
 10
-797.2805
 20
301.7463
 30
0.0
 10
-797.2805
 20
301.7463
 30
0.0
 10
-797.2805
 20
301.7463
 30
0.0
 10
-833.9326999999999
 20
301.7463
 30
0.0
 10
-870.6103
 20
301.7463
 30
0.0
 10
-907.2625
 20
301.7463
 30
0.0
 10
-907.2625
 20
301.7463
 30
0.0
 10
-907.2625
 20
307.3089
 30
0.0
 10
-907.2625
 20
312.8461
 30
0.0
 10
-907.2625
 20
318.4087
 30
0.0
 10
-907.2625
 20
318.4087
 30
0.0
 10
-879.5004
 20
319.5263
 30
0.0
 10
-865.6065999999999
 20
332.8613
 30
0.0
 10
-865.6065999999999
 20
358.4137
 30
0.0
 10
-865.6065999999999
 20
358.4137
 30
0.0
 10
-865.6065999999999
 20
423.4123
 30
0.0
 10
-865.6065999999999
 20
488.4109
 30
0.0
 10
-865.6065999999999
 20
553.4094999999999
 30
0.0
 10
-865.6065999999999
 20
553.4094999999999
 30
0.0
 10
-865.6572999999999
 20
568.7256999999999
 30
0.0
 10
-878.4335
 20
577.0569
 30
0.0
 10
-903.9350999999999
 20
578.4030999999999
 30
0.0
 10
-903.9350999999999
 20
578.4030999999999
 30
0.0
 10
-903.9350999999999
 20
583.9656999999999
 30
0.0
 10
-903.9350999999999
 20
589.5282999999999
 30
0.0
 10
-903.9350999999999
 20
595.0655
 30
0.0
 10
-903.9350999999999
 20
595.0655
 30
0.0
 10
-862.8380000000001
 20
595.0655
 30
0.0
 10
-821.7152999999999
 20
595.0655
 30
0.0
 10
-780.5927
 20
595.0655
 30
0.0
 10
-780.5927
 20
595.0655
 30
0.0
 10
-760.6028999999999
 20
528.9747
 30
0.0
 10
-740.6131
 20
462.8585
 30
0.0
 10
-720.5980000000001
 20
396.7423
 30
0.0
 10
-720.5980000000001
 20
396.7423
 30
0.0
 10
-700.0493999999999
 20
462.8585
 30
0.0
 10
-679.5007
 20
528.9747
 30
0.0
 10
-658.9267999999999
 20
595.0655
 30
0.0
 10
-658.9267999999999
 20
595.0655
 30
0.0
 10
-617.2707
 20
595.0655
 30
0.0
 10
-575.6146999999999
 20
595.0655
 30
0.0
 10
-533.9333
 20
595.0655
 30
0.0
 10
-533.9333
 20
595.0655
 30
0.0
 10
-533.9333
 20
589.5282999999999
 30
0.0
 10
-533.9333
 20
583.9656999999999
 30
0.0
 10
-533.9333
 20
578.4030999999999
 30
0.0
 10
-533.9333
 20
578.4030999999999
 30
0.0
 10
-561.7716999999999
 20
577.2092999999999
 30
0.0
 10
-575.6656
 20
567.7604999999999
 30
0.0
 10
-575.6146999999999
 20
550.0821
 30
0.0
 10
-575.6146999999999
 20
550.0821
 30
0.0
 10
-575.6146999999999
 20
482.2894999999999
 30
0.0
 10
-575.6146999999999
 20
414.5222999999999
 30
0.0
 10
-575.6146999999999
 20
346.7551
 30
0.0
 10
-575.6146999999999
 20
346.7551
 30
0.0
 10
-575.437
 20
329.6101
 30
0.0
 10
-561.5685
 20
320.1613
 30
0.0
 10
-533.9333
 20
318.4087
 30
0.0
 10
-533.9333
 20
318.4087
 30
0.0
 10
-533.9333
 20
312.8461
 30
0.0
 10
-533.9333
 20
307.3089
 30
0.0
 10
-533.9333
 20
301.7463
 30
0.0
 10
-533.9333
 20
301.7463
 30
0.0
 10
-583.3871
 20
301.7463
 30
0.0
 10
-632.8155
 20
301.7463
 30
0.0
 10
-682.2693000000001
 20
301.7463
 30
0.0
 10
-682.2693000000001
 20
301.7463
 30
0.0
 10
-682.2693000000001
 20
307.3089
 30
0.0
 10
-682.2693000000001
 20
312.8461
 30
0.0
 10
-682.2693000000001
 20
318.4087
 30
0.0
 10
-682.2693000000001
 20
318.4087
 30
0.0
 10
-656.8439999999999
 20
319.6025
 30
0.0
 10
-644.0676999999999
 20
329.0513
 30
0.0
 10
-643.9408
 20
346.7551
 30
0.0
 10
-643.9408
 20
346.7551
 30
0.0
 10
-643.9408
 20
418.9672999999999
 30
0.0
 10
-643.9408
 20
491.1795
 30
0.0
 10
-643.9408
 20
563.4171
 30
0.0
 10
-643.9408
 20
563.4171
 30
0.0
 10
-671.1694999999999
 20
476.1935
 30
0.0
 10
-698.373
 20
388.9699
 30
0.0
 10
-725.6018
 20
301.7463
 30
0.0
 10
-725.6018
 20
301.7463
 30
0.0
 10
-737.8191000000001
 20
301.7463
 30
0.0
 10
-750.062
 20
301.7463
 30
0.0
 10
-762.2793
 20
301.7463
 30
0.0
 10
-762.2793
 20
301.7463
 30
0.0
 10
-788.3904999999999
 20
388.9699
 30
0.0
 10
-814.5017000000001
 20
476.1935
 30
0.0
 10
-840.613
 20
563.4171
 30
0.0
 10
-840.613
 20
563.4171
 30
0.0
 10
-840.613
 20
495.0656999999999
 30
0.0
 10
-840.613
 20
426.7397
 30
0.0
 10
-840.613
 20
358.4137
 30
0.0
 10
-840.613
 20
358.4137
 30
0.0
 10
-840.613
 20
331.7437
 30
0.0
 10
-826.1603
 20
318.4087
 30
0.0
 10
-797.2805
 20
318.4087
 30
0.0
 10
-797.2805
 20
318.4087
 30
0.0
 10
-797.2805
 20
312.8461
 30
0.0
 10
-797.2805
 20
307.3089
 30
0.0
 10
-797.2805
 20
301.7463
 30
0.0
  0
SPLINE
  5
72
330
1F
100
AcDbEntity
  8
layer 1
100
AcDbSpline
210
0.0
220
0.0
230
1.0
 70
    11
 71
     3
 72
    84
 73
    80
 74
     0
 42
0.0000000001
 43
0.0000000001
 40
0.0
 40
0.0
 40
0.0
 40
0.0
 40
0.05
 40
0.05
 40
0.05
 40
0.05
 40
0.1
 40
0.1
 40
0.1
 40
0.1
 40
0.15
 40
0.15
 40
0.15
 40
0.15
 40
0.2
 40
0.2
 40
0.2
 40
0.2
 40
0.25
 40
0.25
 40
0.25
 40
0.25
 40
0.3
 40
0.3
 40
0.3
 40
0.3
 40
0.35
 40
0.35
 40
0.35
 40
0.35
 40
0.4
 40
0.4
 40
0.4
 40
0.4
 40
0.45
 40
0.45
 40
0.45
 40
0.45
 40
0.5
 40
0.5
 40
0.5
 40
0.5
 40
0.55
 40
0.55
 40
0.55
 40
0.55
 40
0.6
 40
0.6
 40
0.6
 40
0.6
 40
0.65
 40
0.65
 40
0.65
 40
0.65
 40
0.7000000000000001
 40
0.7000000000000001
 40
0.7000000000000001
 40
0.7000000000000001
 40
0.7500000000000001
 40
0.7500000000000001
 40
0.7500000000000001
 40
0.7500000000000001
 40
0.8000000000000001
 40
0.8000000000000001
 40
0.8000000000000001
 40
0.8000000000000001
 40
0.8500000000000001
 40
0.8500000000000001
 40
0.8500000000000001
 40
0.8500000000000001
 40
0.9000000000000001
 40
0.9000000000000001
 40
0.9000000000000001
 40
0.9000000000000001
 40
0.9500000000000003
 40
0.9500000000000003
 40
0.9500000000000003
 40
0.9500000000000003
 40
1.0
 40
1.0
 40
1.0
 40
1.0
 10
-4280.0015
 20
301.8987
 30
0.0
 10
-4280.0015
 20
301.8987
 30
0.0
 10
-4280.0015
 20
301.8987
 30
0.0
 10
-4280.0015
 20
301.8987
 30
0.0
 10
-4280.0015
 20
301.8987
 30
0.0
 10
-4316.1458
 20
301.8987
 30
0.0
 10
-4352.289999999999
 20
301.8987
 30
0.0
 10
-4388.459499999999
 20
301.8987
 30
0.0
 10
-4388.459499999999
 20
301.8987
 30
0.0
 10
-4388.459499999999
 20
307.3597
 30
0.0
 10
-4388.459499999999
 20
312.8207
 30
0.0
 10
-4388.459499999999
 20
318.2817
 30
0.0
 10
-4388.459499999999
 20
318.2817
 30
0.0
 10
-4366.7679
 20
321.5583
 30
0.0
 10
-4350.232499999999
 20
339.5669
 30
0.0
 10
-4338.8787
 20
372.3075
 30
0.0
 10
-4338.8787
 20
372.3075
 30
0.0
 10
-4309.4402
 20
446.5009
 30
0.0
 10
-4280.0015
 20
520.6942999999999
 30
0.0
 10
-4250.5629
 20
594.9131
 30
0.0
 10
-4250.5629
 20
594.9131
 30
0.0
 10
-4243.831899999999
 20
594.9131
 30
0.0
 10
-4237.126299999999
 20
594.9131
 30
0.0
 10
-4230.4208
 20
594.9131
 30
0.0
 10
-4230.4208
 20
594.9131
 30
0.0
 10
-4196.334
 20
511.9820999999999
 30
0.0
 10
-4162.2471
 20
429.0511
 30
0.0
 10
-4128.1603
 20
346.0947
 30
0.0
 10
-4128.1603
 20
346.0947
 30
0.0
 10
-4121.277
 20
328.1877
 30
0.0
 10
-4108.8817
 20
318.9167
 30
0.0
 10
-4090.9747
 20
318.2817
 30
0.0
 10
-4090.9747
 20
318.2817
 30
0.0
 10
-4090.9747
 20
312.8207
 30
0.0
 10
-4090.9747
 20
307.3597
 30
0.0
 10
-4090.9747
 20
301.8987
 30
0.0
 10
-4090.9747
 20
301.8987
 30
0.0
 10
-4138.4727
 20
301.8987
 30
0.0
 10
-4185.996199999999
 20
301.8987
 30
0.0
 10
-4233.5195
 20
301.8987
 30
0.0
 10
-4233.5195
 20
301.8987
 30
0.0
 10
-4233.5195
 20
307.3597
 30
0.0
 10
-4233.5195
 20
312.8207
 30
0.0
 10
-4233.5195
 20
318.2817
 30
0.0
 10
-4233.5195
 20
318.2817
 30
0.0
 10
-4228.3379
 20
318.2817
 30
0.0
 10
-4223.1817
 20
318.2817
 30
0.0
 10
-4218.025499999999
 20
318.2817
 30
0.0
 10
-4218.025499999999
 20
318.2817
 30
0.0
 10
-4197.324499999999
 20
318.7135
 30
0.0
 10
-4190.5935
 20
329.0767
 30
0.0
 10
-4197.8834
 20
349.3713
 30
0.0
 10
-4197.8834
 20
349.3713
 30
0.0
 10
-4204.5889
 20
365.1955
 30
0.0
 10
-4211.2945
 20
381.0197
 30
0.0
 10
-4218.025499999999
 20
396.8439
 30
0.0
 10
-4218.025499999999
 20
396.8439
 30
0.0
 10
-4246.9307
 20
396.8439
 30
0.0
 10
-4275.861299999999
 20
396.8439
 30
0.0
 10
-4304.7919
 20
396.8439
 30
0.0
 10
-4304.7919
 20
396.8439
 30
0.0
 10
-4308.906699999999
 20
385.9473
 30
0.0
 10
-4313.0469
 20
375.0253
 30
0.0
 10
-4317.1871
 20
364.1033
 30
0.0
 10
-4317.1871
 20
364.1033
 30
0.0
 10
-4321.5051
 20
352.5463
 30
0.0
 10
-4323.5879
 20
343.8087
 30
0.0
 10
-4323.3847
 20
337.9159
 30
0.0
 10
-4323.3847
 20
337.9159
 30
0.0
 10
-4322.3433
 20
324.8349
 30
0.0
 10
-4314.5964
 20
318.2817
 30
0.0
 10
-4300.143699999999
 20
318.2817
 30
0.0
 10
-4300.143699999999
 20
318.2817
 30
0.0
 10
-4293.4127
 20
318.2817
 30
0.0
 10
-4286.7071
 20
318.2817
 30
0.0
 10
-4280.0015
 20
318.2817
 30
0.0
 10
-4280.0015
 20
318.2817
 30
0.0
 10
-4280.0015
 20
312.8207
 30
0.0
 10
-4280.0015
 20
307.3597
 30
0.0
 10
-4280.0015
 20
301.8987
 30
0.0
  0
SPLINE
  5
73
330
1F
100
AcDbEntity
  8
layer 1
100
AcDbSpline
210
0.0
220
0.0
230
1.0
 70
    11
 71
     3
 72
    20
 73
    16
 74
     0
 42
0.0000000001
 43
0.0000000001
 40
0.0
 40
0.0
 40
0.0
 40
0.0
 40
0.25
 40
0.25
 40
0.25
 40
0.25
 40
0.5
 40
0.5
 40
0.5
 40
0.5
 40
0.75
 40
0.75
 40
0.75
 40
0.75
 40
1.0
 40
1.0
 40
1.0
 40
1.0
 10
-4227.321899999999
 20
419.7547
 30
0.0
 10
-4227.321899999999
 20
419.7547
 30
0.0
 10
-4227.321899999999
 20
419.7547
 30
0.0
 10
-4227.321899999999
 20
419.7547
 30
0.0
 10
-4227.321899999999
 20
419.7547
 30
0.0
 10
-4239.1838
 20
449.2187
 30
0.0
 10
-4251.071
 20
478.6827
 30
0.0
 10
-4262.958199999999
 20
508.1466999999999
 30
0.0
 10
-4262.958199999999
 20
508.1466999999999
 30
0.0
 10
-4274.311899999999
 20
478.6827
 30
0.0
 10
-4285.6657
 20
449.2187
 30
0.0
 10
-4297.0449
 20
419.7547
 30
0.0
 10
-4297.0449
 20
419.7547
 30
0.0
 10
-4273.803899999999
 20
419.7547
 30
0.0
 10
-4250.5629
 20
419.7547
 30
0.0
 10
-4227.321899999999
 20
419.7547
 30
0.0
  0
SPLINE
  5
74
330
1F
100
AcDbEntity
  8
layer 1
100
AcDbSpline
210
0.0
220
0.0
230
1.0
 70
    11
 71
     3
 72
    28
 73
    24
 74
     0
 42
0.0000000001
 43
0.0000000001
 40
0.0
 40
0.0
 40
0.0
 40
0.0
 40
0.1666666666666667
 40
0.1666666666666667
 40
0.1666666666666667
 40
0.1666666666666667
 40
0.3333333333333333
 40
0.3333333333333333
 40
0.3333333333333333
 40
0.3333333333333333
 40
0.5
 40
0.5
 40
0.5
 40
0.5
 40
0.6666666666666666
 40
0.6666666666666666
 40
0.6666666666666666
 40
0.6666666666666666
 40
0.8333333333333332
 40
0.8333333333333332
 40
0.8333333333333332
 40
0.8333333333333332
 40
1.0
 40
1.0
 40
1.0
 40
1.0
 10
-3949.065
 20
546.6276999999999
 30
0.0
 10
-3949.065
 20
546.6276999999999
 30
0.0
 10
-3949.065
 20
546.6276999999999
 30
0.0
 10
-3949.065
 20
546.6276999999999
 30
0.0
 10
-3949.065
 20
546.6276999999999
 30
0.0
 10
-3949.065
 20
519.4497
 30
0.0
 10
-3949.065
 20
492.2463
 30
0.0
 10
-3949.065
 20
465.0682999999999
 30
0.0
 10
-3949.065
 20
465.0682999999999
 30
0.0
 10
-3944.6199
 20
465.0682999999999
 30
0.0
 10
-3940.1749
 20
465.0682999999999
 30
0.0
 10
-3935.7299
 20
465.0682999999999
 30
0.0
 10
-3935.7299
 20
465.0682999999999
 30
0.0
 10
-3892.4483
 20
465.0682999999999
 30
0.0
 10
-3871.3663
 20
482.8229
 30
0.0
 10
-3872.484000000001
 20
518.3320999999999
 30
0.0
 10
-3872.484000000001
 20
518.3320999999999
 30
0.0
 10
-3873.7031
 20
555.9749
 30
0.0
 10
-3889.806700000001
 20
574.8470999999999
 30
0.0
 10
-3920.7693
 20
574.9233
 30
0.0
 10
-3920.7693
 20
574.9233
 30
0.0
 10
-3939.6161
 20
574.9233
 30
0.0
 10
-3949.065
 20
565.4999
 30
0.0
 10
-3949.065
 20
546.6276999999999
 30
0.0
  0
SPLINE
  5
75
330
1F
100
AcDbEntity
  8
layer 1
100
AcDbSpline
210
0.0
220
0.0
230
1.0
 70
    11
 71
     3
 72
    52
 73
    48
 74
     0
 42
0.0000000001
 43
0.0000000001
 40
0.0
 40
0.0
 40
0.0
 40
0.0
 40
0.0833333333333333
 40
0.0833333333333333
 40
0.0833333333333333
 40
0.0833333333333333
 40
0.1666666666666667
 40
0.1666666666666667
 40
0.1666666666666667
 40
0.1666666666666667
 40
0.25
 40
0.25
 40
0.25
 40
0.25
 40
0.3333333333333333
 40
0.3333333333333333
 40
0.3333333333333333
 40
0.3333333333333333
 40
0.4166666666666666
 40
0.4166666666666666
 40
0.4166666666666666
 40
0.4166666666666666
 40
0.5
 40
0.5
 40
0.5
 40
0.5
 40
0.5833333333333333
 40
0.5833333333333333
 40
0.5833333333333333
 40
0.5833333333333333
 40
0.6666666666666666
 40
0.6666666666666666
 40
0.6666666666666666
 40
0.6666666666666666
 40
0.75
 40
0.75
 40
0.75
 40
0.75
 40
0.8333333333333333
 40
0.8333333333333333
 40
0.8333333333333333
 40
0.8333333333333333
 40
0.9166666666666667
 40
0.9166666666666667
 40
0.9166666666666667
 40
0.9166666666666667
 40
1.0
 40
1.0
 40
1.0
 40
1.0
 10
-4017.3148
 20
346.8567
 30
0.0
 10
-4017.3148
 20
346.8567
 30
0.0
 10
-4017.3148
 20
346.8567
 30
0.0
 10
-4017.3148
 20
346.8567
 30
0.0
 10
-4017.3148
 20
346.8567
 30
0.0
 10
-4017.3148
 20
414.5731
 30
0.0
 10
-4017.3148
 20
482.2640999999999
 30
0.0
 10
-4017.3148
 20
549.9551
 30
0.0
 10
-4017.3148
 20
549.9551
 30
0.0
 10
-4017.2385
 20
567.0747
 30
0.0
 10
-4030.548099999999
 20
576.5235
 30
0.0
 10
-4057.2689
 20
578.2507
 30
0.0
 10
-4057.2689
 20
578.2507
 30
0.0
 10
-4057.2689
 20
583.8133
 30
0.0
 10
-4057.2689
 20
589.3505
 30
0.0
 10
-4057.2689
 20
594.9131
 30
0.0
 10
-4057.2689
 20
594.9131
 30
0.0
 10
-4006.7737
 20
594.9131
 30
0.0
 10
-3956.2785
 20
594.9131
 30
0.0
 10
-3905.7834
 20
594.9131
 30
0.0
 10
-3905.7834
 20
594.9131
 30
0.0
 10
-3837.1018
 20
594.9638999999999
 30
0.0
 10
-3801.8973
 20
570.5544999999999
 30
0.0
 10
-3800.1193
 20
521.6848999999999
 30
0.0
 10
-3800.1193
 20
521.6848999999999
 30
0.0
 10
-3799.5351
 20
486.1502999999999
 30
0.0
 10
-3821.4299
 20
465.0682999999999
 30
0.0
 10
-3865.8291
 20
458.3880999999999
 30
0.0
 10
-3865.8291
 20
458.3880999999999
 30
0.0
 10
-3809.8475
 20
452.0127
 30
0.0
 10
-3782.4156
 20
428.0351
 30
0.0
 10
-3783.5332
 20
386.5061
 30
0.0
 10
-3783.5332
 20
386.5061
 30
0.0
 10
-3786.2255
 20
330.3213
 30
0.0
 10
-3821.9633
 20
302.1273
 30
0.0
 10
-3890.797300000001
 20
301.8987
 30
0.0
 10
-3890.797300000001
 20
301.8987
 30
0.0
 10
-3946.271
 20
301.8987
 30
0.0
 10
-4001.7699
 20
301.8987
 30
0.0
 10
-4057.2689
 20
301.8987
 30
0.0
 10
-4057.2689
 20
301.8987
 30
0.0
 10
-4057.2689
 20
307.4613
 30
0.0
 10
-4057.2689
 20
312.9985
 30
0.0
 10
-4057.2689
 20
318.5611
 30
0.0
 10
-4057.2689
 20
318.5611
 30
0.0
 10
-4030.7259
 20
319.4247
 30
0.0
 10
-4017.416299999999
 20
328.8735
 30
0.0
 10
-4017.3148
 20
346.8567
 30
0.0
  0
SPLINE
  5
76
330
1F
100
AcDbEntity
  8
layer 1
100
AcDbSpline
210
0.0
220
0.0
230
1.0
 70
    11
 71
     3
 72
    28
 73
    24
 74
     0
 42
0.0000000001
 43
0.0000000001
 40
0.0
 40
0.0
 40
0.0
 40
0.0
 40
0.1666666666666667
 40
0.1666666666666667
 40
0.1666666666666667
 40
0.1666666666666667
 40
0.3333333333333333
 40
0.3333333333333333
 40
0.3333333333333333
 40
0.3333333333333333
 40
0.5
 40
0.5
 40
0.5
 40
0.5
 40
0.6666666666666666
 40
0.6666666666666666
 40
0.6666666666666666
 40
0.6666666666666666
 40
0.8333333333333332
 40
0.8333333333333332
 40
0.8333333333333332
 40
0.8333333333333332
 40
1.0
 40
1.0
 40
1.0
 40
1.0
 10
-3949.065
 20
446.7548999999999
 30
0.0
 10
-3949.065
 20
446.7548999999999
 30
0.0
 10
-3949.065
 20
446.7548999999999
 30
0.0
 10
-3949.065
 20
446.7548999999999
 30
0.0
 10
-3949.065
 20
446.7548999999999
 30
0.0
 10
-3949.065
 20
415.6653
 30
0.0
 10
-3949.065
 20
384.6011
 30
0.0
 10
-3949.065
 20
353.5115
 30
0.0
 10
-3949.065
 20
353.5115
 30
0.0
 10
-3948.9379
 20
332.7851
 30
0.0
 10
-3938.955700000001
 20
322.3711
 30
0.0
 10
-3919.1437
 20
322.2949
 30
0.0
 10
-3919.1437
 20
322.2949
 30
0.0
 10
-3876.9289
 20
323.1331
 30
0.0
 10
-3855.8216
 20
341.8529
 30
0.0
 10
-3855.8216
 20
378.4797
 30
0.0
 10
-3855.8216
 20
378.4797
 30
0.0
 10
-3856.9392
 20
423.9965
 30
0.0
 10
-3878.0212
 20
446.7548999999999
 30
0.0
 10
-3919.092900000001
 20
446.7548999999999
 30
0.0
 10
-3919.092900000001
 20
446.7548999999999
 30
0.0
 10
-3929.0751
 20
446.7548999999999
 30
0.0
 10
-3939.0573
 20
446.7548999999999
 30
0.0
 10
-3949.065
 20
446.7548999999999
 30
0.0
  0
SPLINE
  5
77
330
1F
100
AcDbEntity
  8
layer 1
100
AcDbSpline
210
0.0
220
0.0
230
1.0
 70
    11
 71
     3
 72
    44
 73
    40
 74
     0
 42
0.0000000001
 43
0.0000000001
 40
0.0
 40
0.0
 40
0.0
 40
0.0
 40
0.1
 40
0.1
 40
0.1
 40
0.1
 40
0.2
 40
0.2
 40
0.2
 40
0.2
 40
0.3
 40
0.3
 40
0.3
 40
0.3
 40
0.4
 40
0.4
 40
0.4
 40
0.4
 40
0.5
 40
0.5
 40
0.5
 40
0.5
 40
0.6
 40
0.6
 40
0.6
 40
0.6
 40
0.7
 40
0.7
 40
0.7
 40
0.7
 40
0.8
 40
0.8
 40
0.8
 40
0.8
 40
0.9
 40
0.9
 40
0.9
 40
0.9
 40
1.0
 40
1.0
 40
1.0
 40
1.0
 10
-3474.7708
 20
594.9131
 30
0.0
 10
-3474.7708
 20
594.9131
 30
0.0
 10
-3474.7708
 20
594.9131
 30
0.0
 10
-3474.7708
 20
594.9131
 30
0.0
 10
-3474.7708
 20
594.9131
 30
0.0
 10
-3430.930400000001
 20
594.9131
 30
0.0
 10
-3387.09
 20
594.9131
 30
0.0
 10
-3343.249500000001
 20
594.9131
 30
0.0
 10
-3343.249500000001
 20
594.9131
 30
0.0
 10
-3233.2167
 20
594.9638999999999
 30
0.0
 10
-3177.9209
 20
547.2373
 30
0.0
 10
-3177.3621
 20
451.7841
 30
0.0
 10
-3177.3621
 20
451.7841
 30
0.0
 10
-3178.6321
 20
352.6479
 30
0.0
 10
-3229.4829
 20
302.6861
 30
0.0
 10
-3329.9399
 20
301.8987
 30
0.0
 10
-3329.9399
 20
301.8987
 30
0.0
 10
-3378.2
 20
301.8987
 30
0.0
 10
-3426.4853
 20
301.8987
 30
0.0
 10
-3474.7708
 20
301.8987
 30
0.0
 10
-3474.7708
 20
301.8987
 30
0.0
 10
-3474.7708
 20
307.4613
 30
0.0
 10
-3474.7708
 20
312.9985
 30
0.0
 10
-3474.7708
 20
318.5611
 30
0.0
 10
-3474.7708
 20
318.5611
 30
0.0
 10
-3447.0086
 20
318.7897
 30
0.0
 10
-3433.1402
 20
328.2385
 30
0.0
 10
-3433.1402
 20
346.8567
 30
0.0
 10
-3433.1402
 20
346.8567
 30
0.0
 10
-3433.1402
 20
414.5731
 30
0.0
 10
-3433.1402
 20
482.2640999999999
 30
0.0
 10
-3433.1402
 20
549.9551
 30
0.0
 10
-3433.1402
 20
549.9551
 30
0.0
 10
-3433.064
 20
567.7096999999999
 30
0.0
 10
-3446.957800000001
 20
577.1584999999999
 30
0.0
 10
-3474.7708
 20
578.2507
 30
0.0
 10
-3474.7708
 20
578.2507
 30
0.0
 10
-3474.7708
 20
583.8133
 30
0.0
 10
-3474.7708
 20
589.3505
 30
0.0
 10
-3474.7708
 20
594.9131
 30
0.0
  0
SPLINE
  5
78
330
1F
100
AcDbEntity
  8
layer 1
100
AcDbSpline
210
0.0
220
0.0
230
1.0
 70
    11
 71
     3
 72
    28
 73
    24
 74
     0
 42
0.0000000001
 43
0.0000000001
 40
0.0
 40
0.0
 40
0.0
 40
0.0
 40
0.1666666666666667
 40
0.1666666666666667
 40
0.1666666666666667
 40
0.1666666666666667
 40
0.3333333333333333
 40
0.3333333333333333
 40
0.3333333333333333
 40
0.3333333333333333
 40
0.5
 40
0.5
 40
0.5
 40
0.5
 40
0.6666666666666666
 40
0.6666666666666666
 40
0.6666666666666666
 40
0.6666666666666666
 40
0.8333333333333332
 40
0.8333333333333332
 40
0.8333333333333332
 40
0.8333333333333332
 40
1.0
 40
1.0
 40
1.0
 40
1.0
 10
-3364.8904
 20
544.9767
 30
0.0
 10
-3364.8904
 20
544.9767
 30
0.0
 10
-3364.8904
 20
544.9767
 30
0.0
 10
-3364.8904
 20
544.9767
 30
0.0
 10
-3364.8904
 20
544.9767
 30
0.0
 10
-3364.8904
 20
480.5876999999999
 30
0.0
 10
-3364.8904
 20
416.2240999999999
 30
0.0
 10
-3364.8904
 20
351.8605
 30
0.0
 10
-3364.8904
 20
351.8605
 30
0.0
 10
-3364.2808
 20
331.4389
 30
0.0
 10
-3351.5045
 20
321.4567
 30
0.0
 10
-3326.6125
 20
321.8885
 30
0.0
 10
-3326.6125
 20
321.8885
 30
0.0
 10
-3277.7683
 20
323.0061
 30
0.0
 10
-3253.359000000001
 20
365.1701
 30
0.0
 10
-3253.359000000001
 20
448.4059
 30
0.0
 10
-3253.359000000001
 20
448.4059
 30
0.0
 10
-3254.3749
 20
532.0481
 30
0.0
 10
-3278.7843
 20
574.2121
 30
0.0
 10
-3326.6125
 20
574.9233
 30
0.0
 10
-3326.6125
 20
574.9233
 30
0.0
 10
-3351.3775
 20
574.9233
 30
0.0
 10
-3364.1283
 20
564.9157
 30
0.0
 10
-3364.8904
 20
544.9767
 30
0.0
  0
ENDSEC
  0
SECTION
  2
OBJECTS
  0
DICTIONARY
  5
C
330
0
100
AcDbDictionary
281
     1
  3
ACAD_COLOR
350
87
  3
ACAD_GROUP
350
D
  3
ACAD_LAYOUT
350
1A
  3
ACAD_MATERIAL
350
86
  3
ACAD_MLEADERSTYLE
350
83
  3
ACAD_MLINESTYLE
350
17
  3
ACAD_PLOTSETTINGS
350
19
  3
ACAD_PLOTSTYLENAME
350
E
  3
ACAD_SCALELIST
350
3B
  3
ACAD_TABLESTYLE
350
82
  3
ACAD_VISUALSTYLE
350
2A
  3
AcDbVariableDictionary
350
8B
  0
DICTIONARY
  5
87
102
{ACAD_REACTORS
330
C
102
}
330
C
100
AcDbDictionary
281
     1
  0
DICTIONARY
  5
D
102
{ACAD_REACTORS
330
C
102
}
330
C
100
AcDbDictionary
281
     1
  0
DICTIONARY
  5
1A
102
{ACAD_REACTORS
330
C
102
}
330
C
100
AcDbDictionary
281
     1
  3
Layout1
350
1E
  3
Layout2
350
26
  3
Model
350
22
  0
DICTIONARY
  5
86
102
{ACAD_REACTORS
330
C
102
}
330
C
100
AcDbDictionary
281
     1
  0
DICTIONARY
  5
83
102
{ACAD_REACTORS
330
C
102
}
330
C
100
AcDbDictionary
281
     1
  0
DICTIONARY
  5
17
102
{ACAD_REACTORS
330
C
102
}
330
C
100
AcDbDictionary
281
     1
  3
Standard
350
18
  0
DICTIONARY
  5
19
102
{ACAD_REACTORS
330
C
102
}
330
C
100
AcDbDictionary
281
     1
  0
ACDBDICTIONARYWDFLT
  5
E
102
{ACAD_REACTORS
330
C
102
}
330
C
100
AcDbDictionary
281
     1
  3
Normal
350
F
100
AcDbDictionaryWithDefault
340
F
  0
DICTIONARY
  5
3B
102
{ACAD_REACTORS
330
C
102
}
330
C
100
AcDbDictionary
281
     1
  3
A0
350
3C
  3
A1
350
3D
  3
A2
350
3E
  3
A3
350
3F
  3
A4
350
40
  3
A5
350
41
  3
A6
350
42
  3
A7
350
43
  3
A8
350
44
  3
A9
350
45
  3
B0
350
46
  3
B1
350
47
  3
B2
350
48
  3
B3
350
49
  3
B4
350
4A
  3
B5
350
4B
  3
B6
350
4C
  3
B7
350
4D
  3
B8
350
4E
  3
B9
350
4F
  3
C0
350
50
  3
C1
350
51
  3
C2
350
52
  3
C3
350
53
  3
C4
350
54
  3
C5
350
55
  3
C6
350
56
  3
C7
350
57
  3
C8
350
58
  3
C9
350
59
  3
D0
350
5A
  3
D1
350
5B
  3
D2
350
5C
  0
DICTIONARY
  5
82
102
{ACAD_REACTORS
330
C
102
}
330
C
100
AcDbDictionary
281
     1
  3
Standard
350
88
  0
DICTIONARY
  5
2A
102
{ACAD_REACTORS
330
C
102
}
330
C
100
AcDbDictionary
281
     1
  3
2dWireframe
350
2F
  3
3D Hidden
350
31
  3
3dWireframe
350
30
  3
Basic
350
32
  3
Brighten
350
36
  3
ColorChange
350
3A
  3
Conceptual
350
34
  3
Dim
350
35
  3
Facepattern
350
39
  3
Flat
350
2B
  3
FlatWithEdges
350
2C
  3
Gouraud
350
2D
  3
GouraudWithEdges
350
2E
  3
Linepattern
350
38
  3
Realistic
350
33
  3
Thicken
350
37
  0
DICTIONARY
  5
8B
102
{ACAD_REACTORS
330
C
102
}
330
C
100
AcDbDictionary
281
     1
  3
CTABLESTYLE
350
8C
  0
LAYOUT
  5
1E
102
{ACAD_REACTORS
330
1A
102
}
330
1A
100
AcDbPlotSettings
  1

  2
none_device
  4

  6

 40
0.0
 41
0.0
 42
0.0
 43
0.0
 44
0.0
 45
0.0
 46
0.0
 47
0.0
 48
0.0
 49
0.0
140
0.0
141
0.0
142
1.0
143
1.0
 70
   688
 72
     0
 73
     0
 74
     5
  7

 75
    16
147
1.0
 76
     0
 77
     2
 78
   300
148
0.0
149
0.0
100
AcDbLayout
  1
Layout1
 70
     1
 71
     1
 10
0.0
 20
0.0
 11
12.0
 21
9.0
 12
0.0
 22
0.0
 32
0.0
 14
1.000000000000000E+20
 24
1.000000000000000E+20
 34
1.000000000000000E+20
 15
-1.000000000000000E+20
 25
-1.000000000000000E+20
 35
-1.000000000000000E+20
146
0.0
 13
0.0
 23
0.0
 33
0.0
 16
1.0
 26
0.0
 36
0.0
 17
0.0
 27
1.0
 37
0.0
 76
     0
330
1B
  0
LAYOUT
  5
26
102
{ACAD_REACTORS
330
1A
102
}
330
1A
100
AcDbPlotSettings
  1

  2
none_device
  4

  6

 40
0.0
 41
0.0
 42
0.0
 43
0.0
 44
0.0
 45
0.0
 46
0.0
 47
0.0
 48
0.0
 49
0.0
140
0.0
141
0.0
142
1.0
143
1.0
 70
   688
 72
     0
 73
     0
 74
     5
  7

 75
    16
147
1.0
 76
     0
 77
     2
 78
   300
148
0.0
149
0.0
100
AcDbLayout
  1
Layout2
 70
     1
 71
     2
 10
0.0
 20
0.0
 11
0.0
 21
0.0
 12
0.0
 22
0.0
 32
0.0
 14
0.0
 24
0.0
 34
0.0
 15
0.0
 25
0.0
 35
0.0
146
0.0
 13
0.0
 23
0.0
 33
0.0
 16
1.0
 26
0.0
 36
0.0
 17
0.0
 27
1.0
 37
0.0
 76
     0
330
23
  0
LAYOUT
  5
22
102
{ACAD_REACTORS
330
1A
102
}
330
1A
100
AcDbPlotSettings
  1

  2
none_device
  4

  6

 40
0.0
 41
0.0
 42
0.0
 43
0.0
 44
0.0
 45
0.0
 46
0.0
 47
0.0
 48
0.0
 49
0.0
140
0.0
141
0.0
142
1.0
143
1.0
 70
  1712
 72
     0
 73
     0
 74
     0
  7

 75
     0
147
1.0
 76
     0
 77
     2
 78
   300
148
0.0
149
0.0
100
AcDbLayout
  1
Model
 70
     1
 71
     0
 10
0.0
 20
0.0
 11
12.0
 21
9.0
 12
0.0
 22
0.0
 32
0.0
 14
-4388.459499999999
 24
263.3669
 34
0.0
 15
3409.3657
 25
598.4183
 35
0.0
146
0.0
 13
0.0
 23
0.0
 33
0.0
 16
1.0
 26
0.0
 36
0.0
 17
0.0
 27
1.0
 37
0.0
 76
     0
330
1F
331
29
  0
MLINESTYLE
  5
18
102
{ACAD_REACTORS
330
17
102
}
330
17
100
AcDbMlineStyle
  2
STANDARD
 70
     0
  3

 62
   256
 51
90.0
 52
90.0
 71
     2
 49
0.5
 62
   256
  6
BYLAYER
 49
-0.5
 62
   256
  6
BYLAYER
  0
ACDBPLACEHOLDER
  5
F
102
{ACAD_REACTORS
330
E
102
}
330
E
  0
SCALE
  5
3C
102
{ACAD_REACTORS
330
3B
102
}
330
3B
100
AcDbScale
 70
     0
300
1:1
140
1.0
141
1.0
290
     1
  0
SCALE
  5
3D
102
{ACAD_REACTORS
330
3B
102
}
330
3B
100
AcDbScale
 70
     0
300
1:2
140
1.0
141
2.0
290
     0
  0
SCALE
  5
3E
102
{ACAD_REACTORS
330
3B
102
}
330
3B
100
AcDbScale
 70
     0
300
1:4
140
1.0
141
4.0
290
     0
  0
SCALE
  5
3F
102
{ACAD_REACTORS
330
3B
102
}
330
3B
100
AcDbScale
 70
     0
300
1:5
140
1.0
141
5.0
290
     0
  0
SCALE
  5
40
102
{ACAD_REACTORS
330
3B
102
}
330
3B
100
AcDbScale
 70
     0
300
1:8
140
1.0
141
8.0
290
     0
  0
SCALE
  5
41
102
{ACAD_REACTORS
330
3B
102
}
330
3B
100
AcDbScale
 70
     0
300
1:10
140
1.0
141
10.0
290
     0
  0
SCALE
  5
42
102
{ACAD_REACTORS
330
3B
102
}
330
3B
100
AcDbScale
 70
     0
300
1:16
140
1.0
141
16.0
290
     0
  0
SCALE
  5
43
102
{ACAD_REACTORS
330
3B
102
}
330
3B
100
AcDbScale
 70
     0
300
1:20
140
1.0
141
20.0
290
     0
  0
SCALE
  5
44
102
{ACAD_REACTORS
330
3B
102
}
330
3B
100
AcDbScale
 70
     0
300
1:30
140
1.0
141
30.0
290
     0
  0
SCALE
  5
45
102
{ACAD_REACTORS
330
3B
102
}
330
3B
100
AcDbScale
 70
     0
300
1:40
140
1.0
141
40.0
290
     0
  0
SCALE
  5
46
102
{ACAD_REACTORS
330
3B
102
}
330
3B
100
AcDbScale
 70
     0
300
1:50
140
1.0
141
50.0
290
     0
  0
SCALE
  5
47
102
{ACAD_REACTORS
330
3B
102
}
330
3B
100
AcDbScale
 70
     0
300
1:100
140
1.0
141
100.0
290
     0
  0
SCALE
  5
48
102
{ACAD_REACTORS
330
3B
102
}
330
3B
100
AcDbScale
 70
     0
300
2:1
140
2.0
141
1.0
290
     0
  0
SCALE
  5
49
102
{ACAD_REACTORS
330
3B
102
}
330
3B
100
AcDbScale
 70
     0
300
4:1
140
4.0
141
1.0
290
     0
  0
SCALE
  5
4A
102
{ACAD_REACTORS
330
3B
102
}
330
3B
100
AcDbScale
 70
     0
300
8:1
140
8.0
141
1.0
290
     0
  0
SCALE
  5
4B
102
{ACAD_REACTORS
330
3B
102
}
330
3B
100
AcDbScale
 70
     0
300
10:1
140
10.0
141
1.0
290
     0
  0
SCALE
  5
4C
102
{ACAD_REACTORS
330
3B
102
}
330
3B
100
AcDbScale
 70
     0
300
100:1
140
100.0
141
1.0
290
     0
  0
SCALE
  5
4D
102
{ACAD_REACTORS
330
3B
102
}
330
3B
100
AcDbScale
 70
     0
300
1/128" = 1'-0"
140
0.0078125
141
12.0
290
     0
  0
SCALE
  5
4E
102
{ACAD_REACTORS
330
3B
102
}
330
3B
100
AcDbScale
 70
     0
300
1/64" = 1'-0"
140
0.015625
141
12.0
290
     0
  0
SCALE
  5
4F
102
{ACAD_REACTORS
330
3B
102
}
330
3B
100
AcDbScale
 70
     0
300
1/32" = 1'-0"
140
0.03125
141
12.0
290
     0
  0
SCALE
  5
50
102
{ACAD_REACTORS
330
3B
102
}
330
3B
100
AcDbScale
 70
     0
300
1/16" = 1'-0"
140
0.0625
141
12.0
290
     0
  0
SCALE
  5
51
102
{ACAD_REACTORS
330
3B
102
}
330
3B
100
AcDbScale
 70
     0
300
3/32" = 1'-0"
140
0.09375
141
12.0
290
     0
  0
SCALE
  5
52
102
{ACAD_REACTORS
330
3B
102
}
330
3B
100
AcDbScale
 70
     0
300
1/8" = 1'-0"
140
0.125
141
12.0
290
     0
  0
SCALE
  5
53
102
{ACAD_REACTORS
330
3B
102
}
330
3B
100
AcDbScale
 70
     0
300
3/16" = 1'-0"
140
0.1875
141
12.0
290
     0
  0
SCALE
  5
54
102
{ACAD_REACTORS
330
3B
102
}
330
3B
100
AcDbScale
 70
     0
300
1/4" = 1'-0"
140
0.25
141
12.0
290
     0
  0
SCALE
  5
55
102
{ACAD_REACTORS
330
3B
102
}
330
3B
100
AcDbScale
 70
     0
300
3/8" = 1'-0"
140
0.375
141
12.0
290
     0
  0
SCALE
  5
56
102
{ACAD_REACTORS
330
3B
102
}
330
3B
100
AcDbScale
 70
     0
300
1/2" = 1'-0"
140
0.5
141
12.0
290
     0
  0
SCALE
  5
57
102
{ACAD_REACTORS
330
3B
102
}
330
3B
100
AcDbScale
 70
     0
300
3/4" = 1'-0"
140
0.75
141
12.0
290
     0
  0
SCALE
  5
58
102
{ACAD_REACTORS
330
3B
102
}
330
3B
100
AcDbScale
 70
     0
300
1" = 1'-0"
140
1.0
141
12.0
290
     0
  0
SCALE
  5
59
102
{ACAD_REACTORS
330
3B
102
}
330
3B
100
AcDbScale
 70
     0
300
1-1/2" = 1'-0"
140
1.5
141
12.0
290
     0
  0
SCALE
  5
5A
102
{ACAD_REACTORS
330
3B
102
}
330
3B
100
AcDbScale
 70
     0
300
3" = 1'-0"
140
3.0
141
12.0
290
     0
  0
SCALE
  5
5B
102
{ACAD_REACTORS
330
3B
102
}
330
3B
100
AcDbScale
 70
     0
300
6" = 1'-0"
140
6.0
141
12.0
290
     0
  0
SCALE
  5
5C
102
{ACAD_REACTORS
330
3B
102
}
330
3B
100
AcDbScale
 70
     0
300
1'-0" = 1'-0"
140
12.0
141
12.0
290
     0
  0
TABLESTYLE
  5
88
102
{ACAD_REACTORS
330
82
102
}
330
82
100
AcDbTableStyle
  3
Standard
 70
     0
 71
     0
 40
0.06
 41
0.06
280
     0
281
     0
  7
Standard
140
0.18
170
     2
 62
     0
 63
     7
283
     0
274
    -2
284
     1
 64
     0
275
    -2
285
     1
 65
     0
276
    -2
286
     1
 66
     0
277
    -2
287
     1
 67
     0
278
    -2
288
     1
 68
     0
279
    -2
289
     1
 69
     0
  7
Standard
140
0.25
170
     5
 62
     0
 63
     7
283
     0
274
    -2
284
     1
 64
     0
275
    -2
285
     1
 65
     0
276
    -2
286
     1
 66
     0
277
    -2
287
     1
 67
     0
278
    -2
288
     1
 68
     0
279
    -2
289
     1
 69
     0
  7
Standard
140
0.18
170
     5
 62
     0
 63
     7
283
     0
274
    -2
284
     1
 64
     0
275
    -2
285
     1
 65
     0
276
    -2
286
     1
 66
     0
277
    -2
287
     1
 67
     0
278
    -2
288
     1
 68
     0
279
    -2
289
     1
 69
     0
  0
VISUALSTYLE
  5
2F
102
{ACAD_REACTORS
330
2A
102
}
330
2A
100
AcDbVisualStyle
  2
2dWireframe
 70
     4
 71
     0
 72
     2
 73
     0
 90
        0
 40
-0.6
 41
-30.0
 62
     5
 63
     7
421
 16777215
 74
     1
 91
        4
 64
     7
 65
   257
 75
     1
175
     1
 42
1.0
 92
        0
 66
   257
 43
1.0
 76
     1
 77
     6
 78
     2
 67
     7
 79
     5
170
     0
171
     0
290
     0
174
     0
 93
        1
 44
0.0
173
     0
291
     0
 45
0.0
1001
ACAD
1000
AcDbSavedByObjectVersion
1070
     0
  0
VISUALSTYLE
  5
31
102
{ACAD_REACTORS
330
2A
102
}
330
2A
100
AcDbVisualStyle
  2
3D Hidden
 70
     6
 71
     1
 72
     2
 73
     2
 90
        0
 40
-0.6
 41
-30.0
 62
     5
 63
     7
421
 16777215
 74
     2
 91
        2
 64
     7
 65
   257
 75
     2
175
     1
 42
40.0
 92
        0
 66
   257
 43
1.0
 76
     1
 77
     6
 78
     2
 67
     7
 79
     3
170
     0
171
     0
290
     0
174
     0
 93
        1
 44
0.0
173
     0
291
     0
 45
0.0
1001
ACAD
1000
AcDbSavedByObjectVersion
1070
     0
  0
VISUALSTYLE
  5
30
102
{ACAD_REACTORS
330
2A
102
}
330
2A
100
AcDbVisualStyle
  2
3dWireframe
 70
     5
 71
     0
 72
     2
 73
     0
 90
        0
 40
-0.6
 41
-30.0
 62
     5
 63
     7
421
 16777215
 74
     1
 91
        4
 64
     7
 65
   257
 75
     1
175
     1
 42
1.0
 92
        0
 66
   257
 43
1.0
 76
     1
 77
     6
 78
     2
 67
     7
 79
     5
170
     0
171
     0
290
     0
174
     0
 93
        1
 44
0.0
173
     0
291
     0
 45
0.0
1001
ACAD
1000
AcDbSavedByObjectVersion
1070
     0
  0
VISUALSTYLE
  5
32
102
{ACAD_REACTORS
330
2A
102
}
330
2A
100
AcDbVisualStyle
  2
Basic
 70
     7
 71
     1
 72
     0
 73
     1
 90
        0
 40
-0.6
 41
-30.0
 62
     5
 63
     7
421
 16777215
 74
     0
 91
        4
 64
     7
 65
   257
 75
     1
175
     1
 42
1.0
 92
        8
 66
     7
 43
1.0
 76
     1
 77
     6
 78
     2
 67
     7
 79
     5
170
     0
171
     0
290
     0
174
     0
 93
        1
 44
0.0
173
     0
291
     1
 45
0.0
1001
ACAD
1000
AcDbSavedByObjectVersion
1070
     0
  0
VISUALSTYLE
  5
36
102
{ACAD_REACTORS
330
2A
102
}
330
2A
100
AcDbVisualStyle
  2
Brighten
 70
    12
 71
     2
 72
     2
 73
     0
 90
        0
 40
-0.6
 41
-30.0
 62
     5
 63
     7
421
 16777215
 74
     1
 91
        4
 64
     7
 65
   257
 75
     1
175
     1
 42
1.0
 92
        8
 66
     7
 43
1.0
 76
     1
 77
     6
 78
     2
 67
     7
 79
     5
170
     0
171
     0
290
     0
174
     0
 93
        1
 44
50.0
173
     0
291
     1
 45
0.0
1001
ACAD
1000
AcDbSavedByObjectVersion
1070
     0
  0
VISUALSTYLE
  5
3A
102
{ACAD_REACTORS
330
2A
102
}
330
2A
100
AcDbVisualStyle
  2
ColorChange
 70
    16
 71
     2
 72
     2
 73
     3
 90
        0
 40
-0.6
 41
-30.0
 62
     5
 63
     8
421
  8421504
 74
     1
 91
        4
 64
     7
 65
   257
 75
     1
175
     1
 42
1.0
 92
        8
 66
     8
424
  8421504
 43
1.0
 76
     1
 77
     6
 78
     2
 67
     7
 79
     5
170
     0
171
     0
290
     0
174
     0
 93
        1
 44
0.0
173
     0
291
     1
 45
0.0
1001
ACAD
1000
AcDbSavedByObjectVersion
1070
     0
  0
VISUALSTYLE
  5
34
102
{ACAD_REACTORS
330
2A
102
}
330
2A
100
AcDbVisualStyle
  2
Conceptual
 70
     9
 71
     3
 72
     2
 73
     0
 90
        0
 40
-0.6
 41
-30.0
 62
     5
 63
     7
421
 16777215
 74
     2
 91
        2
 64
     7
 65
   257
 75
     1
175
     1
 42
40.0
 92
        8
 66
     7
 43
1.0
 76
     1
 77
     6
 78
     2
 67
     7
 79
     3
170
     0
171
     0
290
     0
174
     0
 93
        1
 44
0.0
173
     0
291
     0
 45
0.0
1001
ACAD
1000
AcDbSavedByObjectVersion
1070
     0
  0
VISUALSTYLE
  5
35
102
{ACAD_REACTORS
330
2A
102
}
330
2A
100
AcDbVisualStyle
  2
Dim
 70
    11
 71
     2
 72
     2
 73
     0
 90
        0
 40
-0.6
 41
-30.0
 62
     5
 63
     7
421
 16777215
 74
     1
 91
        4
 64
     7
 65
   257
 75
     1
175
     1
 42
1.0
 92
        8
 66
     7
 43
1.0
 76
     1
 77
     6
 78
     2
 67
     7
 79
     5
170
     0
171
     0
290
     0
174
     0
 93
        1
 44
-50.0
173
     0
291
     1
 45
0.0
1001
ACAD
1000
AcDbSavedByObjectVersion
1070
     0
  0
VISUALSTYLE
  5
39
102
{ACAD_REACTORS
330
2A
102
}
330
2A
100
AcDbVisualStyle
  2
Facepattern
 70
    15
 71
     2
 72
     2
 73
     0
 90
        0
 40
-0.6
 41
-30.0
 62
     5
 63
     7
421
 16777215
 74
     1
 91
        4
 64
     7
 65
   257
 75
     1
175
     1
 42
1.0
 92
        8
 66
     7
 43
1.0
 76
     1
 77
     6
 78
     2
 67
     7
 79
     5
170
     0
171
     0
290
     0
174
     0
 93
        1
 44
0.0
173
     0
291
     1
 45
0.0
1001
ACAD
1000
AcDbSavedByObjectVersion
1070
     0
  0
VISUALSTYLE
  5
2B
102
{ACAD_REACTORS
330
2A
102
}
330
2A
100
AcDbVisualStyle
  2
Flat
 70
     0
 71
     2
 72
     1
 73
     1
 90
        2
 40
-0.6
 41
30.0
 62
     5
 63
     7
421
 16777215
 74
     0
 91
        4
 64
     7
 65
   257
 75
     1
175
     1
 42
1.0
 92
        8
 66
     7
 43
1.0
 76
     1
 77
     6
 78
     2
 67
     7
 79
     5
170
     0
171
     0
290
     0
174
     0
 93
       13
 44
0.0
173
     0
291
     1
 45
0.0
1001
ACAD
1000
AcDbSavedByObjectVersion
1070
     0
  0
VISUALSTYLE
  5
2C
102
{ACAD_REACTORS
330
2A
102
}
330
2A
100
AcDbVisualStyle
  2
FlatWithEdges
 70
     1
 71
     2
 72
     1
 73
     1
 90
        2
 40
-0.6
 41
30.0
 62
     5
 63
     7
421
 16777215
 74
     1
 91
        4
 64
     7
 65
   257
 75
     1
175
     1
 42
1.0
 92
        0
 66
   257
 43
1.0
 76
     1
 77
     6
 78
     2
 67
     7
 79
     5
170
     0
171
     0
290
     0
174
     0
 93
       13
 44
0.0
173
     0
291
     1
 45
0.0
1001
ACAD
1000
AcDbSavedByObjectVersion
1070
     0
  0
VISUALSTYLE
  5
2D
102
{ACAD_REACTORS
330
2A
102
}
330
2A
100
AcDbVisualStyle
  2
Gouraud
 70
     2
 71
     2
 72
     2
 73
     1
 90
        2
 40
-0.6
 41
30.0
 62
     5
 63
     7
421
 16777215
 74
     0
 91
        4
 64
     7
 65
   257
 75
     1
175
     1
 42
1.0
 92
        0
 66
     7
 43
1.0
 76
     1
 77
     6
 78
     2
 67
     7
 79
     5
170
     0
171
     0
290
     0
174
     0
 93
       13
 44
0.0
173
     0
291
     1
 45
0.0
1001
ACAD
1000
AcDbSavedByObjectVersion
1070
     0
  0
VISUALSTYLE
  5
2E
102
{ACAD_REACTORS
330
2A
102
}
330
2A
100
AcDbVisualStyle
  2
GouraudWithEdges
 70
     3
 71
     2
 72
     2
 73
     1
 90
        2
 40
-0.6
 41
30.0
 62
     5
 63
     7
421
 16777215
 74
     1
 91
        4
 64
     7
 65
   257
 75
     1
175
     1
 42
1.0
 92
        0
 66
   257
 43
1.0
 76
     1
 77
     6
 78
     2
 67
     7
 79
     5
170
     0
171
     0
290
     0
174
     0
 93
       13
 44
0.0
173
     0
291
     1
 45
0.0
1001
ACAD
1000
AcDbSavedByObjectVersion
1070
     0
  0
VISUALSTYLE
  5
38
102
{ACAD_REACTORS
330
2A
102
}
330
2A
100
AcDbVisualStyle
  2
Linepattern
 70
    14
 71
     2
 72
     2
 73
     0
 90
        0
 40
-0.6
 41
-30.0
 62
     5
 63
     7
421
 16777215
 74
     1
 91
        4
 64
     7
 65
   257
 75
     7
175
     7
 42
1.0
 92
        8
 66
     7
 43
1.0
 76
     1
 77
     6
 78
     2
 67
     7
 79
     5
170
     0
171
     0
290
     0
174
     0
 93
        1
 44
0.0
173
     0
291
     1
 45
0.0
1001
ACAD
1000
AcDbSavedByObjectVersion
1070
     0
  0
VISUALSTYLE
  5
33
102
{ACAD_REACTORS
330
2A
102
}
330
2A
100
AcDbVisualStyle
  2
Realistic
 70
     8
 71
     2
 72
     2
 73
     0
 90
        0
 40
-0.6
 41
-30.0
 62
     5
 63
     7
421
 16777215
 74
     1
 91
        0
 64
     7
 65
   257
 75
     1
175
     1
 42
1.0
 92
        8
 66
     8
424
  7895160
 43
1.0
 76
     1
 77
     6
 78
     2
 67
     7
 79
     5
170
     0
171
     0
290
     0
174
     0
 93
       13
 44
0.0
173
     0
291
     0
 45
0.0
1001
ACAD
1000
AcDbSavedByObjectVersion
1070
     0
  0
VISUALSTYLE
  5
37
102
{ACAD_REACTORS
330
2A
102
}
330
2A
100
AcDbVisualStyle
  2
Thicken
 70
    13
 71
     2
 72
     2
 73
     0
 90
        0
 40
-0.6
 41
-30.0
 62
     5
 63
     7
421
 16777215
 74
     1
 91
        4
 64
     7
 65
   257
 75
     1
175
     1
 42
1.0
 92
       12
 66
     7
 43
1.0
 76
     1
 77
     6
 78
     2
 67
     7
 79
     5
170
     0
171
     0
290
     0
174
     0
 93
        1
 44
0.0
173
     0
291
     1
 45
0.0
1001
ACAD
1000
AcDbSavedByObjectVersion
1070
     0
  0
DICTIONARYVAR
  5
8C
102
{ACAD_REACTORS
330
8B
102
}
330
8B
100
DictionaryVariables
280
     0
  1
STANDARD
  0
ENDSEC
  0
EOF
