  0
SECTION
  2
HEADER
  9
$ACADVER
  1
AC1018
  9
$ACADMAINTVER
 70
    39
  9
$DWGCODEPAGE
  3
ANSI_936
  9
$INSBASE
 10
0.0
 20
0.0
 30
0.0
  9
$EXTMIN
 10
-4388.459499999999
 20
263.3669132441014
 30
0.0
  9
$EXTMAX
 10
3409.3657
 20
598.4182919097985
 30
0.0
  9
$LIMMIN
 10
0.0
 20
0.0
  9
$LIMMAX
 10
12.0
 20
9.0
  9
$ORTHOMODE
 70
     0
  9
$REGENMODE
 70
     1
  9
$FILLMODE
 70
     1
  9
$QTEXTMODE
 70
     0
  9
$MIRRTEXT
 70
     1
  9
$LTSCALE
 40
1.0
  9
$ATTMODE
 70
     1
  9
$TEXTSIZE
 40
0.2
  9
$TRACEWID
 40
0.05
  9
$TEXTSTYLE
  7
Standard
  9
$CLAYER
  8
0
  9
$CELTYPE
  6
ByLayer
  9
$CECOLOR
 62
   256
  9
$CELTSCALE
 40
1.0
  9
$DISPSILH
 70
     0
  9
$DIMSCALE
 40
1.0
  9
$DIMASZ
 40
0.18
  9
$DIMEXO
 40
0.0625
  9
$DIMDLI
 40
0.38
  9
$DIMRND
 40
0.0
  9
$DIMDLE
 40
0.0
  9
$DIMEXE
 40
0.18
  9
$DIMTP
 40
0.0
  9
$DIMTM
 40
0.0
  9
$DIMTXT
 40
0.18
  9
$DIMCEN
 40
0.09
  9
$DIMTSZ
 40
0.0
  9
$DIMTOL
 70
     0
  9
$DIMLIM
 70
     0
  9
$DIMTIH
 70
     1
  9
$DIMTOH
 70
     1
  9
$DIMSE1
 70
     0
  9
$DIMSE2
 70
     0
  9
$DIMTAD
 70
     0
  9
$DIMZIN
 70
     0
  9
$DIMBLK
  1

  9
$DIMASO
 70
     1
  9
$DIMSHO
 70
     1
  9
$DIMPOST
  1

  9
$DIMAPOST
  1

  9
$DIMALT
 70
     0
  9
$DIMALTD
 70
     2
  9
$DIMALTF
 40
25.4
  9
$DIMLFAC
 40
1.0
  9
$DIMTOFL
 70
     0
  9
$DIMTVP
 40
0.0
  9
$DIMTIX
 70
     0
  9
$DIMSOXD
 70
     0
  9
$DIMSAH
 70
     0
  9
$DIMBLK1
  1

  9
$DIMBLK2
  1

  9
$DIMSTYLE
  2
Standard
  9
$DIMCLRD
 70
     0
  9
$DIMCLRE
 70
     0
  9
$DIMCLRT
 70
     0
  9
$DIMTFAC
 40
1.0
  9
$DIMGAP
 40
0.09
  9
$DIMJUST
 70
     0
  9
$DIMSD1
 70
     0
  9
$DIMSD2
 70
     0
  9
$DIMTOLJ
 70
     1
  9
$DIMTZIN
 70
     0
  9
$DIMALTZ
 70
     0
  9
$DIMALTTZ
 70
     0
  9
$DIMUPT
 70
     0
  9
$DIMDEC
 70
     4
  9
$DIMTDEC
 70
     4
  9
$DIMALTU
 70
     2
  9
$DIMALTTD
 70
     2
  9
$DIMTXSTY
  7
Standard
  9
$DIMAUNIT
 70
     0
  9
$DIMADEC
 70
     0
  9
$DIMALTRND
 40
0.0
  9
$DIMAZIN
 70
     0
  9
$DIMDSEP
 70
    46
  9
$DIMATFIT
 70
     3
  9
$DIMFRAC
 70
     0
  9
$DIMLDRBLK
  1

  9
$DIMLUNIT
 70
     2
  9
$DIMLWD
 70
    -2
  9
$DIMLWE
 70
    -2
  9
$DIMTMOVE
 70
     0
  9
$LUNITS
 70
     2
  9
$LUPREC
 70
     4
  9
$SKETCHINC
 40
0.1
  9
$FILLETRAD
 40
0.5
  9
$AUNITS
 70
     0
  9
$AUPREC
 70
     0
  9
$MENU
  1
.
  9
$ELEVATION
 40
0.0
  9
$PELEVATION
 40
0.0
  9
$THICKNESS
 40
0.0
  9
$LIMCHECK
 70
     0
  9
$CHAMFERA
 40
0.5
  9
$CHAMFERB
 40
0.5
  9
$CHAMFERC
 40
1.0
  9
$CHAMFERD
 40
0.0
  9
$SKPOLY
 70
     0
  9
$TDCREATE
 40
2455736.446866493
  9
$TDUCREATE
 40
2455736.113533160
  9
$TDUPDATE
 40
2456504.479482014
  9
$TDUUPDATE
 40
2456504.146148681
  9
$TDINDWG
 40
0.0008440509
  9
$TDUSRTIMER
 40
0.0008440509
  9
$USRTIMER
 70
     1
  9
$ANGBASE
 50
0.0
  9
$ANGDIR
 70
     0
  9
$PDMODE
 70
     0
  9
$PDSIZE
 40
0.0
  9
$PLINEWID
 40
0.0
  9
$SPLFRAME
 70
     0
  9
$SPLINETYPE
 70
     6
  9
$SPLINESEGS
 70
     8
  9
$HANDSEED
  5
8E
  9
$SURFTAB1
 70
     6
  9
$SURFTAB2
 70
     6
  9
$SURFTYPE
 70
     6
  9
$SURFU
 70
     6
  9
$SURFV
 70
     6
  9
$UCSBASE
  2

  9
$UCSNAME
  2

  9
$UCSORG
 10
0.0
 20
0.0
 30
0.0
  9
$UCSXDIR
 10
1.0
 20
0.0
 30
0.0
  9
$UCSYDIR
 10
0.0
 20
1.0
 30
0.0
  9
$UCSORTHOREF
  2

  9
$UCSORTHOVIEW
 70
     0
  9
$UCSORGTOP
 10
0.0
 20
0.0
 30
0.0
  9
$UCSORGBOTTOM
 10
0.0
 20
0.0
 30
0.0
  9
$UCSORGLEFT
 10
0.0
 20
0.0
 30
0.0
  9
$UCSORGRIGHT
 10
0.0
 20
0.0
 30
0.0
  9
$UCSORGFRONT
 10
0.0
 20
0.0
 30
0.0
  9
$UCSORGBACK
 10
0.0
 20
0.0
 30
0.0
  9
$PUCSBASE
  2

  9
$PUCSNAME
  2

  9
$PUCSORG
 10
0.0
 20
0.0
 30
0.0
  9
$PUCSXDIR
 10
1.0
 20
0.0
 30
0.0
  9
$PUCSYDIR
 10
0.0
 20
1.0
 30
0.0
  9
$PUCSORTHOREF
  2

  9
$PUCSORTHOVIEW
 70
     0
  9
$PUCSORGTOP
 10
0.0
 20
0.0
 30
0.0
  9
$PUCSORGBOTTOM
 10
0.0
 20
0.0
 30
0.0
  9
$PUCSORGLEFT
 10
0.0
 20
0.0
 30
0.0
  9
$PUCSORGRIGHT
 10
0.0
 20
0.0
 30
0.0
  9
$PUCSORGFRONT
 10
0.0
 20
0.0
 30
0.0
  9
$PUCSORGBACK
 10
0.0
 20
0.0
 30
0.0
  9
$USERI1
 70
     0
  9
$USERI2
 70
     0
  9
$USERI3
 70
     0
  9
$USERI4
 70
     0
  9
$USERI5
 70
     0
  9
$USERR1
 40
0.0
  9
$USERR2
 40
0.0
  9
$USERR3
 40
0.0
  9
$USERR4
 40
0.0
  9
$USERR5
 40
0.0
  9
$WORLDVIEW
 70
     1
  9
$SHADEDGE
 70
     3
  9
$SHADEDIF
 70
    70
  9
$TILEMODE
 70
     1
  9
$MAXACTVP
 70
    64
  9
$PINSBASE
 10
0.0
 20
0.0
 30
0.0
  9
$PLIMCHECK
 70
     0
  9
$PEXTMIN
 10
1.000000000000000E+20
 20
1.000000000000000E+20
 30
1.000000000000000E+20
  9
$PEXTMAX
 10
-1.000000000000000E+20
 20
-1.000000000000000E+20
 30
-1.000000000000000E+20
  9
$PLIMMIN
 10
0.0
 20
0.0
  9
$PLIMMAX
 10
12.0
 20
9.0
  9
$UNITMODE
 70
     0
  9
$VISRETAIN
 70
     1
  9
$PLINEGEN
 70
     0
  9
$PSLTSCALE
 70
     1
  9
$TREEDEPTH
 70
  3020
  9
$CMLSTYLE
  2
Standard
  9
$CMLJUST
 70
     0
  9
$CMLSCALE
 40
1.0
  9
$PROXYGRAPHICS
 70
     1
  9
$MEASUREMENT
 70
     0
  9
$CELWEIGHT
370
    -1
  9
$ENDCAPS
280
     0
  9
$JOINSTYLE
280
     0
  9
$LWDISPLAY
290
     0
  9
$INSUNITS
 70
     4
  9
$HYPERLINKBASE
  1

  9
$STYLESHEET
  1

  9
$XEDIT
290
     1
  9
$CEPSNTYPE
380
     0
  9
$PSTYLEMODE
290
     1
  9
$FINGERPRINTGUID
  2
{42E8E9C8-F1B5-495F-B485-54E2FC11A22D}
  9
$VERSIONGUID
  2
{F144B8EA-C4B5-4B2D-A113-A219BAEC2A96}
  9
$EXTNAMES
290
     1
  9
$PSVPSCALE
 40
0.0
  9
$OLESTARTUP
290
     0
  9
$SORTENTS
280
   127
  9
$INDEXCTL
280
     0
  9
$HIDETEXT
280
     1
  9
$XCLIPFRAME
290
     0
  9
$HALOGAP
280
     0
  9
$OBSCOLOR
 70
   257
  9
$OBSLTYPE
280
     0
  9
$INTERSECTIONDISPLAY
280
     0
  9
$INTERSECTIONCOLOR
 70
   257
  9
$DIMASSOC
280
     2
  9
$PROJECTNAME
  1

  0
ENDSEC
  0
SECTION
  2
CLASSES
  0
CLASS
  1
ACDBDICTIONARYWDFLT
  2
AcDbDictionaryWithDefault
  3
ObjectDBX Classes
 90
        0
 91
        1
280
     0
281
     0
  0
CLASS
  1
VISUALSTYLE
  2
AcDbVisualStyle
  3
ObjectDBX Classes
 90
     4095
 91
       16
280
     0
281
     0
  0
CLASS
  1
SCALE
  2
AcDbScale
  3
ObjectDBX Classes
 90
     1153
 91
       33
280
     0
281
     0
  0
CLASS
  1
TABLESTYLE
  2
AcDbTableStyle
  3
ObjectDBX Classes
 90
     2047
 91
        1
280
     0
281
     0
  0
CLASS
  1
DICTIONARYVAR
  2
AcDbDictionaryVar
  3
ObjectDBX Classes
 90
        0
 91
        1
280
     0
281
     0
  0
ENDSEC
  0
SECTION
  2
TABLES
  0
TABLE
  2
VPORT
  5
8
330
0
100
AcDbSymbolTable
 70
     2
  0
VPORT
  5
8D
330
8
100
AcDbSymbolTableRecord
100
AcDbViewportTableRecord
  2
*Active
 70
     0
 10
0.0
 20
0.0
 11
1.0
 21
1.0
 12
145.9257667897718
 22
-899.7408968702115
 13
0.0
 23
0.0
 14
0.5
 24
0.5
 15
0.5
 25
0.5
 16
0.0
 26
0.0
 36
1.0
 17
0.0
 27
0.0
 37
0.0
 40
6842.536134605651
 41
2.03422619047619
 42
50.0
 43
0.0
 44
0.0
 50
0.0
 51
0.0
 71
     0
 72
   100
 73
     1
 74
     3
 75
     0
 76
     0
 77
     0
 78
     0
281
     0
 65
     1
110
0.0
120
0.0
130
0.0
111
1.0
121
0.0
131
0.0
112
0.0
122
1.0
132
0.0
 79
     0
146
0.0
  0
ENDTAB
  0
TABLE
  2
LTYPE
  5
5
330
0
100
AcDbSymbolTable
 70
     1
  0
LTYPE
  5
14
330
5
100
AcDbSymbolTableRecord
100
AcDbLinetypeTableRecord
  2
ByBlock
 70
     0
  3

 72
    65
 73
     0
 40
0.0
  0
LTYPE
  5
15
330
5
100
AcDbSymbolTableRecord
100
AcDbLinetypeTableRecord
  2
ByLayer
 70
     0
  3

 72
    65
 73
     0
 40
0.0
  0
LTYPE
  5
16
330
5
100
AcDbSymbolTableRecord
100
AcDbLinetypeTableRecord
  2
Continuous
 70
     0
  3
Solid line
 72
    65
 73
     0
 40
0.0
  0
ENDTAB
  0
TABLE
  2
LAYER
  5
2
330
0
100
AcDbSymbolTable
 70
     2
  0
LAYER
  5
10
330
2
100
AcDbSymbolTableRecord
100
AcDbLayerTableRecord
  2
0
 70
     0
 62
     7
  6
Continuous
370
    -3
390
F
  0
LAYER
  5
5E
330
2
100
AcDbSymbolTableRecord
100
AcDbLayerTableRecord
  2
layer 1
 70
     0
 62
     7
  6
Continuous
370
    -3
390
F
  0
ENDTAB
  0
TABLE
  2
STYLE
  5
3
330
0
100
AcDbSymbolTable
 70
     1
  0
STYLE
  5
11
330
3
100
AcDbSymbolTableRecord
100
AcDbTextStyleTableRecord
  2
Standard
 70
     0
 40
0.0
 41
1.0
 50
0.0
 71
     0
 42
0.2
  3
txt
  4

  0
ENDTAB
  0
TABLE
  2
VIEW
  5
6
330
0
100
AcDbSymbolTable
 70
     0
  0
ENDTAB
  0
TABLE
  2
UCS
  5
7
330
0
100
AcDbSymbolTable
 70
     0
  0
ENDTAB
  0
TABLE
  2
APPID
  5
9
330
0
100
AcDbSymbolTable
 70
     2
  0
APPID
  5
12
330
9
100
AcDbSymbolTableRecord
100
AcDbRegAppTableRecord
  2
ACAD
 70
     0
  0
APPID
  5
5D
330
9
100
AcDbSymbolTableRecord
100
AcDbRegAppTableRecord
  2
ODA
 70
     0
  0
ENDTAB
  0
TABLE
  2
DIMSTYLE
  5
A
330
0
100
AcDbSymbolTable
 70
     1
100
AcDbDimStyleTable
 71
     0
  0
DIMSTYLE
105
27
330
A
100
AcDbSymbolTableRecord
100
AcDbDimStyleTableRecord
  2
Standard
 70
     0
340
11
  0
ENDTAB
  0
TABLE
  2
BLOCK_RECORD
  5
1
330
0
100
AcDbSymbolTable
 70
     1
  0
BLOCK_RECORD
  5
1F
330
1
100
AcDbSymbolTableRecord
100
AcDbBlockTableRecord
  2
*Model_Space
340
22
  0
BLOCK_RECORD
  5
1B
330
1
100
AcDbSymbolTableRecord
100
AcDbBlockTableRecord
  2
*Paper_Space
340
1E
  0
BLOCK_RECORD
  5
23
330
1
100
AcDbSymbolTableRecord
100
AcDbBlockTableRecord
  2
*Paper_Space0
340
26
  0
ENDTAB
  0
ENDSEC
  0
SECTION
  2
BLOCKS
  0
BLOCK
  5
20
330
1F
100
AcDbEntity
  8
0
100
AcDbBlockBegin
  2
*Model_Space
 70
     0
 10
0.0
 20
0.0
 30
0.0
  3
*Model_Space
  1

  0
ENDBLK
  5
21
330
1F
100
AcDbEntity
  8
0
100
AcDbBlockEnd
  0
BLOCK
  5
1C
330
1B
100
AcDbEntity
 67
     1
  8
0
100
AcDbBlockBegin
  2
*Paper_Space
 70
     0
 10
0.0
 20
0.0
 30
0.0
  3
*Paper_Space
  1

  0
ENDBLK
  5
1D
330
1B
100
AcDbEntity
 67
     1
  8
0
100
AcDbBlockEnd
  0
BLOCK
  5
24
330
23
100
AcDbEntity
  8
0
100
AcDbBlockBegin
  2
*Paper_Space0
 70
     0
 10
0.0
 20
0.0
 30
0.0
  3
*Paper_Space0
  1

  0
ENDBLK
  5
25
330
23
100
AcDbEntity
  8
0
100
AcDbBlockEnd
  0
ENDSEC
  0
SECTION
  2
ENTITIES
  0
SPLINE
  5
69
330
1F
100
AcDbEntity
  8
layer 1
100
AcDbSpline
210
0.0
220
0.0
230
1.0
 70
    11
 71
     3
 72
    88
 73
    84
 74
     0
 42
0.0000000001
 43
0.0000000001
 40
0.0
 40
0.0
 40
0.0
 40
0.0
 40
0.0476190476190476
 40
0.0476190476190476
 40
0.0476190476190476
 40
0.0476190476190476
 40
0.0952380952380952
 40
0.0952380952380952
 40
0.0952380952380952
 40
0.0952380952380952
 40
0.1428571428571428
 40
0.1428571428571428
 40
0.1428571428571428
 40
0.1428571428571428
 40
0.1904761904761905
 40
0.1904761904761905
 40
0.1904761904761905
 40
0.1904761904761905
 40
0.2380952380952381
 40
0.2380952380952381
 40
0.2380952380952381
 40
0.2380952380952381
 40
0.2857142857142857
 40
0.2857142857142857
 40
0.2857142857142857
 40
0.2857142857142857
 40
0.3333333333333333
 40
0.3333333333333333
 40
0.3333333333333333
 40
0.3333333333333333
 40
0.3809523809523809
 40
0.3809523809523809
 40
0.3809523809523809
 40
0.3809523809523809
 40
0.4285714285714285
 40
0.4285714285714285
 40
0.4285714285714285
 40
0.4285714285714285
 40
0.4761904761904762
 40
0.4761904761904762
 40
0.4761904761904762
 40
0.4761904761904762
 40
0.5238095238095238
 40
0.5238095238095238
 40
0.5238095238095238
 40
0.5238095238095238
 40
0.5714285714285714
 40
0.5714285714285714
 40
0.5714285714285714
 40
0.5714285714285714
 40
0.6190476190476191
 40
0.6190476190476191
 40
0.6190476190476191
 40
0.6190476190476191
 40
0.6666666666666668
 40
0.6666666666666668
 40
0.6666666666666668
 40
0.6666666666666668
 40
0.7142857142857145
 40
0.7142857142857145
 40
0.7142857142857145
 40
0.7142857142857145
 40
0.7619047619047621
 40
0.7619047619047621
 40
0.7619047619047621
 40
0.7619047619047621
 40
0.8095238095238098
 40
0.8095238095238098
 40
0.8095238095238098
 40
0.8095238095238098
 40
0.8571428571428574
 40
0.8571428571428574
 40
0.8571428571428574
 40
0.8571428571428574
 40
0.9047619047619052
 40
0.9047619047619052
 40
0.9047619047619052
 40
0.9047619047619052
 40
0.9523809523809527
 40
0.9523809523809527
 40
0.9523809523809527
 40
0.9523809523809527
 40
1.0
 40
1.0
 40
1.0
 40
1.0
 10
-520.5982999999999
 20
578.4030999999999
 30
0.0
 10
-520.5982999999999
 20
578.4030999999999
 30
0.0
 10
-520.5982999999999
 20
578.4030999999999
 30
0.0
 10
-520.5982999999999
 20
578.4030999999999
 30
0.0
 10
-520.5982999999999
 20
578.4030999999999
 30
0.0
 10
-520.5982999999999
 20
583.9656999999999
 30
0.0
 10
-520.5982999999999
 20
589.5282999999999
 30
0.0
 10
-520.5982999999999
 20
595.0655
 30
0.0
 10
-520.5982999999999
 20
595.0655
 30
0.0
 10
-486.1558999999999
 20
595.0655
 30
0.0
 10
-451.7135
 20
595.0655
 30
0.0
 10
-417.2712
 20
595.0655
 30
0.0
 10
-417.2712
 20
595.0655
 30
0.0
 10
-368.9349
 20
528.4158999999999
 30
0.0
 10
-320.5988
 20
461.7409
 30
0.0
 10
-272.2625
 20
395.0659
 30
0.0
 10
-272.2625
 20
395.0659
 30
0.0
 10
-272.2625
 20
445.0785
 30
0.0
 10
-272.2625
 20
495.0656999999999
 30
0.0
 10
-272.2625
 20
545.0783
 30
0.0
 10
-272.2625
 20
545.0783
 30
0.0
 10
-272.6944
 20
565.0934999999999
 30
0.0
 10
-287.7057
 20
576.2186999999999
 30
0.0
 10
-317.2714
 20
578.4030999999999
 30
0.0
 10
-317.2714
 20
578.4030999999999
 30
0.0
 10
-317.2714
 20
583.9656999999999
 30
0.0
 10
-317.2714
 20
589.5282999999999
 30
0.0
 10
-317.2714
 20
595.0655
 30
0.0
 10
-317.2714
 20
595.0655
 30
0.0
 10
-281.7114
 20
595.0655
 30
0.0
 10
-246.1514
 20
595.0655
 30
0.0
 10
-210.6168
 20
595.0655
 30
0.0
 10
-210.6168
 20
595.0655
 30
0.0
 10
-210.6168
 20
589.5282999999999
 30
0.0
 10
-210.6168
 20
583.9656999999999
 30
0.0
 10
-210.6168
 20
578.4030999999999
 30
0.0
 10
-210.6168
 20
578.4030999999999
 30
0.0
 10
-236.2454
 20
575.9393
 30
0.0
 10
-249.0215
 20
564.8141
 30
0.0
 10
-248.9454
 20
545.0783
 30
0.0
 10
-248.9454
 20
545.0783
 30
0.0
 10
-248.9454
 20
463.9761
 30
0.0
 10
-248.9454
 20
382.8485
 30
0.0
 10
-248.9454
 20
301.7463
 30
0.0
 10
-248.9454
 20
301.7463
 30
0.0
 10
-262.2803
 20
301.7463
 30
0.0
 10
-275.6153
 20
301.7463
 30
0.0
 10
-288.9504
 20
301.7463
 30
0.0
 10
-288.9504
 20
301.7463
 30
0.0
 10
-343.9414
 20
377.3113
 30
0.0
 10
-398.9323
 20
452.8509
 30
0.0
 10
-453.9487
 20
528.4158999999999
 30
0.0
 10
-453.9487
 20
528.4158999999999
 30
0.0
 10
-453.9487
 20
467.8622999999999
 30
0.0
 10
-453.9487
 20
407.3087
 30
0.0
 10
-453.9487
 20
346.7551
 30
0.0
 10
-453.9487
 20
346.7551
 30
0.0
 10
-453.7201
 20
329.1783
 30
0.0
 10
-437.0576999999999
 20
319.7295
 30
0.0
 10
-403.9361
 20
318.4087
 30
0.0
 10
-403.9361
 20
318.4087
 30
0.0
 10
-403.9361
 20
312.8461
 30
0.0
 10
-403.9361
 20
307.3089
 30
0.0
 10
-403.9361
 20
301.7463
 30
0.0
 10
-403.9361
 20
301.7463
 30
0.0
 10
-442.2647
 20
301.7463
 30
0.0
 10
-480.5933
 20
301.7463
 30
0.0
 10
-518.9473
 20
301.7463
 30
0.0
 10
-518.9473
 20
301.7463
 30
0.0
 10
-518.9473
 20
307.3089
 30
0.0
 10
-518.9473
 20
312.8461
 30
0.0
 10
-518.9473
 20
318.4087
 30
0.0
 10
-518.9473
 20
318.4087
 30
0.0
 10
-490.8802999999999
 20
319.8819
 30
0.0
 10
-476.9865
 20
329.3307
 30
0.0
 10
-477.266
 20
346.7551
 30
0.0
 10
-477.266
 20
346.7551
 30
0.0
 10
-477.266
 20
414.5222999999999
 30
0.0
 10
-477.266
 20
482.2894999999999
 30
0.0
 10
-477.266
 20
550.0821
 30
0.0
 10
-477.266
 20
550.0821
 30
0.0
 10
-477.4691
 20
568.0399
 30
0.0
 10
-491.9216999999999
 20
577.4886999999999
 30
0.0
 10
-520.5982999999999
 20
578.4030999999999
 30
0.0
  0
SPLINE
  5
6A
330
1F
100
AcDbEntity
  8
layer 1
100
AcDbSpline
210
0.0
220
0.0
230
1.0
 70
    11
 71
     3
 72
    88
 73
    84
 74
     0
 42
0.0000000001
 43
0.0000000001
 40
0.0
 40
0.0
 40
0.0
 40
0.0
 40
0.0476190476190476
 40
0.0476190476190476
 40
0.0476190476190476
 40
0.0476190476190476
 40
0.0952380952380952
 40
0.0952380952380952
 40
0.0952380952380952
 40
0.0952380952380952
 40
0.1428571428571428
 40
0.1428571428571428
 40
0.1428571428571428
 40
0.1428571428571428
 40
0.1904761904761905
 40
0.1904761904761905
 40
0.1904761904761905
 40
0.1904761904761905
 40
0.2380952380952381
 40
0.2380952380952381
 40
0.2380952380952381
 40
0.2380952380952381
 40
0.2857142857142857
 40
0.2857142857142857
 40
0.2857142857142857
 40
0.2857142857142857
 40
0.3333333333333333
 40
0.3333333333333333
 40
0.3333333333333333
 40
0.3333333333333333
 40
0.3809523809523809
 40
0.3809523809523809
 40
0.3809523809523809
 40
0.3809523809523809
 40
0.4285714285714285
 40
0.4285714285714285
 40
0.4285714285714285
 40
0.4285714285714285
 40
0.4761904761904762
 40
0.4761904761904762
 40
0.4761904761904762
 40
0.4761904761904762
 40
0.5238095238095238
 40
0.5238095238095238
 40
0.5238095238095238
 40
0.5238095238095238
 40
0.5714285714285714
 40
0.5714285714285714
 40
0.5714285714285714
 40
0.5714285714285714
 40
0.6190476190476191
 40
0.6190476190476191
 40
0.6190476190476191
 40
0.6190476190476191
 40
0.6666666666666668
 40
0.6666666666666668
 40
0.6666666666666668
 40
0.6666666666666668
 40
0.7142857142857145
 40
0.7142857142857145
 40
0.7142857142857145
 40
0.7142857142857145
 40
0.7619047619047621
 40
0.7619047619047621
 40
0.7619047619047621
 40
0.7619047619047621
 40
0.8095238095238098
 40
0.8095238095238098
 40
0.8095238095238098
 40
0.8095238095238098
 40
0.8571428571428574
 40
0.8571428571428574
 40
0.8571428571428574
 40
0.8571428571428574
 40
0.9047619047619052
 40
0.9047619047619052
 40
0.9047619047619052
 40
0.9047619047619052
 40
0.9523809523809527
 40
0.9523809523809527
 40
0.9523809523809527
 40
0.9523809523809527
 40
1.0
 40
1.0
 40
1.0
 40
1.0
 10
1056.8686
 20
300.0699
 30
0.0
 10
1056.8686
 20
300.0699
 30
0.0
 10
1056.8686
 20
300.0699
 30
0.0
 10
1056.8686
 20
300.0699
 30
0.0
 10
1056.8686
 20
300.0699
 30
0.0
 10
1056.8686
 20
337.8651
 30
0.0
 10
1056.8686
 20
375.6349
 30
0.0
 10
1056.8686
 20
413.4046999999999
 30
0.0
 10
1056.8686
 20
413.4046999999999
 30
0.0
 10
1062.9899
 20
413.4046999999999
 30
0.0
 10
1069.086
 20
413.4046999999999
 30
0.0
 10
1075.2073
 20
413.4046999999999
 30
0.0
 10
1075.2073
 20
413.4046999999999
 30
0.0
 10
1092.9874
 20
348.9649
 30
0.0
 10
1124.1532
 20
316.3513
 30
0.0
 10
1168.7302
 20
315.5385
 30
0.0
 10
1168.7302
 20
315.5385
 30
0.0
 10
1204.1632
 20
316.3513
 30
0.0
 10
1222.2988
 20
332.4041
 30
0.0
 10
1223.1878
 20
363.6969000000001
 30
0.0
 10
1223.1878
 20
363.6969000000001
 30
0.0
 10
1223.4164
 20
382.3913
 30
0.0
 10
1200.2007
 20
399.5109
 30
0.0
 10
1153.541
 20
415.0811
 30
0.0
 10
1153.541
 20
415.0811
 30
0.0
 10
1090.1934
 20
437.3060999999999
 30
0.0
 10
1058.9514
 20
466.3637
 30
0.0
 10
1059.7642
 20
502.2539
 30
0.0
 10
1059.7642
 20
502.2539
 30
0.0
 10
1062.2788
 20
563.0361
 30
0.0
 10
1095.1972
 20
595.0655
 30
0.0
 10
1158.5447
 20
598.4183
 30
0.0
 10
1158.5447
 20
598.4183
 30
0.0
 10
1179.6522
 20
598.4183
 30
0.0
 10
1204.0869
 20
591.1793
 30
0.0
 10
1231.8745
 20
576.7521
 30
0.0
 10
1231.8745
 20
576.7521
 30
0.0
 10
1237.4371
 20
582.2893
 30
0.0
 10
1242.9743
 20
587.8518999999999
 30
0.0
 10
1248.5369
 20
593.4145
 30
0.0
 10
1248.5369
 20
593.4145
 30
0.0
 10
1254.0995
 20
593.4145
 30
0.0
 10
1259.6367
 20
593.4145
 30
0.0
 10
1265.1993
 20
593.4145
 30
0.0
 10
1265.1993
 20
593.4145
 30
0.0
 10
1265.1993
 20
559.5308999999999
 30
0.0
 10
1265.1993
 20
525.6218999999999
 30
0.0
 10
1265.1993
 20
491.7383
 30
0.0
 10
1265.1993
 20
491.7383
 30
0.0
 10
1259.6367
 20
491.7383
 30
0.0
 10
1254.0995
 20
491.7383
 30
0.0
 10
1248.5369
 20
491.7383
 30
0.0
 10
1248.5369
 20
491.7383
 30
0.0
 10
1232.9922
 20
548.4056999999999
 30
0.0
 10
1205.2046
 20
577.3108999999999
 30
0.0
 10
1165.1995
 20
578.4030999999999
 30
0.0
 10
1165.1995
 20
578.4030999999999
 30
0.0
 10
1132.9924
 20
577.3108999999999
 30
0.0
 10
1116.3046
 20
563.4171
 30
0.0
 10
1115.2124
 20
536.7471
 30
0.0
 10
1115.2124
 20
536.7471
 30
0.0
 10
1115.2124
 20
516.7318999999999
 30
0.0
 10
1137.9708
 20
499.5106999999999
 30
0.0
 10
1183.5383
 20
485.0835
 30
0.0
 10
1183.5383
 20
485.0835
 30
0.0
 10
1249.9848
 20
463.7221
 30
0.0
 10
1282.5729
 20
432.6324999999999
 30
0.0
 10
1281.303
 20
391.7893
 30
0.0
 10
1281.303
 20
391.7893
 30
0.0
 10
1278.3566
 20
335.0965
 30
0.0
 10
1244.092
 20
303.9561
 30
0.0
 10
1178.5346
 20
298.4189
 30
0.0
 10
1178.5346
 20
298.4189
 30
0.0
 10
1150.8232
 20
296.5139
 30
0.0
 10
1121.9179
 20
302.6353
 30
0.0
 10
1091.8697
 20
316.7323
 30
0.0
 10
1091.8697
 20
316.7323
 30
0.0
 10
1086.7644
 20
311.1951
 30
0.0
 10
1081.659
 20
305.6325
 30
0.0
 10
1076.5282
 20
300.0699
 30
0.0
 10
1076.5282
 20
300.0699
 30
0.0
 10
1069.975
 20
300.0699
 30
0.0
 10
1063.4218
 20
300.0699
 30
0.0
 10
1056.8686
 20
300.0699
 30
0.0
  0
SPLINE
  5
6B
330
1F
100
AcDbEntity
  8
layer 1
100
AcDbSpline
210
0.0
220
0.0
230
1.0
 70
    11
 71
     3
 72
    64
 73
    60
 74
     0
 42
0.0000000001
 43
0.0000000001
 40
0.0
 40
0.0
 40
0.0
 40
0.0
 40
0.0666666666666667
 40
0.0666666666666667
 40
0.0666666666666667
 40
0.0666666666666667
 40
0.1333333333333333
 40
0.1333333333333333
 40
0.1333333333333333
 40
0.1333333333333333
 40
0.2
 40
0.2
 40
0.2
 40
0.2
 40
0.2666666666666667
 40
0.2666666666666667
 40
0.2666666666666667
 40
0.2666666666666667
 40
0.3333333333333333
 40
0.3333333333333333
 40
0.3333333333333333
 40
0.3333333333333333
 40
0.4
 40
0.4
 40
0.4
 40
0.4
 40
0.4666666666666666
 40
0.4666666666666666
 40
0.4666666666666666
 40
0.4666666666666666
 40
0.5333333333333333
 40
0.5333333333333333
 40
0.5333333333333333
 40
0.5333333333333333
 40
0.6
 40
0.6
 40
0.6
 40
0.6
 40
0.6666666666666666
 40
0.6666666666666666
 40
0.6666666666666666
 40
0.6666666666666666
 40
0.7333333333333333
 40
0.7333333333333333
 40
0.7333333333333333
 40
0.7333333333333333
 40
0.8
 40
0.8
 40
0.8
 40
0.8
 40
0.8666666666666666
 40
0.8666666666666666
 40
0.8666666666666666
 40
0.8666666666666666
 40
0.9333333333333332
 40
0.9333333333333332
 40
0.9333333333333332
 40
0.9333333333333332
 40
1.0
 40
1.0
 40
1.0
 40
1.0
 10
1311.8591
 20
595.0655
 30
0.0
 10
1311.8591
 20
595.0655
 30
0.0
 10
1311.8591
 20
595.0655
 30
0.0
 10
1311.8591
 20
595.0655
 30
0.0
 10
1311.8591
 20
595.0655
 30
0.0
 10
1403.5277
 20
595.0655
 30
0.0
 10
1495.1963
 20
595.0655
 30
0.0
 10
1586.865
 20
595.0655
 30
0.0
 10
1586.865
 20
595.0655
 30
0.0
 10
1587.4237
 20
560.6231
 30
0.0
 10
1587.9826
 20
526.1807
 30
0.0
 10
1588.5414
 20
491.7383
 30
0.0
 10
1588.5414
 20
491.7383
 30
0.0
 10
1581.8611
 20
491.7383
 30
0.0
 10
1575.2064
 20
491.7383
 30
0.0
 10
1568.5262
 20
491.7383
 30
0.0
 10
1568.5262
 20
491.7383
 30
0.0
 10
1555.1912
 20
547.2881
 30
0.0
 10
1527.429
 20
575.0757
 30
0.0
 10
1485.2141
 20
575.0757
 30
0.0
 10
1485.2141
 20
575.0757
 30
0.0
 10
1485.2141
 20
498.9773
 30
0.0
 10
1485.2141
 20
422.8534999999999
 30
0.0
 10
1485.2141
 20
346.7551
 30
0.0
 10
1485.2141
 20
346.7551
 30
0.0
 10
1485.2141
 20
328.7465
 30
0.0
 10
1500.7843
 20
319.3231
 30
0.0
 10
1531.8739
 20
318.4087
 30
0.0
 10
1531.8739
 20
318.4087
 30
0.0
 10
1531.8739
 20
312.8461
 30
0.0
 10
1531.8739
 20
307.3089
 30
0.0
 10
1531.8739
 20
301.7463
 30
0.0
 10
1531.8739
 20
301.7463
 30
0.0
 10
1476.3241
 20
301.7463
 30
0.0
 10
1420.7489
 20
301.7463
 30
0.0
 10
1365.1991
 20
301.7463
 30
0.0
 10
1365.1991
 20
301.7463
 30
0.0
 10
1365.1991
 20
307.3089
 30
0.0
 10
1365.1991
 20
312.8461
 30
0.0
 10
1365.1991
 20
318.4087
 30
0.0
 10
1365.1991
 20
318.4087
 30
0.0
 10
1397.4572
 20
318.7389
 30
0.0
 10
1413.5608
 20
328.1877
 30
0.0
 10
1413.5354
 20
346.7551
 30
0.0
 10
1413.5354
 20
346.7551
 30
0.0
 10
1413.5354
 20
422.8534999999999
 30
0.0
 10
1413.5354
 20
498.9773
 30
0.0
 10
1413.5354
 20
575.0757
 30
0.0
 10
1413.5354
 20
575.0757
 30
0.0
 10
1371.3205
 20
575.0757
 30
0.0
 10
1343.5329
 20
547.2881
 30
0.0
 10
1330.1979
 20
491.7383
 30
0.0
 10
1330.1979
 20
491.7383
 30
0.0
 10
1323.5431
 20
491.7383
 30
0.0
 10
1316.863
 20
491.7383
 30
0.0
 10
1310.2082
 20
491.7383
 30
0.0
 10
1310.2082
 20
491.7383
 30
0.0
 10
1310.7669
 20
526.1807
 30
0.0
 10
1311.3257
 20
560.6231
 30
0.0
 10
1311.8591
 20
595.0655
 30
0.0
  0
SPLINE
  5
79
330
1F
100
AcDbEntity
  8
layer 1
100
AcDbSpline
210
0.0
220
0.0
230
1.0
 70
    11
 71
     3
 72
    24
 73
    20
 74
     0
 42
0.0000000001
 43
0.0000000001
 40
0.0
 40
0.0
 40
0.0
 40
0.0
 40
0.2
 40
0.2
 40
0.2
 40
0.2
 40
0.4
 40
0.4
 40
0.4
 40
0.4
 40
0.6000000000000001
 40
0.6000000000000001
 40
0.6000000000000001
 40
0.6000000000000001
 40
0.8
 40
0.8
 40
0.8
 40
0.8
 40
1.0
 40
1.0
 40
1.0
 40
1.0
 10
-186.4359
 20
446.7548999999999
 30
0.0
 10
-186.4359
 20
446.7548999999999
 30
0.0
 10
-186.4359
 20
446.7548999999999
 30
0.0
 10
-186.4359
 20
446.7548999999999
 30
0.0
 10
-186.4359
 20
446.7548999999999
 30
0.0
 10
-185.0897
 20
547.5420999999999
 30
0.0
 10
-135.1025
 20
598.0881000000001
 30
0.0
 10
-36.4489
 20
598.4183
 30
0.0
 10
-36.4489
 20
598.4183
 30
0.0
 10
61.0362
 20
596.4116999999999
 30
0.0
 10
110.4646
 20
545.8402999999999
 30
0.0
 10
111.8615
 20
446.7548999999999
 30
0.0
 10
111.8615
 20
446.7548999999999
 30
0.0
 10
112.5728
 20
352.0891
 30
0.0
 10
63.1444
 20
302.6607
 30
0.0
 10
-36.4489
 20
298.4189
 30
0.0
 10
-36.4489
 20
298.4189
 30
0.0
 10
-136.2201
 20
298.9777
 30
0.0
 10
-186.2073
 20
348.4315
 30
0.0
 10
-186.4359
 20
446.7548999999999
 30
0.0
  0
SPLINE
  5
7A
330
1F
100
AcDbEntity
  8
layer 1
100
AcDbSpline
210
0.0
220
0.0
230
1.0
 70
    11
 71
     3
 72
    24
 73
    20
 74
     0
 42
0.0000000001
 43
0.0000000001
 40
0.0
 40
0.0
 40
0.0
 40
0.0
 40
0.2
 40
0.2
 40
0.2
 40
0.2
 40
0.4
 40
0.4
 40
0.4
 40
0.4
 40
0.6000000000000001
 40
0.6000000000000001
 40
0.6000000000000001
 40
0.6000000000000001
 40
0.8
 40
0.8
 40
0.8
 40
0.8
 40
1.0
 40
1.0
 40
1.0
 40
1.0
 10
-106.4259
 20
446.7548999999999
 30
0.0
 10
-106.4259
 20
446.7548999999999
 30
0.0
 10
-106.4259
 20
446.7548999999999
 30
0.0
 10
-106.4259
 20
446.7548999999999
 30
0.0
 10
-106.4259
 20
446.7548999999999
 30
0.0
 10
-106.4259
 20
358.9725
 30
0.0
 10
-83.10869999999999
 20
315.0813
 30
0.0
 10
-36.4489
 20
315.0813
 30
0.0
 10
-36.4489
 20
315.0813
 30
0.0
 10
9.4234
 20
316.0973
 30
0.0
 10
32.2072
 20
359.9885
 30
0.0
 10
31.877
 20
446.7548999999999
 30
0.0
 10
31.877
 20
446.7548999999999
 30
0.0
 10
31.7754
 20
534.7151
 30
0.0
 10
8.9916
 20
578.6063
 30
0.0
 10
-36.4489
 20
578.4030999999999
 30
0.0
 10
-36.4489
 20
578.4030999999999
 30
0.0
 10
-83.10869999999999
 20
578.4030999999999
 30
0.0
 10
-106.4259
 20
534.5118999999999
 30
0.0
 10
-106.4259
 20
446.7548999999999
 30
0.0
  0
SPLINE
  5
7B
330
1F
100
AcDbEntity
  8
layer 1
100
AcDbSpline
210
0.0
220
0.0
230
1.0
 70
    11
 71
     3
 72
    60
 73
    56
 74
     0
 42
0.0000000001
 43
0.0000000001
 40
0.0
 40
0.0
 40
0.0
 40
0.0
 40
0.0714285714285714
 40
0.0714285714285714
 40
0.0714285714285714
 40
0.0714285714285714
 40
0.1428571428571428
 40
0.1428571428571428
 40
0.1428571428571428
 40
0.1428571428571428
 40
0.2142857142857143
 40
0.2142857142857143
 40
0.2142857142857143
 40
0.2142857142857143
 40
0.2857142857142857
 40
0.2857142857142857
 40
0.2857142857142857
 40
0.2857142857142857
 40
0.3571428571428571
 40
0.3571428571428571
 40
0.3571428571428571
 40
0.3571428571428571
 40
0.4285714285714285
 40
0.4285714285714285
 40
0.4285714285714285
 40
0.4285714285714285
 40
0.5
 40
0.5
 40
0.5
 40
0.5
 40
0.5714285714285713
 40
0.5714285714285713
 40
0.5714285714285713
 40
0.5714285714285713
 40
0.6428571428571427
 40
0.6428571428571427
 40
0.6428571428571427
 40
0.6428571428571427
 40
0.7142857142857141
 40
0.7142857142857141
 40
0.7142857142857141
 40
0.7142857142857141
 40
0.7857142857142855
 40
0.7857142857142855
 40
0.7857142857142855
 40
0.7857142857142855
 40
0.8571428571428569
 40
0.8571428571428569
 40
0.8571428571428569
 40
0.8571428571428569
 40
0.9285714285714284
 40
0.9285714285714284
 40
0.9285714285714284
 40
0.9285714285714284
 40
1.0
 40
1.0
 40
1.0
 40
1.0
 10
288.544
 20
301.7463
 30
0.0
 10
288.544
 20
301.7463
 30
0.0
 10
288.544
 20
301.7463
 30
0.0
 10
288.544
 20
301.7463
 30
0.0
 10
288.544
 20
301.7463
 30
0.0
 10
236.8804
 20
301.7463
 30
0.0
 10
185.1913
 20
301.7463
 30
0.0
 10
133.5277
 20
301.7463
 30
0.0
 10
133.5277
 20
301.7463
 30
0.0
 10
133.5277
 20
307.3089
 30
0.0
 10
133.5277
 20
312.8461
 30
0.0
 10
133.5277
 20
318.4087
 30
0.0
 10
133.5277
 20
318.4087
 30
0.0
 10
161.1375
 20
320.2883
 30
0.0
 10
175.0313
 20
329.7371
 30
0.0
 10
175.2091
 20
346.7551
 30
0.0
 10
175.2091
 20
346.7551
 30
0.0
 10
175.2091
 20
414.5222999999999
 30
0.0
 10
175.2091
 20
482.2894999999999
 30
0.0
 10
175.2091
 20
550.0821
 30
0.0
 10
175.2091
 20
550.0821
 30
0.0
 10
174.8789
 20
567.8875
 30
0.0
 10
160.9851
 20
577.3363
 30
0.0
 10
133.5277
 20
578.4030999999999
 30
0.0
 10
133.5277
 20
578.4030999999999
 30
0.0
 10
133.5277
 20
583.9656999999999
 30
0.0
 10
133.5277
 20
589.5282999999999
 30
0.0
 10
133.5277
 20
595.0655
 30
0.0
 10
133.5277
 20
595.0655
 30
0.0
 10
184.6579
 20
595.0655
 30
0.0
 10
235.7628
 20
595.0655
 30
0.0
 10
286.8675
 20
595.0655
 30
0.0
 10
286.8675
 20
595.0655
 30
0.0
 10
356.0063
 20
595.1417
 30
0.0
 10
391.0075
 20
569.0304999999999
 30
0.0
 10
391.8711
 20
516.7318999999999
 30
0.0
 10
391.8711
 20
516.7318999999999
 30
0.0
 10
391.9219
 20
464.0015
 30
0.0
 10
358.5972
 20
436.7727
 30
0.0
 10
291.8714
 20
435.0709
 30
0.0
 10
291.8714
 20
435.0709
 30
0.0
 10
275.7677
 20
435.0709
 30
0.0
 10
259.6387
 20
435.0709
 30
0.0
 10
243.5352
 20
435.0709
 30
0.0
 10
243.5352
 20
435.0709
 30
0.0
 10
243.5352
 20
406.7499
 30
0.0
 10
243.5352
 20
378.4035
 30
0.0
 10
243.5352
 20
350.0825
 30
0.0
 10
243.5352
 20
350.0825
 30
0.0
 10
243.7638
 20
330.1435
 30
0.0
 10
258.7752
 20
319.6025
 30
0.0
 10
288.544
 20
318.4087
 30
0.0
 10
288.544
 20
318.4087
 30
0.0
 10
288.544
 20
312.8461
 30
0.0
 10
288.544
 20
307.3089
 30
0.0
 10
288.544
 20
301.7463
 30
0.0
  0
SPLINE
  5
7C
330
1F
100
AcDbEntity
  8
layer 1
100
AcDbSpline
210
0.0
220
0.0
230
1.0
 70
    11
 71
     3
 72
    28
 73
    24
 74
     0
 42
0.0000000001
 43
0.0000000001
 40
0.0
 40
0.0
 40
0.0
 40
0.0
 40
0.1666666666666667
 40
0.1666666666666667
 40
0.1666666666666667
 40
0.1666666666666667
 40
0.3333333333333333
 40
0.3333333333333333
 40
0.3333333333333333
 40
0.3333333333333333
 40
0.5
 40
0.5
 40
0.5
 40
0.5
 40
0.6666666666666666
 40
0.6666666666666666
 40
0.6666666666666666
 40
0.6666666666666666
 40
0.8333333333333332
 40
0.8333333333333332
 40
0.8333333333333332
 40
0.8333333333333332
 40
1.0
 40
1.0
 40
1.0
 40
1.0
 10
243.5352
 20
543.4018999999999
 30
0.0
 10
243.5352
 20
543.4018999999999
 30
0.0
 10
243.5352
 20
543.4018999999999
 30
0.0
 10
243.5352
 20
543.4018999999999
 30
0.0
 10
243.5352
 20
543.4018999999999
 30
0.0
 10
243.5352
 20
513.9632999999999
 30
0.0
 10
243.5352
 20
484.5246999999999
 30
0.0
 10
243.5352
 20
455.0861
 30
0.0
 10
243.5352
 20
455.0861
 30
0.0
 10
248.539
 20
455.0861
 30
0.0
 10
253.5428
 20
455.0861
 30
0.0
 10
258.5465
 20
455.0861
 30
0.0
 10
258.5465
 20
455.0861
 30
0.0
 10
298.5261
 20
455.0861
 30
0.0
 10
318.2873
 20
475.0251
 30
0.0
 10
317.7539
 20
514.9284999999999
 30
0.0
 10
317.7539
 20
514.9284999999999
 30
0.0
 10
316.6363
 20
553.9937
 30
0.0
 10
301.3964
 20
573.9326999999999
 30
0.0
 10
272.0339
 20
574.6947
 30
0.0
 10
272.0339
 20
574.6947
 30
0.0
 10
253.0348
 20
574.9487
 30
0.0
 10
243.5352
 20
564.5093000000001
 30
0.0
 10
243.5352
 20
543.4018999999999
 30
0.0
  0
SPLINE
  5
7D
330
1F
100
AcDbEntity
  8
layer 1
100
AcDbSpline
210
0.0
220
0.0
230
1.0
 70
    11
 71
     3
 72
    44
 73
    40
 74
     0
 42
0.0000000001
 43
0.0000000001
 40
0.0
 40
0.0
 40
0.0
 40
0.0
 40
0.1
 40
0.1
 40
0.1
 40
0.1
 40
0.2
 40
0.2
 40
0.2
 40
0.2
 40
0.3
 40
0.3
 40
0.3
 40
0.3
 40
0.4
 40
0.4
 40
0.4
 40
0.4
 40
0.5
 40
0.5
 40
0.5
 40
0.5
 40
0.6
 40
0.6
 40
0.6
 40
0.6
 40
0.7
 40
0.7
 40
0.7
 40
0.7
 40
0.8
 40
0.8
 40
0.8
 40
0.8
 40
0.9
 40
0.9
 40
0.9
 40
0.9
 40
1.0
 40
1.0
 40
1.0
 40
1.0
 10
692.8357
 20
337.4079
 30
0.0
 10
692.8357
 20
337.4079
 30
0.0
 10
692.8357
 20
337.4079
 30
0.0
 10
692.8357
 20
337.4079
 30
0.0
 10
692.8357
 20
337.4079
 30
0.0
 10
698.4999
 20
337.4079
 30
0.0
 10
704.1387
 20
337.4079
 30
0.0
 10
709.8029
 20
337.4079
 30
0.0
 10
709.8029
 20
337.4079
 30
0.0
 10
707.7455
 20
290.1131
 30
0.0
 10
685.6476
 20
265.4243
 30
0.0
 10
643.4835
 20
263.3669
 30
0.0
 10
643.4835
 20
263.3669
 30
0.0
 10
606.4757
 20
263.3669
 30
0.0
 10
586.9430999999999
 20
281.8835
 30
0.0
 10
584.8857
 20
318.8913
 30
0.0
 10
584.8857
 20
318.8913
 30
0.0
 10
485.7749
 20
321.3043
 30
0.0
 10
435.3813
 20
367.0497
 30
0.0
 10
433.7558
 20
456.1275
 30
0.0
 10
433.7558
 20
456.1275
 30
0.0
 10
432.7144
 20
548.4056999999999
 30
0.0
 10
478.9677
 20
595.1925
 30
0.0
 10
572.5666999999999
 20
596.4624999999999
 30
0.0
 10
572.5666999999999
 20
596.4624999999999
 30
0.0
 10
663.1431
 20
596.0307
 30
0.0
 10
708.9139
 20
549.2693
 30
0.0
 10
709.8029
 20
456.1275
 30
0.0
 10
709.8029
 20
456.1275
 30
0.0
 10
709.4727
 20
395.2183
 30
0.0
 10
683.7679
 20
353.5877
 30
0.0
 10
632.6884999999999
 20
331.2357
 30
0.0
 10
632.6884999999999
 20
331.2357
 30
0.0
 10
640.7912
 20
315.6909
 30
0.0
 10
651.5861
 20
307.9947
 30
0.0
 10
665.0735
 20
308.0963
 30
0.0
 10
665.0735
 20
308.0963
 30
0.0
 10
680.3643
 20
309.3155
 30
0.0
 10
689.6353
 20
319.0945
 30
0.0
 10
692.8357
 20
337.4079
 30
0.0
  0
SPLINE
  5
7E
330
1F
100
AcDbEntity
  8
layer 1
100
AcDbSpline
210
0.0
220
0.0
230
1.0
 70
    11
 71
     3
 72
    32
 73
    28
 74
     0
 42
0.0000000001
 43
0.0000000001
 40
0.0
 40
0.0
 40
0.0
 40
0.0
 40
0.1428571428571428
 40
0.1428571428571428
 40
0.1428571428571428
 40
0.1428571428571428
 40
0.2857142857142857
 40
0.2857142857142857
 40
0.2857142857142857
 40
0.2857142857142857
 40
0.4285714285714285
 40
0.4285714285714285
 40
0.4285714285714285
 40
0.4285714285714285
 40
0.5714285714285714
 40
0.5714285714285714
 40
0.5714285714285714
 40
0.5714285714285714
 40
0.7142857142857143
 40
0.7142857142857143
 40
0.7142857142857143
 40
0.7142857142857143
 40
0.8571428571428569
 40
0.8571428571428569
 40
0.8571428571428569
 40
0.8571428571428569
 40
1.0
 40
1.0
 40
1.0
 40
1.0
 10
527.8373
 20
355.8991
 30
0.0
 10
527.8373
 20
355.8991
 30
0.0
 10
527.8373
 20
355.8991
 30
0.0
 10
527.8373
 20
355.8991
 30
0.0
 10
527.8373
 20
355.8991
 30
0.0
 10
529.8946999999999
 20
388.7921
 30
0.0
 10
544.2711
 20
405.7592999999999
 30
0.0
 10
571.0173
 20
406.8006999999999
 30
0.0
 10
571.0173
 20
406.8006999999999
 30
0.0
 10
593.6232999999999
 20
406.8006999999999
 30
0.0
 10
611.0984999999999
 20
394.9643
 30
0.0
 10
623.4429
 20
371.3169
 30
0.0
 10
623.4429
 20
371.3169
 30
0.0
 10
631.4693999999999
 20
391.7131
 30
0.0
 10
635.5841
 20
420.0086999999999
 30
0.0
 10
635.7872999999999
 20
456.1275
 30
0.0
 10
635.7872999999999
 20
456.1275
 30
0.0
 10
635.6602999999999
 20
537.1535
 30
0.0
 10
614.5783
 20
577.7681
 30
0.0
 10
572.5666999999999
 20
577.9713
 30
0.0
 10
572.5666999999999
 20
577.9713
 30
0.0
 10
529.3867
 20
577.9713
 30
0.0
 10
507.7967
 20
537.3567
 30
0.0
 10
507.7967
 20
456.1275
 30
0.0
 10
507.7967
 20
456.1275
 30
0.0
 10
508.4316999999999
 20
410.1281
 30
0.0
 10
515.1119
 20
376.7271
 30
0.0
 10
527.8373
 20
355.8991
 30
0.0
  0
SPLINE
  5
7F
330
1F
100
AcDbEntity
  8
layer 1
100
AcDbSpline
210
0.0
220
0.0
230
1.0
 70
    11
 71
     3
 72
    20
 73
    16
 74
     0
 42
0.0000000001
 43
0.0000000001
 40
0.0
 40
0.0
 40
0.0
 40
0.0
 40
0.25
 40
0.25
 40
0.25
 40
0.25
 40
0.5
 40
0.5
 40
0.5
 40
0.5
 40
0.75
 40
0.75
 40
0.75
 40
0.75
 40
1.0
 40
1.0
 40
1.0
 40
1.0
 10
569.4678999999999
 20
386.7347
 30
0.0
 10
569.4678999999999
 20
386.7347
 30
0.0
 10
569.4678999999999
 20
386.7347
 30
0.0
 10
569.4678999999999
 20
386.7347
 30
0.0
 10
569.4678999999999
 20
386.7347
 30
0.0
 10
556.2345
 20
386.5823
 30
0.0
 10
549.5543
 20
378.3527
 30
0.0
 10
549.4272999999999
 20
362.0713
 30
0.0
 10
549.4272999999999
 20
362.0713
 30
0.0
 10
549.4272999999999
 20
344.1389
 30
0.0
 10
562.5083
 20
335.7569
 30
0.0
 10
588.6956999999999
 20
336.8745
 30
0.0
 10
588.6956999999999
 20
336.8745
 30
0.0
 10
591.6421
 20
369.4119
 30
0.0
 10
585.2413
 20
386.0235
 30
0.0
 10
569.4678999999999
 20
386.7347
 30
0.0
  0
SPLINE
  5
80
330
1F
100
AcDbEntity
  8
layer 1
100
AcDbSpline
210
0.0
220
0.0
230
1.0
 70
    11
 71
     3
 72
    84
 73
    80
 74
     0
 42
0.0000000001
 43
0.0000000001
 40
0.0
 40
0.0
 40
0.0
 40
0.0
 40
0.05
 40
0.05
 40
0.05
 40
0.05
 40
0.1
 40
0.1
 40
0.1
 40
0.1
 40
0.15
 40
0.15
 40
0.15
 40
0.15
 40
0.2
 40
0.2
 40
0.2
 40
0.2
 40
0.25
 40
0.25
 40
0.25
 40
0.25
 40
0.3
 40
0.3
 40
0.3
 40
0.3
 40
0.35
 40
0.35
 40
0.35
 40
0.35
 40
0.4
 40
0.4
 40
0.4
 40
0.4
 40
0.45
 40
0.45
 40
0.45
 40
0.45
 40
0.5
 40
0.5
 40
0.5
 40
0.5
 40
0.55
 40
0.55
 40
0.55
 40
0.55
 40
0.6
 40
0.6
 40
0.6
 40
0.6
 40
0.65
 40
0.65
 40
0.65
 40
0.65
 40
0.7000000000000001
 40
0.7000000000000001
 40
0.7000000000000001
 40
0.7000000000000001
 40
0.7500000000000001
 40
0.7500000000000001
 40
0.7500000000000001
 40
0.7500000000000001
 40
0.8000000000000001
 40
0.8000000000000001
 40
0.8000000000000001
 40
0.8000000000000001
 40
0.8500000000000001
 40
0.8500000000000001
 40
0.8500000000000001
 40
0.8500000000000001
 40
0.9000000000000001
 40
0.9000000000000001
 40
0.9000000000000001
 40
0.9000000000000001
 40
0.9500000000000003
 40
0.9500000000000003
 40
0.9500000000000003
 40
0.9500000000000003
 40
1.0
 40
1.0
 40
1.0
 40
1.0
 10
1011.047
 20
368.1419
 30
0.0
 10
1011.047
 20
368.1419
 30
0.0
 10
1011.047
 20
368.1419
 30
0.0
 10
1011.047
 20
368.1419
 30
0.0
 10
1011.047
 20
368.1419
 30
0.0
 10
1016.5842
 20
368.1419
 30
0.0
 10
1022.1468
 20
368.1419
 30
0.0
 10
1027.7094
 20
368.1419
 30
0.0
 10
1027.7094
 20
368.1419
 30
0.0
 10
1027.7094
 20
323.6919
 30
0.0
 10
1007.1608
 20
301.6447
 30
0.0
 10
966.089
 20
302.0257
 30
0.0
 10
966.089
 20
302.0257
 30
0.0
 10
925.322
 20
302.7369
 30
0.0
 10
904.7226
 20
325.7493
 30
0.0
 10
904.2908
 20
371.0883
 30
0.0
 10
904.2908
 20
371.0883
 30
0.0
 10
904.2399000000001
 20
418.9672999999999
 30
0.0
 10
886.4854000000001
 20
442.9702999999999
 30
0.0
 10
851.027
 20
443.1226999999999
 30
0.0
 10
851.027
 20
443.1226999999999
 30
0.0
 10
851.027
 20
413.6841
 30
0.0
 10
851.027
 20
384.2455
 30
0.0
 10
851.027
 20
354.8069
 30
0.0
 10
851.027
 20
354.8069
 30
0.0
 10
851.2048
 20
333.2677
 30
0.0
 10
865.0986000000001
 20
321.6091
 30
0.0
 10
892.7084
 20
319.8057
 30
0.0
 10
892.7084
 20
319.8057
 30
0.0
 10
892.7084
 20
314.2431
 30
0.0
 10
892.7084
 20
308.6805
 30
0.0
 10
892.7084
 20
303.1433
 30
0.0
 10
892.7084
 20
303.1433
 30
0.0
 10
842.1369999999999
 20
303.1433
 30
0.0
 10
791.5909
 20
303.1433
 30
0.0
 10
741.0448999999999
 20
303.1433
 30
0.0
 10
741.0448999999999
 20
303.1433
 30
0.0
 10
741.0448999999999
 20
308.6805
 30
0.0
 10
741.0448999999999
 20
314.2431
 30
0.0
 10
741.0448999999999
 20
319.8057
 30
0.0
 10
741.0448999999999
 20
319.8057
 30
0.0
 10
768.7816999999999
 20
321.7361
 30
0.0
 10
782.6500999999999
 20
331.1849
 30
0.0
 10
782.7009
 20
348.1267
 30
0.0
 10
782.7009
 20
348.1267
 30
0.0
 10
782.7009
 20
415.9193
 30
0.0
 10
782.7009
 20
483.6865
 30
0.0
 10
782.7009
 20
551.4537
 30
0.0
 10
782.7009
 20
551.4537
 30
0.0
 10
782.5231
 20
569.3353
 30
0.0
 10
768.6293
 20
578.7840999999999
 30
0.0
 10
741.0448999999999
 20
579.8001
 30
0.0
 10
741.0448999999999
 20
579.8001
 30
0.0
 10
741.0448999999999
 20
585.3627
 30
0.0
 10
741.0448999999999
 20
590.8999
 30
0.0
 10
741.0448999999999
 20
596.4624999999999
 30
0.0
 10
741.0448999999999
 20
596.4624999999999
 30
0.0
 10
791.0321
 20
596.4624999999999
 30
0.0
 10
841.0448
 20
596.4624999999999
 30
0.0
 10
891.0319999999998
 20
596.4624999999999
 30
0.0
 10
891.0319999999998
 20
596.4624999999999
 30
0.0
 10
961.9742
 20
595.9036999999999
 30
0.0
 10
997.7627999999999
 20
570.2497
 30
0.0
 10
998.3976999999999
 20
519.5767
 30
0.0
 10
998.3976999999999
 20
519.5767
 30
0.0
 10
997.9406
 20
475.0505
 30
0.0
 10
964.8189999999999
 20
451.2507
 30
0.0
 10
899.033
 20
448.1265
 30
0.0
 10
899.033
 20
448.1265
 30
0.0
 10
937.0314
 20
443.6815
 30
0.0
 10
960.5771999999999
 20
422.0914999999999
 30
0.0
 10
969.6704
 20
383.3311
 30
0.0
 10
969.6704
 20
383.3311
 30
0.0
 10
977.2142
 20
350.5397
 30
0.0
 10
986.0025
 20
334.9187
 30
0.0
 10
996.0356
 20
336.4681
 30
0.0
 10
996.0356
 20
336.4681
 30
0.0
 10
1004.0112
 20
338.4239
 30
0.0
 10
1009.0149
 20
348.9903
 30
0.0
 10
1011.047
 20
368.1419
 30
0.0
  0
SPLINE
  5
81
330
1F
100
AcDbEntity
  8
layer 1
100
AcDbSpline
210
0.0
220
0.0
230
1.0
 70
    11
 71
     3
 72
    24
 73
    20
 74
     0
 42
0.0000000001
 43
0.0000000001
 40
0.0
 40
0.0
 40
0.0
 40
0.0
 40
0.2
 40
0.2
 40
0.2
 40
0.2
 40
0.4
 40
0.4
 40
0.4
 40
0.4
 40
0.6000000000000001
 40
0.6000000000000001
 40
0.6000000000000001
 40
0.6000000000000001
 40
0.8
 40
0.8
 40
0.8
 40
0.8
 40
1.0
 40
1.0
 40
1.0
 40
1.0
 10
851.027
 20
551.4537
 30
0.0
 10
851.027
 20
551.4537
 30
0.0
 10
851.027
 20
551.4537
 30
0.0
 10
851.027
 20
551.4537
 30
0.0
 10
851.027
 20
551.4537
 30
0.0
 10
851.027
 20
520.9229
 30
0.0
 10
851.027
 20
490.3666999999999
 30
0.0
 10
851.027
 20
459.8105
 30
0.0
 10
851.027
 20
459.8105
 30
0.0
 10
901.4713999999999
 20
460.4963
 30
0.0
 10
926.4649
 20
479.9527
 30
0.0
 10
926.0332
 20
518.1289
 30
0.0
 10
926.0332
 20
518.1289
 30
0.0
 10
925.2711000000001
 20
555.2890999999999
 30
0.0
 10
909.7264
 20
574.7201
 30
0.0
 10
879.3733999999998
 20
576.4727
 30
0.0
 10
879.3733999999998
 20
576.4727
 30
0.0
 10
860.4756999999999
 20
576.4727
 30
0.0
 10
851.027
 20
568.1414999999999
 30
0.0
 10
851.027
 20
551.4537
 30
0.0
  0
ENDSEC
  0
SECTION
  2
OBJECTS
  0
DICTIONARY
  5
C
330
0
100
AcDbDictionary
281
     1
  3
ACAD_COLOR
350
87
  3
ACAD_GROUP
350
D
  3
ACAD_LAYOUT
350
1A
  3
ACAD_MATERIAL
350
86
  3
ACAD_MLEADERSTYLE
350
83
  3
ACAD_MLINESTYLE
350
17
  3
ACAD_PLOTSETTINGS
350
19
  3
ACAD_PLOTSTYLENAME
350
E
  3
ACAD_SCALELIST
350
3B
  3
ACAD_TABLESTYLE
350
82
  3
ACAD_VISUALSTYLE
350
2A
  3
AcDbVariableDictionary
350
8B
  0
DICTIONARY
  5
87
102
{ACAD_REACTORS
330
C
102
}
330
C
100
AcDbDictionary
281
     1
  0
DICTIONARY
  5
D
102
{ACAD_REACTORS
330
C
102
}
330
C
100
AcDbDictionary
281
     1
  0
DICTIONARY
  5
1A
102
{ACAD_REACTORS
330
C
102
}
330
C
100
AcDbDictionary
281
     1
  3
Layout1
350
1E
  3
Layout2
350
26
  3
Model
350
22
  0
DICTIONARY
  5
86
102
{ACAD_REACTORS
330
C
102
}
330
C
100
AcDbDictionary
281
     1
  0
DICTIONARY
  5
83
102
{ACAD_REACTORS
330
C
102
}
330
C
100
AcDbDictionary
281
     1
  0
DICTIONARY
  5
17
102
{ACAD_REACTORS
330
C
102
}
330
C
100
AcDbDictionary
281
     1
  3
Standard
350
18
  0
DICTIONARY
  5
19
102
{ACAD_REACTORS
330
C
102
}
330
C
100
AcDbDictionary
281
     1
  0
ACDBDICTIONARYWDFLT
  5
E
102
{ACAD_REACTORS
330
C
102
}
330
C
100
AcDbDictionary
281
     1
  3
Normal
350
F
100
AcDbDictionaryWithDefault
340
F
  0
DICTIONARY
  5
3B
102
{ACAD_REACTORS
330
C
102
}
330
C
100
AcDbDictionary
281
     1
  3
A0
350
3C
  3
A1
350
3D
  3
A2
350
3E
  3
A3
350
3F
  3
A4
350
40
  3
A5
350
41
  3
A6
350
42
  3
A7
350
43
  3
A8
350
44
  3
A9
350
45
  3
B0
350
46
  3
B1
350
47
  3
B2
350
48
  3
B3
350
49
  3
B4
350
4A
  3
B5
350
4B
  3
B6
350
4C
  3
B7
350
4D
  3
B8
350
4E
  3
B9
350
4F
  3
C0
350
50
  3
C1
350
51
  3
C2
350
52
  3
C3
350
53
  3
C4
350
54
  3
C5
350
55
  3
C6
350
56
  3
C7
350
57
  3
C8
350
58
  3
C9
350
59
  3
D0
350
5A
  3
D1
350
5B
  3
D2
350
5C
  0
DICTIONARY
  5
82
102
{ACAD_REACTORS
330
C
102
}
330
C
100
AcDbDictionary
281
     1
  3
Standard
350
88
  0
DICTIONARY
  5
2A
102
{ACAD_REACTORS
330
C
102
}
330
C
100
AcDbDictionary
281
     1
  3
2dWireframe
350
2F
  3
3D Hidden
350
31
  3
3dWireframe
350
30
  3
Basic
350
32
  3
Brighten
350
36
  3
ColorChange
350
3A
  3
Conceptual
350
34
  3
Dim
350
35
  3
Facepattern
350
39
  3
Flat
350
2B
  3
FlatWithEdges
350
2C
  3
Gouraud
350
2D
  3
GouraudWithEdges
350
2E
  3
Linepattern
350
38
  3
Realistic
350
33
  3
Thicken
350
37
  0
DICTIONARY
  5
8B
102
{ACAD_REACTORS
330
C
102
}
330
C
100
AcDbDictionary
281
     1
  3
CTABLESTYLE
350
8C
  0
LAYOUT
  5
1E
102
{ACAD_REACTORS
330
1A
102
}
330
1A
100
AcDbPlotSettings
  1

  2
none_device
  4

  6

 40
0.0
 41
0.0
 42
0.0
 43
0.0
 44
0.0
 45
0.0
 46
0.0
 47
0.0
 48
0.0
 49
0.0
140
0.0
141
0.0
142
1.0
143
1.0
 70
   688
 72
     0
 73
     0
 74
     5
  7

 75
    16
147
1.0
 76
     0
 77
     2
 78
   300
148
0.0
149
0.0
100
AcDbLayout
  1
Layout1
 70
     1
 71
     1
 10
0.0
 20
0.0
 11
12.0
 21
9.0
 12
0.0
 22
0.0
 32
0.0
 14
1.000000000000000E+20
 24
1.000000000000000E+20
 34
1.000000000000000E+20
 15
-1.000000000000000E+20
 25
-1.000000000000000E+20
 35
-1.000000000000000E+20
146
0.0
 13
0.0
 23
0.0
 33
0.0
 16
1.0
 26
0.0
 36
0.0
 17
0.0
 27
1.0
 37
0.0
 76
     0
330
1B
  0
LAYOUT
  5
26
102
{ACAD_REACTORS
330
1A
102
}
330
1A
100
AcDbPlotSettings
  1

  2
none_device
  4

  6

 40
0.0
 41
0.0
 42
0.0
 43
0.0
 44
0.0
 45
0.0
 46
0.0
 47
0.0
 48
0.0
 49
0.0
140
0.0
141
0.0
142
1.0
143
1.0
 70
   688
 72
     0
 73
     0
 74
     5
  7

 75
    16
147
1.0
 76
     0
 77
     2
 78
   300
148
0.0
149
0.0
100
AcDbLayout
  1
Layout2
 70
     1
 71
     2
 10
0.0
 20
0.0
 11
0.0
 21
0.0
 12
0.0
 22
0.0
 32
0.0
 14
0.0
 24
0.0
 34
0.0
 15
0.0
 25
0.0
 35
0.0
146
0.0
 13
0.0
 23
0.0
 33
0.0
 16
1.0
 26
0.0
 36
0.0
 17
0.0
 27
1.0
 37
0.0
 76
     0
330
23
  0
LAYOUT
  5
22
102
{ACAD_REACTORS
330
1A
102
}
330
1A
100
AcDbPlotSettings
  1

  2
none_device
  4

  6

 40
0.0
 41
0.0
 42
0.0
 43
0.0
 44
0.0
 45
0.0
 46
0.0
 47
0.0
 48
0.0
 49
0.0
140
0.0
141
0.0
142
1.0
143
1.0
 70
  1712
 72
     0
 73
     0
 74
     0
  7

 75
     0
147
1.0
 76
     0
 77
     2
 78
   300
148
0.0
149
0.0
100
AcDbLayout
  1
Model
 70
     1
 71
     0
 10
0.0
 20
0.0
 11
12.0
 21
9.0
 12
0.0
 22
0.0
 32
0.0
 14
-4388.459499999999
 24
263.3669
 34
0.0
 15
3409.3657
 25
598.4183
 35
0.0
146
0.0
 13
0.0
 23
0.0
 33
0.0
 16
1.0
 26
0.0
 36
0.0
 17
0.0
 27
1.0
 37
0.0
 76
     0
330
1F
331
29
  0
MLINESTYLE
  5
18
102
{ACAD_REACTORS
330
17
102
}
330
17
100
AcDbMlineStyle
  2
STANDARD
 70
     0
  3

 62
   256
 51
90.0
 52
90.0
 71
     2
 49
0.5
 62
   256
  6
BYLAYER
 49
-0.5
 62
   256
  6
BYLAYER
  0
ACDBPLACEHOLDER
  5
F
102
{ACAD_REACTORS
330
E
102
}
330
E
  0
SCALE
  5
3C
102
{ACAD_REACTORS
330
3B
102
}
330
3B
100
AcDbScale
 70
     0
300
1:1
140
1.0
141
1.0
290
     1
  0
SCALE
  5
3D
102
{ACAD_REACTORS
330
3B
102
}
330
3B
100
AcDbScale
 70
     0
300
1:2
140
1.0
141
2.0
290
     0
  0
SCALE
  5
3E
102
{ACAD_REACTORS
330
3B
102
}
330
3B
100
AcDbScale
 70
     0
300
1:4
140
1.0
141
4.0
290
     0
  0
SCALE
  5
3F
102
{ACAD_REACTORS
330
3B
102
}
330
3B
100
AcDbScale
 70
     0
300
1:5
140
1.0
141
5.0
290
     0
  0
SCALE
  5
40
102
{ACAD_REACTORS
330
3B
102
}
330
3B
100
AcDbScale
 70
     0
300
1:8
140
1.0
141
8.0
290
     0
  0
SCALE
  5
41
102
{ACAD_REACTORS
330
3B
102
}
330
3B
100
AcDbScale
 70
     0
300
1:10
140
1.0
141
10.0
290
     0
  0
SCALE
  5
42
102
{ACAD_REACTORS
330
3B
102
}
330
3B
100
AcDbScale
 70
     0
300
1:16
140
1.0
141
16.0
290
     0
  0
SCALE
  5
43
102
{ACAD_REACTORS
330
3B
102
}
330
3B
100
AcDbScale
 70
     0
300
1:20
140
1.0
141
20.0
290
     0
  0
SCALE
  5
44
102
{ACAD_REACTORS
330
3B
102
}
330
3B
100
AcDbScale
 70
     0
300
1:30
140
1.0
141
30.0
290
     0
  0
SCALE
  5
45
102
{ACAD_REACTORS
330
3B
102
}
330
3B
100
AcDbScale
 70
     0
300
1:40
140
1.0
141
40.0
290
     0
  0
SCALE
  5
46
102
{ACAD_REACTORS
330
3B
102
}
330
3B
100
AcDbScale
 70
     0
300
1:50
140
1.0
141
50.0
290
     0
  0
SCALE
  5
47
102
{ACAD_REACTORS
330
3B
102
}
330
3B
100
AcDbScale
 70
     0
300
1:100
140
1.0
141
100.0
290
     0
  0
SCALE
  5
48
102
{ACAD_REACTORS
330
3B
102
}
330
3B
100
AcDbScale
 70
     0
300
2:1
140
2.0
141
1.0
290
     0
  0
SCALE
  5
49
102
{ACAD_REACTORS
330
3B
102
}
330
3B
100
AcDbScale
 70
     0
300
4:1
140
4.0
141
1.0
290
     0
  0
SCALE
  5
4A
102
{ACAD_REACTORS
330
3B
102
}
330
3B
100
AcDbScale
 70
     0
300
8:1
140
8.0
141
1.0
290
     0
  0
SCALE
  5
4B
102
{ACAD_REACTORS
330
3B
102
}
330
3B
100
AcDbScale
 70
     0
300
10:1
140
10.0
141
1.0
290
     0
  0
SCALE
  5
4C
102
{ACAD_REACTORS
330
3B
102
}
330
3B
100
AcDbScale
 70
     0
300
100:1
140
100.0
141
1.0
290
     0
  0
SCALE
  5
4D
102
{ACAD_REACTORS
330
3B
102
}
330
3B
100
AcDbScale
 70
     0
300
1/128" = 1'-0"
140
0.0078125
141
12.0
290
     0
  0
SCALE
  5
4E
102
{ACAD_REACTORS
330
3B
102
}
330
3B
100
AcDbScale
 70
     0
300
1/64" = 1'-0"
140
0.015625
141
12.0
290
     0
  0
SCALE
  5
4F
102
{ACAD_REACTORS
330
3B
102
}
330
3B
100
AcDbScale
 70
     0
300
1/32" = 1'-0"
140
0.03125
141
12.0
290
     0
  0
SCALE
  5
50
102
{ACAD_REACTORS
330
3B
102
}
330
3B
100
AcDbScale
 70
     0
300
1/16" = 1'-0"
140
0.0625
141
12.0
290
     0
  0
SCALE
  5
51
102
{ACAD_REACTORS
330
3B
102
}
330
3B
100
AcDbScale
 70
     0
300
3/32" = 1'-0"
140
0.09375
141
12.0
290
     0
  0
SCALE
  5
52
102
{ACAD_REACTORS
330
3B
102
}
330
3B
100
AcDbScale
 70
     0
300
1/8" = 1'-0"
140
0.125
141
12.0
290
     0
  0
SCALE
  5
53
102
{ACAD_REACTORS
330
3B
102
}
330
3B
100
AcDbScale
 70
     0
300
3/16" = 1'-0"
140
0.1875
141
12.0
290
     0
  0
SCALE
  5
54
102
{ACAD_REACTORS
330
3B
102
}
330
3B
100
AcDbScale
 70
     0
300
1/4" = 1'-0"
140
0.25
141
12.0
290
     0
  0
SCALE
  5
55
102
{ACAD_REACTORS
330
3B
102
}
330
3B
100
AcDbScale
 70
     0
300
3/8" = 1'-0"
140
0.375
141
12.0
290
     0
  0
SCALE
  5
56
102
{ACAD_REACTORS
330
3B
102
}
330
3B
100
AcDbScale
 70
     0
300
1/2" = 1'-0"
140
0.5
141
12.0
290
     0
  0
SCALE
  5
57
102
{ACAD_REACTORS
330
3B
102
}
330
3B
100
AcDbScale
 70
     0
300
3/4" = 1'-0"
140
0.75
141
12.0
290
     0
  0
SCALE
  5
58
102
{ACAD_REACTORS
330
3B
102
}
330
3B
100
AcDbScale
 70
     0
300
1" = 1'-0"
140
1.0
141
12.0
290
     0
  0
SCALE
  5
59
102
{ACAD_REACTORS
330
3B
102
}
330
3B
100
AcDbScale
 70
     0
300
1-1/2" = 1'-0"
140
1.5
141
12.0
290
     0
  0
SCALE
  5
5A
102
{ACAD_REACTORS
330
3B
102
}
330
3B
100
AcDbScale
 70
     0
300
3" = 1'-0"
140
3.0
141
12.0
290
     0
  0
SCALE
  5
5B
102
{ACAD_REACTORS
330
3B
102
}
330
3B
100
AcDbScale
 70
     0
300
6" = 1'-0"
140
6.0
141
12.0
290
     0
  0
SCALE
  5
5C
102
{ACAD_REACTORS
330
3B
102
}
330
3B
100
AcDbScale
 70
     0
300
1'-0" = 1'-0"
140
12.0
141
12.0
290
     0
  0
TABLESTYLE
  5
88
102
{ACAD_REACTORS
330
82
102
}
330
82
100
AcDbTableStyle
  3
Standard
 70
     0
 71
     0
 40
0.06
 41
0.06
280
     0
281
     0
  7
Standard
140
0.18
170
     2
 62
     0
 63
     7
283
     0
274
    -2
284
     1
 64
     0
275
    -2
285
     1
 65
     0
276
    -2
286
     1
 66
     0
277
    -2
287
     1
 67
     0
278
    -2
288
     1
 68
     0
279
    -2
289
     1
 69
     0
  7
Standard
140
0.25
170
     5
 62
     0
 63
     7
283
     0
274
    -2
284
     1
 64
     0
275
    -2
285
     1
 65
     0
276
    -2
286
     1
 66
     0
277
    -2
287
     1
 67
     0
278
    -2
288
     1
 68
     0
279
    -2
289
     1
 69
     0
  7
Standard
140
0.18
170
     5
 62
     0
 63
     7
283
     0
274
    -2
284
     1
 64
     0
275
    -2
285
     1
 65
     0
276
    -2
286
     1
 66
     0
277
    -2
287
     1
 67
     0
278
    -2
288
     1
 68
     0
279
    -2
289
     1
 69
     0
  0
VISUALSTYLE
  5
2F
102
{ACAD_REACTORS
330
2A
102
}
330
2A
100
AcDbVisualStyle
  2
2dWireframe
 70
     4
 71
     0
 72
     2
 73
     0
 90
        0
 40
-0.6
 41
-30.0
 62
     5
 63
     7
421
 16777215
 74
     1
 91
        4
 64
     7
 65
   257
 75
     1
175
     1
 42
1.0
 92
        0
 66
   257
 43
1.0
 76
     1
 77
     6
 78
     2
 67
     7
 79
     5
170
     0
171
     0
290
     0
174
     0
 93
        1
 44
0.0
173
     0
291
     0
 45
0.0
1001
ACAD
1000
AcDbSavedByObjectVersion
1070
     0
  0
VISUALSTYLE
  5
31
102
{ACAD_REACTORS
330
2A
102
}
330
2A
100
AcDbVisualStyle
  2
3D Hidden
 70
     6
 71
     1
 72
     2
 73
     2
 90
        0
 40
-0.6
 41
-30.0
 62
     5
 63
     7
421
 16777215
 74
     2
 91
        2
 64
     7
 65
   257
 75
     2
175
     1
 42
40.0
 92
        0
 66
   257
 43
1.0
 76
     1
 77
     6
 78
     2
 67
     7
 79
     3
170
     0
171
     0
290
     0
174
     0
 93
        1
 44
0.0
173
     0
291
     0
 45
0.0
1001
ACAD
1000
AcDbSavedByObjectVersion
1070
     0
  0
VISUALSTYLE
  5
30
102
{ACAD_REACTORS
330
2A
102
}
330
2A
100
AcDbVisualStyle
  2
3dWireframe
 70
     5
 71
     0
 72
     2
 73
     0
 90
        0
 40
-0.6
 41
-30.0
 62
     5
 63
     7
421
 16777215
 74
     1
 91
        4
 64
     7
 65
   257
 75
     1
175
     1
 42
1.0
 92
        0
 66
   257
 43
1.0
 76
     1
 77
     6
 78
     2
 67
     7
 79
     5
170
     0
171
     0
290
     0
174
     0
 93
        1
 44
0.0
173
     0
291
     0
 45
0.0
1001
ACAD
1000
AcDbSavedByObjectVersion
1070
     0
  0
VISUALSTYLE
  5
32
102
{ACAD_REACTORS
330
2A
102
}
330
2A
100
AcDbVisualStyle
  2
Basic
 70
     7
 71
     1
 72
     0
 73
     1
 90
        0
 40
-0.6
 41
-30.0
 62
     5
 63
     7
421
 16777215
 74
     0
 91
        4
 64
     7
 65
   257
 75
     1
175
     1
 42
1.0
 92
        8
 66
     7
 43
1.0
 76
     1
 77
     6
 78
     2
 67
     7
 79
     5
170
     0
171
     0
290
     0
174
     0
 93
        1
 44
0.0
173
     0
291
     1
 45
0.0
1001
ACAD
1000
AcDbSavedByObjectVersion
1070
     0
  0
VISUALSTYLE
  5
36
102
{ACAD_REACTORS
330
2A
102
}
330
2A
100
AcDbVisualStyle
  2
Brighten
 70
    12
 71
     2
 72
     2
 73
     0
 90
        0
 40
-0.6
 41
-30.0
 62
     5
 63
     7
421
 16777215
 74
     1
 91
        4
 64
     7
 65
   257
 75
     1
175
     1
 42
1.0
 92
        8
 66
     7
 43
1.0
 76
     1
 77
     6
 78
     2
 67
     7
 79
     5
170
     0
171
     0
290
     0
174
     0
 93
        1
 44
50.0
173
     0
291
     1
 45
0.0
1001
ACAD
1000
AcDbSavedByObjectVersion
1070
     0
  0
VISUALSTYLE
  5
3A
102
{ACAD_REACTORS
330
2A
102
}
330
2A
100
AcDbVisualStyle
  2
ColorChange
 70
    16
 71
     2
 72
     2
 73
     3
 90
        0
 40
-0.6
 41
-30.0
 62
     5
 63
     8
421
  8421504
 74
     1
 91
        4
 64
     7
 65
   257
 75
     1
175
     1
 42
1.0
 92
        8
 66
     8
424
  8421504
 43
1.0
 76
     1
 77
     6
 78
     2
 67
     7
 79
     5
170
     0
171
     0
290
     0
174
     0
 93
        1
 44
0.0
173
     0
291
     1
 45
0.0
1001
ACAD
1000
AcDbSavedByObjectVersion
1070
     0
  0
VISUALSTYLE
  5
34
102
{ACAD_REACTORS
330
2A
102
}
330
2A
100
AcDbVisualStyle
  2
Conceptual
 70
     9
 71
     3
 72
     2
 73
     0
 90
        0
 40
-0.6
 41
-30.0
 62
     5
 63
     7
421
 16777215
 74
     2
 91
        2
 64
     7
 65
   257
 75
     1
175
     1
 42
40.0
 92
        8
 66
     7
 43
1.0
 76
     1
 77
     6
 78
     2
 67
     7
 79
     3
170
     0
171
     0
290
     0
174
     0
 93
        1
 44
0.0
173
     0
291
     0
 45
0.0
1001
ACAD
1000
AcDbSavedByObjectVersion
1070
     0
  0
VISUALSTYLE
  5
35
102
{ACAD_REACTORS
330
2A
102
}
330
2A
100
AcDbVisualStyle
  2
Dim
 70
    11
 71
     2
 72
     2
 73
     0
 90
        0
 40
-0.6
 41
-30.0
 62
     5
 63
     7
421
 16777215
 74
     1
 91
        4
 64
     7
 65
   257
 75
     1
175
     1
 42
1.0
 92
        8
 66
     7
 43
1.0
 76
     1
 77
     6
 78
     2
 67
     7
 79
     5
170
     0
171
     0
290
     0
174
     0
 93
        1
 44
-50.0
173
     0
291
     1
 45
0.0
1001
ACAD
1000
AcDbSavedByObjectVersion
1070
     0
  0
VISUALSTYLE
  5
39
102
{ACAD_REACTORS
330
2A
102
}
330
2A
100
AcDbVisualStyle
  2
Facepattern
 70
    15
 71
     2
 72
     2
 73
     0
 90
        0
 40
-0.6
 41
-30.0
 62
     5
 63
     7
421
 16777215
 74
     1
 91
        4
 64
     7
 65
   257
 75
     1
175
     1
 42
1.0
 92
        8
 66
     7
 43
1.0
 76
     1
 77
     6
 78
     2
 67
     7
 79
     5
170
     0
171
     0
290
     0
174
     0
 93
        1
 44
0.0
173
     0
291
     1
 45
0.0
1001
ACAD
1000
AcDbSavedByObjectVersion
1070
     0
  0
VISUALSTYLE
  5
2B
102
{ACAD_REACTORS
330
2A
102
}
330
2A
100
AcDbVisualStyle
  2
Flat
 70
     0
 71
     2
 72
     1
 73
     1
 90
        2
 40
-0.6
 41
30.0
 62
     5
 63
     7
421
 16777215
 74
     0
 91
        4
 64
     7
 65
   257
 75
     1
175
     1
 42
1.0
 92
        8
 66
     7
 43
1.0
 76
     1
 77
     6
 78
     2
 67
     7
 79
     5
170
     0
171
     0
290
     0
174
     0
 93
       13
 44
0.0
173
     0
291
     1
 45
0.0
1001
ACAD
1000
AcDbSavedByObjectVersion
1070
     0
  0
VISUALSTYLE
  5
2C
102
{ACAD_REACTORS
330
2A
102
}
330
2A
100
AcDbVisualStyle
  2
FlatWithEdges
 70
     1
 71
     2
 72
     1
 73
     1
 90
        2
 40
-0.6
 41
30.0
 62
     5
 63
     7
421
 16777215
 74
     1
 91
        4
 64
     7
 65
   257
 75
     1
175
     1
 42
1.0
 92
        0
 66
   257
 43
1.0
 76
     1
 77
     6
 78
     2
 67
     7
 79
     5
170
     0
171
     0
290
     0
174
     0
 93
       13
 44
0.0
173
     0
291
     1
 45
0.0
1001
ACAD
1000
AcDbSavedByObjectVersion
1070
     0
  0
VISUALSTYLE
  5
2D
102
{ACAD_REACTORS
330
2A
102
}
330
2A
100
AcDbVisualStyle
  2
Gouraud
 70
     2
 71
     2
 72
     2
 73
     1
 90
        2
 40
-0.6
 41
30.0
 62
     5
 63
     7
421
 16777215
 74
     0
 91
        4
 64
     7
 65
   257
 75
     1
175
     1
 42
1.0
 92
        0
 66
     7
 43
1.0
 76
     1
 77
     6
 78
     2
 67
     7
 79
     5
170
     0
171
     0
290
     0
174
     0
 93
       13
 44
0.0
173
     0
291
     1
 45
0.0
1001
ACAD
1000
AcDbSavedByObjectVersion
1070
     0
  0
VISUALSTYLE
  5
2E
102
{ACAD_REACTORS
330
2A
102
}
330
2A
100
AcDbVisualStyle
  2
GouraudWithEdges
 70
     3
 71
     2
 72
     2
 73
     1
 90
        2
 40
-0.6
 41
30.0
 62
     5
 63
     7
421
 16777215
 74
     1
 91
        4
 64
     7
 65
   257
 75
     1
175
     1
 42
1.0
 92
        0
 66
   257
 43
1.0
 76
     1
 77
     6
 78
     2
 67
     7
 79
     5
170
     0
171
     0
290
     0
174
     0
 93
       13
 44
0.0
173
     0
291
     1
 45
0.0
1001
ACAD
1000
AcDbSavedByObjectVersion
1070
     0
  0
VISUALSTYLE
  5
38
102
{ACAD_REACTORS
330
2A
102
}
330
2A
100
AcDbVisualStyle
  2
Linepattern
 70
    14
 71
     2
 72
     2
 73
     0
 90
        0
 40
-0.6
 41
-30.0
 62
     5
 63
     7
421
 16777215
 74
     1
 91
        4
 64
     7
 65
   257
 75
     7
175
     7
 42
1.0
 92
        8
 66
     7
 43
1.0
 76
     1
 77
     6
 78
     2
 67
     7
 79
     5
170
     0
171
     0
290
     0
174
     0
 93
        1
 44
0.0
173
     0
291
     1
 45
0.0
1001
ACAD
1000
AcDbSavedByObjectVersion
1070
     0
  0
VISUALSTYLE
  5
33
102
{ACAD_REACTORS
330
2A
102
}
330
2A
100
AcDbVisualStyle
  2
Realistic
 70
     8
 71
     2
 72
     2
 73
     0
 90
        0
 40
-0.6
 41
-30.0
 62
     5
 63
     7
421
 16777215
 74
     1
 91
        0
 64
     7
 65
   257
 75
     1
175
     1
 42
1.0
 92
        8
 66
     8
424
  7895160
 43
1.0
 76
     1
 77
     6
 78
     2
 67
     7
 79
     5
170
     0
171
     0
290
     0
174
     0
 93
       13
 44
0.0
173
     0
291
     0
 45
0.0
1001
ACAD
1000
AcDbSavedByObjectVersion
1070
     0
  0
VISUALSTYLE
  5
37
102
{ACAD_REACTORS
330
2A
102
}
330
2A
100
AcDbVisualStyle
  2
Thicken
 70
    13
 71
     2
 72
     2
 73
     0
 90
        0
 40
-0.6
 41
-30.0
 62
     5
 63
     7
421
 16777215
 74
     1
 91
        4
 64
     7
 65
   257
 75
     1
175
     1
 42
1.0
 92
       12
 66
     7
 43
1.0
 76
     1
 77
     6
 78
     2
 67
     7
 79
     5
170
     0
171
     0
290
     0
174
     0
 93
        1
 44
0.0
173
     0
291
     1
 45
0.0
1001
ACAD
1000
AcDbSavedByObjectVersion
1070
     0
  0
DICTIONARYVAR
  5
8C
102
{ACAD_REACTORS
330
8B
102
}
330
8B
100
DictionaryVariables
280
     0
  1
STANDARD
  0
ENDSEC
  0
EOF
